<?xml version="1.0" encoding="UTF-8"?>
<!DOCTYPE svg PUBLIC "-//W3C//DTD SVG 1.1//EN" "http://www.w3.org/Graphics/SVG/1.1/DTD/svg11.dtd">
<!-- Creator: CorelDRAW X7 -->
<svg xmlns="http://www.w3.org/2000/svg" xml:space="preserve" width="132.265mm" height="175.294mm" version="1.1" style="shape-rendering:geometricPrecision; text-rendering:geometricPrecision; image-rendering:optimizeQuality; fill-rule:evenodd; clip-rule:evenodd"
viewBox="0 0 1712 2269"
 xmlns:xlink="http://www.w3.org/1999/xlink">
 <defs>
  <style type="text/css">
   <![CDATA[
    .str1 {stroke:#2B2A29;stroke-width:2.58936}
    .str0 {stroke:white;stroke-width:2.58936}
    .fil2 {fill:none}
    .fil1 {fill:#FEFEFE}
    .fil0 {fill:#2B2A29}
   ]]>
  </style>
   <clipPath id="id0">
    <path d="M1586 262c-136,-40 -363,-42 -521,-42 -174,0 -777,16 -908,28 -112,10 -130,13 -147,20l-10 1807c25,10 72,20 157,25 89,5 783,17 956,17 97,0 364,-11 460,-26 46,-8 97,-16 126,-30l-2 -1749c-18,-19 -60,-35 -111,-50z"/>
   </clipPath>
 </defs>
 <g id="sonos">
  <metadata id="CorelCorpID_0Corel-Layer"/>
  <path class="fil0 str0" d="M589 225c199,-7 407,-13 496,-13 87,0 161,1 222,4 60,2 107,6 138,11 18,3 32,5 44,7 30,4 48,7 85,18 11,4 20,7 29,10 39,11 78,23 99,36l-1 -190c-9,-8 -21,-17 -37,-26 -15,-8 -34,-16 -56,-23 -26,-8 -47,-14 -69,-19 -22,-5 -46,-10 -77,-15 -36,-6 -96,-13 -172,-17 -59,-4 -128,-7 -204,-7 -85,0 -275,6 -462,14 -197,8 -390,18 -457,24 -112,10 -135,21 -155,31l-2 1 0 193c16,-7 26,-9 146,-19 62,-6 244,-14 433,-20z"/>
  <path class="fil0 str0" d="M1081 2091c-175,0 -825,-2 -935,-11 -109,-10 -125,-10 -141,-12l-1 70c14,16 45,47 90,71 30,16 65,30 107,35 52,6 216,13 394,17 203,6 424,9 517,7 87,-2 159,-4 223,-10 64,-5 120,-14 176,-29 31,-9 55,-17 76,-26 21,-9 39,-19 56,-33 13,-10 23,-18 32,-25 8,-7 15,-13 22,-20l1 -1 1 0 0 -1 3 -2 5 -6 3 -3 0 -13 1 -57 0 -14 -12 11c-19,17 -53,28 -110,33 -169,13 -339,19 -508,19z"/>
  <g id="_286838518304">
   <path class="fil1" d="M699 85c7,-1 13,1 18,5 4,4 7,10 8,16 0,7 -3,13 -7,18 -4,5 -10,8 -17,9 -7,1 -13,-2 -18,-6 -4,-4 -7,-9 -7,-16 -1,-6 2,-13 6,-17 4,-5 10,-8 17,-9zm-1 58c1,0 2,0 3,0 1,-1 3,-1 4,-1 9,-2 16,-6 22,-13 4,-5 7,-11 7,-17 1,-6 1,-12 -2,-18 -1,-3 -4,-6 -6,-9 -5,-5 -12,-8 -19,-9 -1,-1 -3,0 -4,-1 -2,0 -3,0 -5,0 -1,1 -3,1 -4,1 -3,1 -7,2 -9,4 -4,2 -7,4 -10,7 -3,3 -5,6 -7,10 -4,9 -3,19 1,28 4,8 12,15 22,17 2,0 6,1 7,1z"/>
   <path class="fil1" d="M536 138c0,0 -1,0 -1,0 -6,1 -11,-2 -15,-6 -4,-4 -7,-10 -6,-16 0,0 0,0 0,-1 0,-6 3,-11 7,-16 5,-4 10,-7 16,-7 1,0 1,0 1,0 6,-1 12,2 16,6 4,4 6,10 6,16 0,7 -3,12 -8,17 -4,4 -10,7 -16,7zm-2 10c1,0 2,0 3,0 0,0 5,-1 7,-2 2,0 4,-1 6,-2 3,-2 7,-5 9,-7 3,-3 5,-6 7,-10 2,-4 3,-8 3,-13 1,-5 0,-10 -2,-13 -1,-4 -3,-7 -6,-9 -2,-3 -5,-5 -8,-7 -7,-3 -11,-2 -13,-3 -1,1 -3,1 -4,1 -1,0 -3,0 -4,0 -3,1 -6,2 -9,4 -12,6 -18,18 -19,29 0,12 5,23 17,29 7,3 12,3 13,3z"/>
   <path class="fil1" d="M601 103c1,0 9,9 10,10 4,4 7,7 11,10 3,4 6,7 10,10 4,5 7,7 10,10 1,-10 1,-21 1,-31 0,-11 1,-21 1,-32 -3,0 -6,1 -9,1 -1,6 -1,13 -1,20 0,6 0,13 -1,20 0,-1 -4,-4 -5,-5 -6,-6 -12,-12 -18,-18 -6,-5 -12,-11 -17,-17 -1,10 -1,21 -2,31 0,10 0,21 -1,31 3,0 6,0 10,0 0,-7 0,-13 0,-20 1,-7 1,-13 1,-20z"/>
   <path class="fil1" d="M447 103c0,1 0,2 0,3 0,1 0,2 0,3 1,5 5,8 9,10 8,4 23,5 21,13 0,3 -3,6 -5,7 -6,3 -12,2 -17,-1 0,0 -1,-1 -2,-1 -1,1 -5,4 -7,5 0,1 2,2 3,3 1,1 2,2 4,2 4,3 8,3 9,3 2,0 3,0 5,0 2,-1 7,0 12,-5 3,-2 6,-6 7,-11 2,-5 0,-9 -2,-12 -3,-4 -7,-6 -10,-7 -7,-2 -21,-5 -18,-13 3,-7 12,-8 18,-6 3,1 5,2 6,3 2,-2 5,-4 7,-6 0,-1 -5,-4 -7,-5 -1,-1 -3,-1 -4,-2 -2,0 -5,0 -6,0 -1,0 -3,0 -4,0 -1,0 -3,0 -4,1 -5,1 -10,4 -13,9 -2,4 -2,5 -2,7z"/>
   <path class="fil1" d="M774 140c2,0 4,0 6,0 1,-1 8,-1 13,-6 3,-2 5,-5 6,-8 1,-1 1,-4 1,-4 0,-1 0,-2 0,-3 0,-1 0,-2 0,-3 -2,-5 -6,-9 -11,-11 -3,-2 -7,-3 -10,-4 -3,-1 -7,-1 -9,-3 -3,-1 -6,-3 -6,-7 0,-7 12,-12 22,-7 1,0 4,2 4,2 3,-2 6,-4 8,-6 0,-1 -5,-4 -8,-5 -7,-3 -9,-3 -11,-3 -1,0 -3,0 -4,0 -2,1 -8,1 -14,5 -4,4 -7,8 -7,12 -1,4 0,9 3,13 3,3 7,5 11,7 7,2 25,5 21,14 -1,4 -6,7 -12,7 -2,0 -5,0 -8,-1 -3,-1 -5,-2 -6,-3 -1,1 -8,5 -8,6 1,1 1,1 4,3 3,2 7,4 12,5 0,0 2,0 3,0z"/>
  </g>
  <g>
  </g>
  <g style="clip-path:url(#id0)">
   <g>
    <path class="fil0 str1" d="M-61 1975c26,4 53,8 80,12 5,0 9,3 13,7 3,3 5,9 5,14 0,2 0,5 0,7 0,6 -2,10 -5,14 -4,3 -8,5 -13,4 -27,-3 -54,-7 -80,-12 -5,-1 -10,-4 -13,-8 -3,-4 -5,-9 -5,-15 0,-2 0,-4 0,-7 0,-5 2,-10 5,-13 3,-3 8,-4 13,-3z"/>
    <path class="fil0 str1" d="M105 1995c26,2 53,4 80,6 5,0 9,2 13,6 3,4 5,9 5,15 0,2 0,5 0,7 0,6 -2,11 -5,14 -3,3 -8,6 -13,5 -27,-2 -54,-4 -80,-6 -5,-1 -10,-3 -13,-7 -3,-4 -5,-9 -5,-15 0,-2 0,-4 0,-7 0,-5 2,-10 5,-13 3,-4 8,-6 13,-5z"/>
    <path class="fil0 str1" d="M271 2005c26,2 53,3 80,4 5,0 9,2 13,6 2,4 5,9 5,15 0,2 0,4 0,7 0,6 -2,11 -5,14 -3,4 -8,6 -13,6 -27,-1 -54,-3 -80,-4 -5,0 -10,-3 -13,-6 -3,-4 -5,-9 -5,-15 0,-3 0,-5 0,-7 0,-6 2,-11 5,-14 3,-4 8,-6 13,-6z"/>
    <path class="fil0 str1" d="M437 2011c26,1 53,2 80,3 5,0 9,2 13,6 3,4 5,9 5,14 0,3 0,5 0,8 0,6 -2,11 -5,14 -4,4 -8,6 -13,6 -27,-1 -54,-1 -80,-2 -5,0 -10,-3 -13,-7 -3,-4 -5,-8 -5,-14 0,-3 0,-5 0,-8 0,-5 2,-10 5,-14 3,-3 8,-6 13,-6z"/>
    <path class="fil0 str1" d="M603 2015c26,1 53,1 80,1 5,0 9,3 13,6 3,4 5,9 5,15 0,3 0,5 0,7 0,6 -2,11 -5,15 -3,3 -8,6 -13,6 -27,-1 -54,-1 -80,-1 -5,-1 -10,-3 -13,-7 -3,-4 -5,-8 -5,-14 0,-3 0,-5 0,-8 0,-5 2,-10 5,-14 3,-4 8,-6 13,-6z"/>
    <path class="fil0 str1" d="M769 2017c26,0 53,0 80,0 5,0 9,3 13,7 3,3 5,8 5,14 0,3 0,5 0,8 0,5 -2,10 -5,14 -3,4 -8,6 -13,6 -27,0 -54,0 -80,0 -5,0 -10,-3 -13,-7 -3,-3 -5,-8 -5,-14 0,-3 0,-5 0,-8 0,-5 2,-10 5,-14 3,-4 8,-6 13,-6z"/>
    <path class="fil0 str1" d="M935 2018c26,0 53,0 80,-1 5,0 10,3 13,6 3,4 5,9 5,15 0,3 0,5 0,7 0,6 -2,11 -5,15 -3,4 -8,6 -13,6 -27,0 -54,0 -80,0 -5,0 -10,-2 -13,-6 -3,-4 -5,-9 -5,-14 0,-3 0,-5 0,-8 0,-6 2,-11 5,-14 3,-4 8,-6 13,-6z"/>
    <path class="fil0 str1" d="M1101 2017c26,0 53,0 80,-1 5,0 10,2 13,6 3,4 5,9 5,14 0,3 0,5 0,8 0,5 -2,11 -5,14 -3,4 -8,7 -13,7 -27,0 -54,1 -80,1 -5,0 -10,-3 -13,-6 -3,-4 -5,-9 -5,-15 0,-2 0,-4 0,-7 0,-6 2,-11 5,-15 3,-3 8,-6 13,-6z"/>
    <path class="fil0 str1" d="M1267 2014c26,-1 53,-2 80,-4 5,0 10,2 13,5 3,4 5,9 5,14 0,3 0,5 0,8 0,6 -2,11 -5,15 -3,4 -8,6 -13,6 -27,2 -54,3 -80,4 -5,1 -10,-2 -13,-5 -3,-4 -5,-9 -5,-15 0,-2 0,-4 0,-7 0,-6 2,-11 5,-15 3,-3 8,-6 13,-6z"/>
    <path class="fil0 str1" d="M1433 2004c26,-2 53,-5 80,-8 5,0 10,2 13,5 3,3 5,8 5,13 0,3 0,5 0,8 0,5 -2,11 -5,15 -3,4 -8,6 -13,7 -27,2 -54,5 -80,8 -5,0 -10,-2 -13,-5 -3,-3 -5,-8 -5,-14 0,-2 0,-5 0,-7 0,-6 2,-11 5,-15 3,-4 8,-7 13,-7z"/>
    <path class="fil0 str1" d="M1599 1987c27,-3 53,-6 80,-10 5,0 10,2 13,5 3,3 5,8 5,13 0,2 0,5 0,7 0,5 -2,10 -5,14 -3,4 -8,7 -13,7 -27,4 -53,7 -80,11 -5,0 -10,-1 -13,-4 -3,-4 -5,-8 -5,-14 0,-2 0,-5 0,-7 0,-6 2,-11 5,-15 3,-4 8,-6 13,-7z"/>
    <path class="fil0 str1" d="M22 1888c26,2 53,4 80,6 5,1 10,3 13,7 3,4 5,9 5,15 0,2 0,4 0,7 0,5 -3,10 -5,14 -4,3 -8,5 -13,4 -27,-2 -54,-4 -80,-7 -6,0 -10,-3 -13,-7 -3,-4 -6,-9 -6,-15 0,-2 0,-4 0,-7 0,-5 3,-10 6,-13 3,-3 7,-5 13,-4z"/>
    <path class="fil0 str1" d="M188 1900c26,1 53,2 80,4 4,0 9,2 12,6 3,4 6,9 6,15 0,2 0,5 0,7 0,6 -3,11 -6,14 -3,4 -8,6 -12,5 -27,-1 -54,-2 -80,-4 -6,0 -10,-2 -13,-6 -4,-4 -6,-9 -6,-15 0,-2 0,-5 0,-7 0,-6 2,-11 6,-14 3,-3 7,-5 13,-5z"/>
    <path class="fil0 str1" d="M354 1907c26,1 53,2 80,2 4,0 9,3 12,6 4,4 6,9 6,15 0,3 0,5 0,8 0,5 -2,10 -6,14 -3,3 -8,6 -12,5 -27,0 -54,-1 -80,-2 -6,0 -10,-3 -13,-7 -3,-3 -6,-8 -6,-14 0,-2 0,-5 0,-7 0,-6 2,-11 6,-15 3,-3 7,-5 13,-5z"/>
    <path class="fil0 str1" d="M520 1911c26,1 53,1 80,1 5,0 9,3 12,6 3,4 6,9 6,15 0,3 0,5 0,8 0,5 -3,10 -6,14 -3,4 -7,6 -12,6 -27,-1 -54,-1 -80,-2 -6,0 -10,-2 -14,-6 -3,-3 -5,-9 -5,-14 0,-3 0,-5 0,-8 0,-6 2,-11 5,-14 4,-4 8,-6 14,-6z"/>
    <path class="fil0 str1" d="M686 1913c26,0 53,1 80,1 4,0 9,2 12,6 4,4 6,9 6,15 0,2 0,5 0,7 0,6 -3,11 -6,14 -3,4 -8,6 -12,6 -27,0 -54,0 -80,0 -5,0 -10,-3 -13,-6 -3,-4 -6,-9 -6,-15 0,-2 0,-5 0,-7 0,-6 2,-11 6,-15 3,-3 8,-6 13,-6z"/>
    <path class="fil0 str1" d="M851 1914c27,0 54,0 81,0 5,0 9,3 12,6 3,4 6,9 6,15 0,3 0,5 0,8 0,5 -3,10 -6,14 -3,4 -8,6 -12,6 -27,0 -54,0 -81,0 -5,0 -10,-2 -13,-6 -3,-4 -5,-9 -5,-15 0,-2 0,-5 0,-7 0,-6 2,-11 5,-15 3,-3 8,-6 13,-6z"/>
    <path class="fil0 str1" d="M1018 1914c26,0 53,0 80,0 4,0 9,2 12,6 4,4 6,9 6,15 0,2 0,5 0,7 0,6 -3,11 -6,15 -3,3 -8,6 -12,6 -27,0 -54,0 -80,0 -6,0 -10,-2 -13,-6 -4,-4 -6,-9 -6,-15 0,-2 0,-5 0,-7 0,-6 2,-11 6,-15 3,-3 7,-6 13,-6z"/>
    <path class="fil0 str1" d="M1184 1913c26,0 53,-1 80,-2 5,0 9,2 12,6 3,4 6,8 6,14 0,3 0,5 0,8 0,5 -3,11 -6,14 -3,4 -7,6 -12,7 -27,0 -54,1 -80,2 -6,0 -10,-2 -13,-6 -3,-4 -6,-9 -6,-14 0,-3 0,-5 0,-8 0,-6 3,-11 6,-15 3,-3 7,-6 13,-6z"/>
    <path class="fil0 str1" d="M1350 1908c26,-2 53,-4 80,-6 4,0 9,2 12,5 4,4 6,9 6,14 0,3 0,5 0,8 0,5 -3,11 -6,15 -3,3 -8,6 -12,6 -27,2 -54,4 -80,6 -6,0 -10,-2 -13,-6 -4,-3 -6,-8 -6,-14 0,-2 0,-4 0,-7 0,-6 2,-11 6,-15 3,-4 7,-6 13,-6z"/>
    <path class="fil0 str1" d="M1516 1895c26,-2 53,-4 80,-7 4,0 9,1 12,4 4,4 6,8 6,14 0,2 0,4 0,7 0,5 -3,11 -6,15 -3,4 -8,6 -12,7 -27,2 -54,5 -80,8 -6,0 -10,-1 -13,-5 -3,-3 -6,-8 -6,-13 0,-3 0,-5 0,-8 0,-6 2,-11 6,-15 3,-3 7,-6 13,-7z"/>
    <path class="fil0 str1" d="M1681 1880c27,-2 54,-4 81,-6 4,-1 9,1 12,4 4,3 6,8 6,13 0,3 0,5 0,7 0,5 -3,10 -6,14 -3,3 -8,6 -12,6 -27,3 -54,5 -81,8 -5,0 -9,-1 -12,-5 -3,-3 -5,-8 -5,-13 0,-2 0,-5 0,-7 0,-6 2,-11 5,-14 3,-4 7,-7 12,-7z"/>
    <path class="fil0 str1" d="M-60 1780c26,3 53,6 80,8 4,1 9,3 12,7 3,4 6,9 6,15 0,2 0,5 0,7 0,5 -3,10 -6,13 -3,4 -8,6 -13,5 -26,-3 -53,-6 -80,-9 -5,-1 -10,-4 -13,-8 -3,-4 -5,-9 -5,-15 0,-2 0,-4 0,-6 0,-6 2,-10 5,-13 4,-4 8,-5 14,-4z"/>
    <path class="fil0 str1" d="M105 1794c27,2 54,3 80,5 5,0 10,3 13,7 3,3 6,9 6,14 0,2 -1,5 -1,7 0,6 -2,11 -5,14 -3,4 -8,6 -13,6 -27,-2 -53,-3 -80,-5 -5,-1 -10,-3 -13,-7 -3,-4 -5,-9 -5,-14 0,-3 0,-5 0,-7 0,-6 2,-11 5,-14 4,-4 8,-6 13,-6z"/>
    <path class="fil0 str1" d="M271 1802c27,1 53,2 80,3 5,0 10,3 13,6 3,4 6,9 6,15 0,2 -1,5 -1,7 0,6 -2,11 -5,14 -3,4 -8,6 -13,6 -27,-1 -53,-2 -80,-3 -5,0 -10,-2 -13,-6 -3,-4 -5,-9 -5,-15 0,-2 0,-5 0,-7 0,-5 2,-10 5,-14 3,-4 8,-6 13,-6z"/>
    <path class="fil0 str1" d="M437 1807c27,1 53,1 80,2 5,0 10,2 13,6 3,4 5,9 5,14 0,3 0,5 0,8 0,5 -2,10 -5,14 -3,4 -8,6 -13,6 -27,0 -53,-1 -80,-2 -5,0 -10,-2 -13,-6 -3,-4 -5,-9 -5,-15 0,-2 0,-5 0,-7 0,-6 2,-11 5,-14 3,-4 8,-6 13,-6z"/>
    <path class="fil0 str1" d="M603 1810c26,0 53,0 80,0 5,0 10,3 13,7 3,3 5,9 5,14 0,3 0,5 0,8 0,5 -2,10 -5,14 -3,4 -8,6 -13,6 -27,0 -54,0 -80,-1 -5,0 -10,-2 -13,-6 -3,-4 -5,-9 -5,-15 0,-2 0,-5 0,-7 0,-6 2,-11 5,-14 3,-4 8,-7 13,-6z"/>
    <path class="fil0 str1" d="M769 1811c27,0 53,0 80,0 5,0 10,3 13,7 3,3 5,8 5,14 0,2 0,5 0,7 0,6 -2,11 -5,15 -3,4 -8,6 -13,6 -27,0 -53,0 -80,0 -5,0 -10,-3 -13,-7 -3,-3 -5,-8 -5,-14 0,-3 0,-5 0,-8 0,-5 2,-10 5,-14 3,-4 8,-6 13,-6z"/>
    <path class="fil0 str1" d="M935 1811c26,0 53,0 80,0 5,0 10,3 13,6 3,4 5,9 5,15 0,2 0,5 0,7 0,6 -2,11 -5,15 -3,4 -8,6 -13,6 -27,0 -54,0 -80,0 -5,0 -10,-2 -13,-6 -3,-4 -5,-9 -5,-15 0,-2 0,-5 0,-7 0,-6 2,-11 5,-14 3,-4 8,-7 13,-7z"/>
    <path class="fil0 str1" d="M1101 1811c26,0 53,-1 80,-1 5,0 9,2 13,6 3,4 5,9 5,14 0,3 0,5 0,8 0,6 -2,11 -5,15 -3,3 -8,6 -13,6 -27,0 -54,1 -80,1 -5,0 -10,-3 -13,-6 -3,-4 -5,-9 -5,-15 0,-2 0,-5 0,-7 0,-6 2,-11 5,-15 3,-4 8,-6 13,-6z"/>
    <path class="fil0 str1" d="M1267 1808c26,-1 53,-2 80,-3 5,0 9,2 13,6 3,3 5,9 5,14 0,2 0,5 0,7 0,6 -2,11 -5,15 -3,4 -8,6 -13,7 -27,1 -54,2 -80,3 -5,0 -10,-2 -13,-6 -3,-3 -5,-8 -5,-14 0,-3 0,-5 0,-8 0,-5 2,-10 5,-14 3,-4 8,-7 13,-7z"/>
    <path class="fil0 str1" d="M1433 1800c26,-1 53,-3 80,-5 5,-1 9,2 12,5 3,3 6,8 6,14 0,2 0,4 0,7 0,5 -2,11 -5,15 -4,3 -8,6 -13,6 -27,2 -54,4 -80,6 -5,1 -10,-1 -13,-4 -3,-4 -5,-9 -5,-15 0,-2 0,-4 0,-7 0,-5 2,-11 5,-15 3,-4 8,-6 13,-7z"/>
    <path class="fil0 str1" d="M1599 1788c26,-2 53,-4 80,-6 4,0 9,2 12,6 3,3 6,7 6,13 0,2 0,4 0,7 0,5 -2,10 -5,14 -3,4 -8,6 -13,7 -27,2 -54,4 -80,6 -5,1 -10,-1 -13,-4 -3,-4 -5,-9 -5,-14 0,-3 0,-5 0,-7 0,-6 2,-11 5,-15 3,-4 7,-6 13,-7z"/>
    <path class="fil2 str1" d="M325 1750c20,1 41,2 61,2 0,18 0,36 0,54 -21,-1 -41,-1 -61,-2 0,-18 0,-36 0,-54z"/>
    <path class="fil0 str1" d="M-60 1584c27,3 53,5 80,7 5,0 10,2 13,6 3,4 5,9 5,14 0,3 0,5 0,7 0,6 -2,11 -5,14 -3,4 -8,6 -13,5 -27,-2 -54,-4 -80,-7 -5,0 -10,-3 -13,-7 -3,-3 -5,-9 -5,-14 0,-2 0,-5 0,-7 0,-5 2,-10 5,-13 3,-4 8,-5 13,-5z"/>
    <path class="fil0 str1" d="M106 1595c26,1 53,2 80,2 5,1 10,3 13,7 3,3 5,9 5,14 0,3 0,5 0,7 0,6 -2,11 -5,15 -3,3 -8,5 -13,5 -27,-1 -54,-2 -80,-3 -5,-1 -10,-3 -13,-7 -3,-3 -5,-9 -5,-14 0,-2 0,-5 0,-7 0,-6 2,-11 5,-14 3,-4 8,-6 13,-5z"/>
    <path class="fil0 str1" d="M272 1600c26,0 53,0 80,1 5,0 10,3 12,6 4,4 6,9 6,15 0,2 0,5 0,7 0,6 -3,11 -6,15 -3,3 -7,5 -12,5 -27,0 -54,-1 -80,-1 -5,-1 -10,-3 -13,-7 -3,-4 -5,-9 -5,-14 0,-3 0,-5 0,-8 0,-5 2,-10 5,-14 3,-3 8,-6 13,-5z"/>
    <path class="fil0 str1" d="M438 1602c26,1 53,1 80,1 4,0 9,3 12,6 4,4 6,9 6,15 0,2 0,5 0,7 0,6 -3,11 -6,15 -3,3 -8,6 -12,6 -27,0 -54,-1 -80,-1 -6,0 -10,-3 -13,-6 -4,-4 -5,-10 -6,-15 0,-2 0,-5 0,-7 0,-6 2,-11 6,-15 3,-3 7,-6 13,-6z"/>
    <path class="fil0 str1" d="M603 1604c27,0 54,0 80,0 5,0 10,3 13,7 3,3 6,9 6,14 0,3 0,5 0,8 0,5 -3,10 -6,14 -3,4 -8,6 -13,6 -26,0 -53,0 -80,0 -5,0 -10,-3 -13,-6 -3,-4 -5,-9 -5,-15 0,-3 0,-5 0,-8 0,-5 2,-10 5,-14 4,-4 8,-6 13,-6z"/>
    <path class="fil0 str1" d="M769 1605c27,0 54,0 80,0 5,0 10,3 13,6 3,4 5,9 5,15 0,2 0,5 0,7 0,6 -2,11 -5,15 -3,4 -8,6 -13,6 -26,0 -53,0 -80,0 -5,0 -10,-3 -13,-6 -3,-4 -5,-9 -5,-15 0,-3 0,-5 0,-8 0,-5 2,-10 5,-14 3,-4 8,-6 13,-6z"/>
    <path class="fil0 str1" d="M935 1605c26,0 53,0 80,0 5,0 10,2 13,6 3,4 5,9 5,15 0,2 0,5 0,7 0,6 -2,11 -5,15 -3,3 -8,6 -13,6 -27,0 -54,0 -80,0 -5,0 -10,-2 -13,-6 -3,-4 -5,-9 -5,-15 0,-2 0,-5 0,-7 0,-6 2,-11 5,-15 3,-3 8,-6 13,-6z"/>
    <path class="fil0 str1" d="M1101 1605c26,0 53,0 80,-1 5,0 9,2 13,6 3,4 5,9 5,15 0,2 0,5 0,7 0,6 -2,11 -5,15 -4,3 -8,6 -13,6 -27,0 -54,1 -80,1 -5,0 -10,-3 -13,-6 -3,-4 -5,-9 -5,-15 0,-2 0,-5 0,-7 0,-6 2,-11 5,-15 3,-4 8,-6 13,-6z"/>
    <path class="fil0 str1" d="M1267 1603c26,-1 53,-2 80,-2 4,-1 9,2 12,5 4,4 6,9 6,15 0,2 0,4 0,7 0,5 -2,11 -6,15 -3,3 -8,6 -12,6 -27,1 -54,2 -80,3 -5,0 -10,-3 -13,-6 -3,-4 -5,-9 -5,-15 0,-2 0,-5 0,-7 0,-6 1,-11 5,-15 3,-4 8,-6 13,-6z"/>
    <path class="fil0 str1" d="M1432 1597c27,-1 54,-2 80,-4 5,0 10,2 13,6 3,3 6,8 6,14 0,2 0,4 0,7 0,5 -3,11 -6,14 -3,4 -7,7 -12,7 -27,1 -54,3 -80,4 -6,0 -11,-1 -14,-5 -3,-4 -5,-9 -5,-14 0,-3 0,-5 0,-8 0,-5 2,-10 5,-14 3,-4 8,-7 13,-7z"/>
    <path class="fil0 str1" d="M1598 1590c27,-1 54,-2 80,-2 5,0 10,2 13,5 3,4 5,9 5,14 0,2 0,5 0,7 1,5 -2,10 -5,14 -3,3 -8,5 -12,5 -27,1 -54,2 -81,3 -5,1 -10,-1 -13,-5 -3,-3 -5,-8 -5,-14 0,-2 0,-4 0,-7 0,-5 2,-10 5,-14 3,-4 8,-6 13,-6z"/>
    <path class="fil0 str1" d="M23 1690c26,1 53,3 79,4 5,1 10,3 13,7 3,4 5,9 5,14 0,3 0,5 0,8 0,5 -2,10 -5,13 -3,4 -8,6 -13,5 -27,-1 -53,-3 -80,-5 -5,0 -10,-3 -13,-6 -3,-4 -5,-10 -5,-15 0,-2 0,-5 0,-7 0,-6 2,-10 5,-13 4,-4 8,-6 14,-5z"/>
    <path class="fil0 str1" d="M188 1698c27,1 54,2 80,3 5,0 10,3 13,6 3,4 5,9 5,15 0,2 0,5 0,7 0,6 -2,11 -5,14 -3,4 -8,6 -13,6 -27,-1 -53,-2 -80,-3 -5,0 -10,-3 -13,-7 -3,-3 -5,-8 -5,-14 0,-2 0,-5 0,-7 0,-6 2,-11 5,-14 3,-4 8,-6 13,-6z"/>
    <path class="fil0 str1" d="M354 1703c26,1 53,1 80,2 5,0 10,2 13,6 3,4 5,9 5,14 0,3 0,5 0,8 0,5 -2,10 -5,14 -3,4 -8,6 -13,6 -27,-1 -54,-1 -80,-2 -5,0 -10,-2 -13,-6 -3,-4 -5,-9 -5,-15 0,-2 0,-4 0,-7 0,-6 2,-11 5,-14 3,-4 8,-6 13,-6z"/>
    <path class="fil0 str1" d="M520 1706c27,0 53,1 80,1 5,0 10,2 13,6 3,4 5,9 5,14 0,3 0,5 0,8 0,5 -2,11 -5,14 -3,4 -8,6 -13,6 -27,0 -54,0 -80,-1 -5,0 -10,-2 -13,-6 -3,-4 -5,-9 -5,-14 0,-3 0,-5 0,-8 0,-6 2,-10 5,-14 3,-4 8,-6 13,-6z"/>
    <path class="fil0 str1" d="M686 1707c26,1 53,1 80,1 5,0 10,2 13,6 3,4 5,9 5,15 0,2 0,5 0,7 0,6 -2,11 -5,14 -4,4 -8,7 -13,7 -27,-1 -54,-1 -80,-1 -5,0 -10,-2 -13,-6 -3,-4 -5,-9 -5,-15 0,-2 0,-5 0,-7 0,-6 2,-11 5,-15 3,-3 8,-6 13,-6z"/>
    <path class="fil0 str1" d="M852 1708c26,0 53,0 80,0 5,0 9,3 13,6 3,4 5,9 5,15 0,2 0,5 0,7 0,6 -2,11 -5,15 -4,4 -8,6 -13,6 -27,0 -54,0 -80,0 -5,0 -10,-3 -13,-6 -3,-4 -5,-9 -5,-15 0,-2 0,-5 0,-7 0,-6 2,-11 5,-15 3,-4 8,-6 13,-6z"/>
    <path class="fil0 str1" d="M1018 1708c26,0 53,0 80,0 4,0 9,2 12,6 4,4 6,9 6,14 0,3 0,5 0,8 0,6 -3,11 -6,14 -3,4 -8,6 -12,7 -27,0 -54,0 -80,0 -6,0 -10,-3 -13,-6 -4,-4 -6,-9 -6,-15 0,-2 0,-5 0,-7 0,-6 2,-11 6,-15 3,-4 8,-6 13,-6z"/>
    <path class="fil0 str1" d="M1184 1707c26,0 53,-1 80,-1 5,0 9,2 12,6 3,3 6,8 6,14 0,2 0,5 0,7 0,6 -3,11 -6,15 -3,4 -8,6 -13,6 -26,1 -53,1 -79,2 -6,0 -10,-2 -13,-6 -3,-4 -6,-9 -6,-15 0,-2 0,-5 0,-7 0,-6 3,-11 6,-14 3,-4 7,-7 13,-7z"/>
    <path class="fil0 str1" d="M1349 1703c27,-1 54,-2 81,-4 4,0 9,2 12,5 3,4 6,9 6,14 0,3 0,5 0,8 0,5 -3,11 -6,14 -3,4 -8,7 -12,7 -27,2 -54,3 -81,4 -5,0 -10,-2 -13,-5 -3,-4 -5,-9 -5,-14 0,-3 0,-5 0,-8 0,-6 2,-11 5,-15 3,-3 8,-6 13,-6z"/>
    <path class="fil0 str1" d="M1515 1694c27,-1 53,-3 80,-5 5,0 10,2 13,5 3,4 5,8 5,14 0,2 0,5 0,7 0,5 -2,11 -5,14 -3,4 -8,7 -13,7 -27,2 -53,4 -80,5 -5,1 -10,-1 -13,-5 -3,-3 -5,-8 -5,-13 0,-3 0,-5 0,-8 0,-5 2,-10 5,-14 3,-4 8,-7 13,-7z"/>
    <path class="fil0 str1" d="M1681 1685c27,-1 54,-1 80,-1 5,0 10,2 13,5 3,4 6,9 6,14 0,2 0,4 0,7 0,5 -3,10 -6,13 -3,4 -8,5 -13,5 -26,1 -53,2 -80,3 -5,0 -9,-2 -13,-5 -3,-4 -5,-8 -5,-14 0,-2 0,-4 0,-7 0,-5 2,-10 5,-14 4,-4 8,-6 13,-6z"/>
    <path class="fil0 str1" d="M23 1492c26,1 53,2 80,2 5,1 10,3 13,7 3,3 5,8 5,14 0,2 0,5 0,7 0,6 -2,11 -5,14 -3,4 -8,6 -13,6 -27,-1 -54,-2 -80,-4 -5,0 -10,-2 -13,-6 -3,-4 -5,-9 -5,-14 0,-3 -1,-5 0,-8 0,-5 2,-10 5,-13 3,-3 8,-5 13,-5z"/>
    <path class="fil0 str1" d="M189 1497c26,0 53,1 80,1 4,0 9,3 12,6 3,4 6,9 6,15 0,2 0,5 0,7 0,6 -3,11 -6,14 -3,4 -8,6 -12,6 -27,-1 -54,-1 -80,-2 -6,0 -10,-2 -14,-6 -3,-4 -5,-9 -5,-14 0,-3 0,-5 0,-8 1,-5 3,-10 6,-14 3,-3 8,-5 13,-5z"/>
    <path class="fil0 str1" d="M355 1499c26,1 53,1 79,1 5,0 10,2 13,6 3,4 6,9 5,15 0,2 0,5 0,7 0,6 -2,11 -5,15 -3,3 -8,5 -13,5 -26,0 -53,0 -80,-1 -5,0 -9,-2 -13,-6 -3,-4 -5,-8 -5,-14 0,-3 0,-5 0,-8 0,-5 3,-10 6,-14 3,-3 7,-6 13,-6z"/>
    <path class="fil0 str1" d="M520 1501c27,0 54,0 80,0 5,0 10,3 13,6 3,4 6,9 5,15 0,2 0,5 0,7 0,6 -2,11 -5,15 -3,4 -8,6 -13,6 -26,0 -53,-1 -80,-1 -5,0 -10,-2 -13,-6 -3,-3 -5,-9 -5,-14 0,-3 0,-5 0,-8 0,-6 2,-11 5,-14 3,-4 8,-6 13,-6z"/>
    <path class="fil0 str1" d="M686 1502c26,0 53,0 80,0 5,0 10,2 13,6 3,4 5,9 5,15 0,2 0,5 0,7 0,6 -2,11 -5,14 -4,4 -8,7 -13,7 -27,-1 -54,-1 -80,-1 -5,0 -10,-2 -13,-6 -3,-4 -5,-9 -5,-14 0,-3 0,-5 0,-8 0,-6 2,-11 5,-14 3,-4 8,-6 13,-6z"/>
    <path class="fil0 str1" d="M852 1502c26,0 53,0 80,0 5,0 9,2 13,6 3,4 5,9 5,15 0,2 0,5 0,7 0,6 -3,11 -6,15 -3,4 -7,6 -12,6 -27,0 -54,0 -80,0 -5,0 -10,-3 -13,-6 -3,-4 -5,-9 -5,-15 0,-2 0,-5 0,-7 0,-6 2,-11 5,-15 3,-4 8,-6 13,-6z"/>
    <path class="fil0 str1" d="M1017 1502c27,0 54,0 80,0 5,0 10,2 13,6 3,4 6,9 6,14 0,3 0,5 0,8 0,6 -3,11 -6,14 -3,4 -8,6 -13,6 -26,1 -53,1 -79,1 -6,0 -10,-3 -13,-6 -4,-4 -6,-9 -6,-15 0,-2 0,-5 0,-7 0,-6 2,-11 6,-15 3,-4 7,-6 12,-6z"/>
    <path class="fil0 str1" d="M1183 1501c27,0 53,0 80,-1 5,0 10,2 13,6 3,4 6,9 6,14 0,3 0,5 0,8 0,6 -3,11 -6,15 -3,3 -8,5 -13,6 -27,0 -53,0 -80,1 -5,0 -10,-2 -13,-6 -3,-4 -5,-9 -5,-14 0,-3 0,-5 0,-8 0,-6 3,-11 5,-14 4,-4 8,-7 13,-7z"/>
    <path class="fil0 str1" d="M1349 1498c27,0 53,-1 80,-2 5,0 10,2 13,5 3,4 5,9 5,14 0,3 0,5 0,8 0,5 -2,11 -5,14 -3,4 -8,6 -13,7 -27,1 -53,2 -80,3 -5,0 -10,-2 -13,-6 -3,-3 -5,-9 -5,-14 0,-3 0,-5 0,-8 0,-5 2,-11 5,-14 3,-4 8,-6 13,-7z"/>
    <path class="fil0 str1" d="M1515 1493c26,-1 53,-2 80,-2 5,-1 10,2 13,5 3,4 5,9 5,14 0,2 0,5 0,7 0,6 -2,11 -5,14 -3,4 -8,6 -13,7 -27,0 -54,1 -80,2 -5,0 -10,-2 -13,-5 -3,-4 -5,-9 -5,-14 0,-3 -1,-5 0,-8 0,-5 2,-10 5,-14 3,-4 8,-6 13,-6z"/>
    <path class="fil0 str1" d="M1680 1490c27,1 54,2 81,4 4,1 9,3 12,7 3,4 6,8 6,13 0,3 0,5 0,7 0,6 -3,10 -6,14 -3,3 -8,4 -12,4 -27,-2 -54,-3 -80,-3 -6,0 -10,-2 -13,-6 -3,-3 -5,-8 -5,-13 0,-3 0,-5 0,-8 0,-5 2,-10 5,-13 3,-4 7,-6 12,-6z"/>
    <path class="fil0 str1" d="M-59 1389c26,1 53,3 80,4 5,0 9,2 12,6 3,3 6,8 6,14 0,2 0,5 0,7 0,5 -3,10 -6,14 -3,3 -7,6 -12,5 -27,-1 -54,-2 -80,-4 -5,0 -10,-3 -13,-6 -4,-4 -5,-9 -5,-14 0,-3 0,-5 0,-7 0,-6 1,-11 5,-14 3,-3 8,-5 13,-5z"/>
    <path class="fil0 str1" d="M106 1394c27,1 54,1 80,2 5,0 10,2 13,6 3,4 5,9 5,14 0,3 0,5 0,8 0,5 -2,10 -5,14 -3,3 -8,6 -13,6 -26,-1 -53,-1 -80,-2 -5,0 -10,-3 -13,-6 -3,-4 -5,-9 -5,-15 0,-2 0,-4 0,-7 0,-5 2,-10 5,-14 3,-3 8,-6 13,-6z"/>
    <path class="fil0 str1" d="M272 1397c27,0 53,0 80,0 5,0 10,3 13,6 3,4 5,9 5,15 0,2 0,5 0,7 0,6 -2,11 -5,15 -3,3 -8,6 -13,6 -27,-1 -53,-1 -80,-1 -5,0 -10,-3 -13,-6 -3,-4 -5,-9 -5,-15 0,-2 0,-5 0,-7 0,-5 2,-11 5,-15 3,-3 8,-5 13,-5z"/>
    <path class="fil0 str1" d="M438 1398c26,0 53,0 80,0 5,0 10,3 13,6 3,4 5,9 5,15 0,2 0,5 0,7 0,6 -2,11 -5,15 -4,3 -8,6 -13,6 -27,0 -54,-1 -80,-1 -5,0 -10,-2 -13,-6 -3,-4 -5,-9 -5,-14 0,-3 0,-5 0,-8 0,-5 2,-11 5,-14 3,-4 8,-6 13,-6z"/>
    <path class="fil0 str1" d="M604 1398c26,0 53,1 80,1 4,0 9,2 12,6 3,3 6,9 6,14 0,3 0,5 0,8 0,5 -3,11 -6,14 -3,4 -8,6 -12,6 -27,0 -54,0 -80,0 -6,0 -10,-2 -13,-6 -4,-4 -6,-9 -6,-15 0,-2 0,-4 0,-7 0,-5 2,-11 6,-15 3,-3 7,-6 13,-6z"/>
    <path class="fil0 str1" d="M769 1399c27,0 54,0 80,0 5,0 10,2 13,6 3,4 5,9 5,15 0,2 0,5 0,7 0,6 -2,11 -5,15 -3,3 -8,6 -13,6 -26,0 -53,0 -80,0 -5,0 -10,-3 -13,-7 -3,-3 -5,-8 -5,-14 0,-2 0,-5 0,-7 0,-6 2,-11 5,-15 3,-4 8,-6 13,-6z"/>
    <path class="fil0 str1" d="M935 1399c26,0 53,0 80,0 5,0 10,2 13,6 3,4 5,9 5,15 0,2 0,5 0,7 0,6 -2,11 -5,15 -3,3 -8,6 -13,6 -27,0 -54,0 -80,0 -5,0 -10,-3 -13,-6 -3,-4 -5,-9 -5,-15 0,-2 0,-5 0,-7 0,-6 2,-11 5,-15 3,-4 8,-6 13,-6z"/>
    <path class="fil0 str1" d="M1101 1399c26,0 53,0 80,-1 5,0 9,3 12,6 3,4 6,9 6,15 0,2 0,5 0,7 0,6 -3,11 -6,15 -3,4 -7,6 -12,6 -27,0 -54,0 -80,1 -5,0 -10,-3 -13,-6 -3,-4 -5,-9 -5,-15 0,-2 0,-5 0,-7 0,-6 2,-11 5,-15 3,-4 8,-6 13,-6z"/>
    <path class="fil0 str1" d="M1267 1397c26,0 53,0 79,-1 5,0 10,2 13,6 3,4 6,9 6,14 0,3 0,5 0,8 0,5 -3,10 -6,14 -3,4 -8,6 -13,6 -26,1 -53,1 -79,2 -5,0 -10,-2 -13,-6 -4,-4 -6,-9 -6,-14 0,-3 0,-5 0,-8 0,-5 2,-11 6,-14 3,-4 8,-6 13,-7z"/>
    <path class="fil0 str1" d="M1432 1394c27,-1 53,-1 80,-2 5,0 10,2 13,6 3,3 6,8 6,14 0,2 0,5 0,7 0,6 -3,11 -6,15 -3,3 -8,6 -13,6 -27,0 -53,1 -80,2 -5,0 -10,-2 -13,-5 -3,-4 -5,-9 -5,-15 0,-2 0,-5 0,-7 0,-5 2,-11 5,-15 3,-3 8,-6 13,-6z"/>
    <path class="fil0 str1" d="M1598 1391c27,0 53,1 80,2 5,0 10,2 13,6 3,4 5,9 5,14 0,2 0,5 0,7 0,5 -2,10 -5,14 -3,3 -8,5 -13,5 -27,-1 -53,-1 -80,-1 -5,0 -10,-2 -13,-5 -3,-4 -5,-9 -5,-15 0,-2 0,-4 0,-7 0,-5 2,-10 5,-14 3,-4 8,-6 13,-6z"/>
    <path class="fil0 str1" d="M-59 1194c26,0 53,1 80,1 5,0 9,2 12,5 4,4 6,9 6,14 0,3 0,5 0,8 0,5 -2,10 -6,13 -3,4 -7,6 -12,6 -27,0 -54,0 -80,-1 -5,0 -10,-3 -13,-6 -3,-4 -5,-9 -5,-14 0,-2 0,-5 0,-7 0,-5 2,-10 5,-14 3,-3 8,-5 13,-5z"/>
    <path class="fil0 str1" d="M107 1194c26,1 53,0 79,0 5,0 10,3 13,6 3,4 6,9 6,15 0,2 0,4 0,7 0,5 -3,10 -6,14 -3,4 -8,6 -13,6 -26,0 -53,0 -79,0 -6,-1 -10,-2 -13,-6 -4,-4 -6,-9 -6,-14 0,-3 0,-5 0,-7 0,-6 2,-11 6,-15 3,-3 7,-6 13,-6z"/>
    <path class="fil0 str1" d="M272 1194c27,0 53,0 80,0 5,0 10,2 13,6 3,4 5,8 5,14 0,3 0,5 0,8 0,5 -2,10 -5,14 -3,3 -8,6 -13,6 -27,0 -53,0 -80,0 -5,0 -10,-3 -13,-6 -3,-4 -5,-9 -5,-14 0,-3 0,-5 0,-8 0,-5 2,-10 5,-14 3,-3 8,-6 13,-6z"/>
    <path class="fil0 str1" d="M438 1194c26,0 53,0 80,-1 5,0 10,3 13,6 3,4 5,9 5,15 0,2 0,5 0,7 0,6 -2,11 -5,15 -4,3 -8,6 -13,6 -27,0 -54,0 -80,0 -5,-1 -10,-3 -13,-6 -3,-4 -5,-9 -5,-15 0,-2 0,-5 0,-7 0,-6 2,-11 5,-14 3,-4 8,-6 13,-6z"/>
    <path class="fil0 str1" d="M604 1193c26,0 53,0 79,0 5,0 10,3 13,6 3,4 6,9 6,15 0,2 0,5 0,7 0,6 -3,11 -6,14 -3,4 -8,7 -13,7 -26,0 -53,0 -79,0 -6,0 -10,-3 -13,-6 -3,-4 -6,-9 -6,-15 0,-2 0,-5 0,-7 0,-6 2,-11 6,-15 3,-3 7,-6 13,-6z"/>
    <path class="fil0 str1" d="M769 1193c27,0 54,0 80,0 5,0 10,3 13,6 3,4 5,9 5,15 0,2 0,5 0,7 0,6 -2,11 -5,15 -3,3 -8,5 -13,6 -26,0 -53,0 -80,0 -5,0 -10,-3 -13,-7 -3,-3 -5,-8 -5,-14 0,-2 0,-5 0,-7 0,-6 2,-11 5,-15 3,-4 8,-6 13,-6z"/>
    <path class="fil0 str1" d="M935 1193c26,0 53,0 80,0 5,0 10,2 13,6 3,4 5,9 5,15 0,2 0,5 0,7 0,6 -2,11 -5,14 -4,4 -8,6 -13,7 -27,0 -54,0 -80,0 -5,0 -10,-3 -13,-6 -3,-4 -5,-9 -5,-15 0,-2 0,-5 0,-7 0,-6 2,-11 5,-15 3,-3 8,-6 13,-6z"/>
    <path class="fil0 str1" d="M1101 1193c26,0 53,0 80,0 4,0 9,2 12,6 3,3 6,8 6,14 0,3 0,5 0,8 0,5 -3,10 -6,14 -3,4 -8,6 -12,6 -27,0 -54,1 -80,1 -6,0 -10,-3 -14,-7 -3,-3 -5,-8 -5,-14 0,-2 0,-5 0,-7 0,-6 2,-11 5,-15 4,-4 8,-6 14,-6z"/>
    <path class="fil0 str1" d="M1266 1192c27,0 53,0 80,0 5,-1 10,2 13,5 3,4 5,9 5,15 0,2 0,5 0,7 0,6 -2,11 -5,15 -3,3 -8,6 -13,6 -27,0 -53,0 -80,1 -5,0 -10,-3 -13,-6 -3,-4 -5,-9 -5,-15 0,-2 0,-5 0,-7 0,-6 2,-11 5,-15 3,-3 8,-6 13,-6z"/>
    <path class="fil0 str1" d="M1432 1191c26,0 53,0 80,0 5,0 10,2 13,6 3,3 5,8 5,14 0,2 0,5 0,7 0,6 -2,11 -5,14 -4,4 -8,6 -13,6 -27,0 -54,0 -80,1 -5,0 -10,-2 -13,-6 -3,-4 -5,-9 -5,-14 0,-3 0,-5 0,-8 0,-5 2,-11 5,-14 3,-4 8,-6 13,-6z"/>
    <path class="fil0 str1" d="M1598 1193c26,1 53,3 80,5 4,0 9,3 12,7 3,4 6,9 6,14 0,2 0,5 0,7 0,5 -3,10 -6,13 -3,4 -8,5 -12,5 -27,-2 -54,-4 -80,-5 -5,0 -10,-2 -13,-6 -4,-3 -5,-9 -5,-14 0,-2 0,-5 0,-7 0,-6 1,-11 5,-14 3,-4 8,-6 13,-5z"/>
    <path class="fil0 str1" d="M23 1294c27,0 53,0 80,1 5,0 10,2 13,5 3,4 5,9 5,15 0,2 1,4 0,7 0,5 -2,10 -5,14 -3,4 -8,6 -13,6 -27,-1 -53,-1 -80,-2 -5,0 -10,-2 -13,-6 -3,-4 -5,-8 -5,-14 0,-2 0,-5 0,-7 0,-5 2,-10 5,-14 4,-3 8,-5 13,-5z"/>
    <path class="fil0 str1" d="M189 1295c27,0 53,0 80,1 5,0 9,2 13,6 3,3 5,8 5,14 0,2 0,5 0,7 0,6 -2,11 -5,14 -4,4 -8,6 -13,6 -27,0 -54,0 -80,0 -5,0 -10,-2 -13,-6 -3,-4 -5,-9 -5,-14 0,-3 0,-5 0,-8 0,-5 2,-10 5,-14 3,-4 8,-6 13,-6z"/>
    <path class="fil0 str1" d="M355 1296c26,0 53,0 80,0 4,0 9,2 12,6 3,3 6,9 6,14 0,3 0,5 0,8 0,5 -3,10 -6,14 -3,4 -8,6 -13,6 -26,0 -53,0 -79,0 -6,0 -10,-3 -13,-6 -4,-4 -6,-9 -5,-15 0,-2 0,-5 0,-7 0,-6 2,-11 5,-14 3,-4 8,-6 13,-6z"/>
    <path class="fil0 str1" d="M520 1296c27,0 54,0 80,0 5,0 10,2 13,6 3,4 6,9 6,14 0,3 0,5 0,8 0,5 -3,11 -6,14 -3,4 -8,6 -13,6 -26,0 -53,0 -80,0 -5,0 -10,-2 -13,-6 -3,-4 -5,-9 -5,-14 0,-3 0,-5 0,-8 0,-5 2,-10 5,-14 3,-4 8,-6 13,-6z"/>
    <path class="fil0 str1" d="M686 1296c26,0 53,0 80,0 5,0 9,2 13,6 3,4 5,9 5,15 0,2 0,5 0,7 0,6 -2,11 -5,14 -4,4 -8,6 -13,6 -27,0 -54,0 -80,0 -5,0 -10,-2 -13,-6 -3,-4 -5,-9 -5,-14 0,-3 0,-5 0,-8 0,-5 2,-10 5,-14 3,-4 8,-6 13,-6z"/>
    <path class="fil0 str1" d="M852 1296c26,0 53,0 80,0 5,0 9,3 12,6 3,4 6,9 6,15 0,2 0,5 0,7 0,6 -3,11 -6,15 -3,3 -7,6 -12,6 -27,0 -54,0 -80,-1 -5,0 -10,-2 -13,-5 -3,-4 -5,-9 -5,-15 0,-2 0,-5 0,-7 0,-6 2,-11 5,-15 3,-4 8,-6 13,-6z"/>
    <path class="fil0 str1" d="M1017 1296c27,0 53,0 80,0 5,0 10,2 13,6 3,4 6,9 6,15 0,2 0,5 0,7 0,6 -3,11 -6,15 -3,3 -8,5 -13,5 -26,0 -53,0 -80,0 -5,0 -10,-2 -13,-6 -3,-3 -5,-8 -5,-14 0,-2 0,-5 0,-7 0,-6 2,-11 5,-15 3,-4 8,-6 13,-6z"/>
    <path class="fil0 str1" d="M1183 1296c26,0 53,-1 80,-1 5,0 9,2 13,6 3,4 5,9 5,14 0,3 0,5 0,8 0,5 -2,10 -5,14 -3,4 -8,6 -13,6 -27,1 -54,1 -80,1 -5,0 -10,-2 -13,-6 -3,-4 -5,-9 -5,-14 0,-3 0,-5 0,-8 0,-5 2,-11 5,-14 3,-4 8,-6 13,-6z"/>
    <path class="fil0 str1" d="M1349 1294c26,-1 53,-1 80,-2 4,0 9,3 12,6 4,4 6,9 6,15 0,2 0,4 0,7 0,6 -2,11 -6,14 -3,4 -7,6 -12,6 -27,1 -54,1 -80,2 -5,0 -10,-2 -13,-6 -3,-3 -5,-8 -5,-14 0,-2 0,-5 0,-7 0,-6 2,-11 5,-15 3,-4 8,-6 13,-6z"/>
    <path class="fil0 str1" d="M1514 1291c27,0 54,0 80,1 5,0 10,2 13,6 3,4 6,9 6,14 0,2 0,5 0,7 0,6 -3,10 -6,14 -3,4 -8,6 -13,6 -26,0 -53,0 -79,0 -6,0 -10,-2 -13,-6 -3,-3 -6,-8 -6,-14 0,-2 0,-5 0,-7 0,-6 2,-11 5,-14 3,-4 8,-7 13,-7z"/>
    <path class="fil0 str1" d="M1680 1295c27,3 53,6 80,10 5,0 10,3 13,7 3,4 6,9 6,14 0,3 0,5 0,7 0,5 -3,10 -6,13 -3,3 -8,4 -13,3 -26,-3 -53,-6 -80,-8 -5,0 -9,-2 -13,-6 -3,-4 -5,-9 -5,-14 0,-3 0,-5 0,-7 0,-6 3,-11 5,-14 4,-3 8,-5 13,-5z"/>
    <path class="fil0 str1" d="M24 1096c26,0 53,-1 79,-1 5,0 10,2 13,5 3,4 6,9 6,14 0,3 0,5 0,8 0,5 -3,10 -6,14 -3,4 -8,6 -13,6 -27,0 -53,0 -80,0 -5,0 -10,-2 -13,-5 -3,-4 -5,-9 -5,-14 0,-3 0,-5 0,-8 0,-5 3,-10 6,-13 3,-4 7,-6 13,-6z"/>
    <path class="fil0 str1" d="M189 1094c27,0 53,-1 80,-1 5,0 10,2 13,6 3,3 5,8 5,14 0,2 0,5 0,7 0,6 -2,11 -5,15 -4,3 -8,6 -13,6 -27,0 -53,0 -80,0 -5,0 -10,-2 -13,-5 -3,-4 -5,-9 -5,-15 0,-2 0,-4 0,-7 0,-5 2,-10 5,-14 3,-4 8,-6 13,-6z"/>
    <path class="fil0 str1" d="M355 1092c26,0 53,0 80,0 4,0 9,2 12,5 3,4 6,9 6,15 0,2 0,5 0,7 0,6 -2,11 -6,15 -3,3 -8,6 -12,6 -27,0 -54,0 -80,0 -5,0 -10,-2 -13,-6 -3,-3 -5,-8 -5,-14 0,-3 0,-5 0,-8 0,-5 2,-10 5,-14 3,-4 8,-6 13,-6z"/>
    <path class="fil0 str1" d="M520 1091c27,0 54,0 81,0 4,0 9,2 12,6 3,3 6,8 6,14 0,2 0,5 0,7 0,6 -3,11 -6,15 -3,4 -8,6 -13,6 -26,0 -53,0 -80,0 -5,0 -10,-2 -13,-6 -3,-3 -5,-8 -5,-14 0,-3 0,-5 0,-8 0,-5 2,-10 5,-14 4,-4 8,-6 13,-6z"/>
    <path class="fil0 str1" d="M686 1090c26,0 53,0 80,0 5,0 10,2 13,6 3,4 5,9 5,15 0,2 0,5 0,7 0,6 -2,11 -5,15 -3,3 -8,6 -13,6 -27,0 -54,0 -80,0 -5,0 -10,-3 -13,-6 -3,-4 -5,-9 -5,-15 0,-2 0,-5 0,-7 0,-6 2,-11 5,-15 3,-3 8,-6 13,-6z"/>
    <path class="fil0 str1" d="M852 1090c26,0 53,0 80,0 5,0 9,2 12,6 3,4 6,9 6,15 0,2 0,5 0,7 0,6 -3,11 -6,15 -3,3 -7,6 -12,6 -27,0 -54,0 -80,0 -5,0 -10,-3 -13,-6 -4,-4 -5,-9 -5,-15 0,-2 0,-5 0,-7 0,-6 2,-11 5,-15 3,-4 8,-6 13,-6z"/>
    <path class="fil0 str1" d="M1017 1090c27,0 54,0 80,0 5,0 10,2 13,6 3,4 5,9 5,14 0,3 0,5 0,8 0,6 -2,11 -5,15 -3,3 -8,6 -13,6 -27,0 -53,0 -80,0 -5,0 -10,-3 -13,-6 -3,-4 -5,-9 -5,-15 0,-3 0,-5 0,-8 0,-5 2,-10 5,-14 3,-4 8,-6 13,-6z"/>
    <path class="fil0 str1" d="M1183 1090c26,0 53,0 80,0 5,0 10,2 13,6 3,3 5,8 5,14 0,2 0,5 0,7 0,6 -2,11 -5,15 -3,4 -8,6 -13,6 -27,0 -54,0 -80,0 -5,0 -10,-2 -13,-5 -3,-4 -5,-9 -5,-15 0,-3 0,-5 0,-8 0,-5 2,-10 5,-14 3,-4 8,-6 13,-6z"/>
    <path class="fil0 str1" d="M1349 1089c26,0 53,0 80,0 4,0 9,2 12,6 3,4 6,9 6,14 0,3 0,5 0,8 0,6 -2,11 -6,14 -3,4 -8,6 -12,6 -27,0 -54,0 -80,1 -5,0 -10,-3 -13,-6 -3,-4 -5,-9 -5,-15 0,-2 0,-5 0,-7 0,-6 2,-11 5,-15 3,-4 8,-6 13,-6z"/>
    <path class="fil0 str1" d="M1514 1090c27,1 54,2 80,3 5,0 10,3 13,7 3,3 6,8 6,14 0,2 0,5 0,7 0,6 -3,10 -6,14 -3,3 -8,5 -13,5 -26,-1 -53,-2 -80,-2 -5,-1 -10,-3 -13,-6 -3,-4 -5,-9 -5,-15 0,-2 0,-5 0,-7 0,-6 2,-11 5,-14 4,-4 8,-6 13,-6z"/>
    <path class="fil0 str1" d="M1680 1101c27,3 53,8 80,14 5,1 10,4 13,9 3,4 5,9 5,14 0,2 0,5 0,7 0,5 -2,9 -5,12 -3,3 -8,4 -13,3 -27,-6 -53,-10 -80,-14 -5,0 -9,-3 -13,-7 -3,-4 -5,-9 -5,-14 0,-2 0,-5 0,-7 0,-6 2,-10 5,-13 4,-4 8,-5 13,-4z"/>
    <path class="fil0 str1" d="M-58 999c26,-1 53,-1 79,-2 5,0 10,2 13,5 3,4 6,9 6,14 0,3 0,5 0,7 0,6 -3,11 -6,14 -4,4 -8,7 -13,7 -27,0 -53,0 -80,1 -5,0 -10,-2 -13,-6 -3,-3 -5,-8 -5,-13 0,-2 0,-5 0,-7 0,-5 2,-10 5,-14 3,-4 8,-6 14,-6z"/>
    <path class="fil0 str1" d="M107 995c27,-1 53,-2 80,-2 5,0 10,2 13,6 3,3 5,8 5,14 0,2 0,5 0,7 0,6 -2,11 -5,14 -4,4 -8,6 -13,6 -27,1 -54,1 -80,2 -5,0 -10,-2 -13,-6 -3,-3 -5,-8 -5,-14 0,-2 0,-4 0,-7 0,-5 2,-10 5,-14 3,-4 8,-6 13,-6z"/>
    <path class="fil0 str1" d="M273 991c26,0 53,-1 80,-1 5,0 9,2 12,6 3,4 6,8 6,14 0,3 0,5 0,8 0,5 -3,11 -6,14 -3,4 -8,6 -13,6 -26,1 -53,1 -79,1 -6,0 -10,-2 -13,-6 -3,-3 -5,-8 -5,-14 0,-2 0,-5 0,-7 0,-6 2,-11 5,-15 3,-3 8,-5 13,-6z"/>
    <path class="fil0 str1" d="M438 989c27,0 54,0 80,-1 5,0 10,3 13,6 3,4 5,9 5,15 0,2 0,5 0,7 0,6 -2,11 -5,15 -3,3 -8,6 -13,6 -27,0 -53,0 -80,0 -5,0 -10,-2 -13,-6 -3,-3 -5,-8 -5,-14 0,-2 0,-5 0,-7 0,-6 2,-11 5,-15 4,-4 8,-6 13,-6z"/>
    <path class="fil0 str1" d="M604 988c26,0 53,0 80,-1 5,0 10,3 13,6 3,4 5,9 5,15 0,2 0,5 0,7 0,6 -2,11 -6,15 -3,4 -8,6 -12,6 -27,0 -54,0 -80,0 -5,0 -10,-2 -13,-6 -3,-3 -5,-8 -5,-14 0,-3 0,-5 0,-8 0,-5 2,-10 5,-14 3,-4 8,-6 13,-6z"/>
    <path class="fil0 str1" d="M769 987c27,0 54,0 81,0 4,0 9,2 12,6 3,4 6,9 6,15 0,2 0,5 0,7 0,6 -3,11 -6,15 -3,3 -8,6 -12,6 -27,0 -54,0 -81,0 -5,0 -9,-3 -13,-6 -3,-4 -5,-9 -5,-15 0,-2 0,-5 0,-7 0,-6 2,-11 5,-15 4,-4 9,-6 13,-6z"/>
    <path class="fil0 str1" d="M935 987c27,0 53,0 80,0 5,0 10,2 13,6 3,4 5,9 5,14 0,3 0,5 0,8 0,6 -2,11 -5,14 -3,4 -8,6 -13,6 -27,1 -54,1 -80,1 -5,0 -10,-3 -13,-6 -3,-4 -5,-9 -5,-15 0,-2 0,-5 0,-7 0,-6 2,-11 5,-15 3,-4 8,-6 13,-6z"/>
    <path class="fil0 str1" d="M1101 987c26,0 53,0 80,0 5,0 9,2 12,6 3,4 6,8 6,14 0,3 0,5 0,8 0,5 -3,11 -6,14 -3,4 -7,6 -12,6 -27,0 -54,0 -80,0 -5,0 -10,-2 -13,-5 -3,-4 -5,-9 -5,-15 0,-2 0,-5 0,-7 0,-6 2,-11 5,-15 3,-4 8,-6 13,-6z"/>
    <path class="fil0 str1" d="M1267 987c26,0 53,0 79,0 5,0 10,2 13,6 3,4 5,9 5,14 0,3 0,5 0,8 0,5 -2,11 -5,14 -3,4 -8,6 -13,6 -27,0 -53,0 -80,0 -5,0 -10,-2 -13,-6 -3,-3 -5,-9 -5,-14 0,-3 0,-5 0,-8 0,-6 2,-11 5,-14 4,-4 9,-6 14,-6z"/>
    <path class="fil0 str1" d="M1432 987c26,1 53,1 80,2 5,0 10,3 13,7 3,4 5,8 5,14 0,2 0,5 0,7 0,6 -2,11 -5,14 -4,4 -8,6 -13,6 -27,-1 -54,-2 -80,-2 -5,0 -10,-2 -13,-6 -3,-3 -5,-8 -5,-14 0,-2 0,-5 0,-7 0,-6 2,-11 5,-15 3,-3 8,-6 13,-6z"/>
    <path class="fil0 str1" d="M1598 994c26,2 53,5 80,9 4,0 9,4 12,8 3,4 6,9 6,14 0,2 0,5 0,7 0,5 -3,10 -6,13 -3,3 -8,4 -12,4 -27,-4 -54,-6 -80,-8 -5,-1 -10,-3 -13,-7 -3,-4 -5,-9 -5,-14 0,-3 0,-5 0,-8 0,-5 2,-10 5,-13 3,-4 8,-5 13,-5z"/>
    <path class="fil0 str1" d="M-55 804c26,-2 53,-3 79,-5 5,0 10,2 13,5 3,4 5,8 5,14 0,2 0,4 0,7 0,5 -3,11 -6,14 -3,4 -8,7 -13,7 -26,1 -53,2 -79,4 -5,0 -10,-2 -13,-5 -3,-3 -5,-8 -5,-14 0,-2 0,-4 0,-7 0,-5 2,-10 5,-14 3,-4 8,-6 14,-6z"/>
    <path class="fil0 str1" d="M110 795c26,-1 53,-2 80,-3 5,-1 9,1 12,5 3,4 5,8 5,14 0,2 0,5 0,7 0,6 -2,11 -5,15 -4,3 -8,6 -13,6 -27,1 -54,2 -80,3 -5,0 -10,-2 -13,-5 -3,-4 -5,-9 -5,-14 0,-3 0,-5 0,-8 0,-5 3,-10 6,-14 3,-4 8,-6 13,-6z"/>
    <path class="fil0 str1" d="M275 789c27,-1 53,-2 80,-3 5,0 10,3 13,6 3,4 5,9 5,14 0,3 0,5 0,8 0,5 -3,11 -6,14 -3,4 -8,6 -13,6 -26,1 -53,2 -79,3 -6,0 -11,-3 -13,-6 -3,-4 -5,-9 -5,-14 0,-3 0,-5 0,-8 0,-5 2,-10 5,-14 3,-4 8,-6 13,-6z"/>
    <path class="fil0 str1" d="M441 785c26,-1 53,-1 80,-2 4,0 9,2 12,6 3,4 5,9 5,14 0,3 0,5 0,8 0,6 -2,11 -5,14 -4,4 -8,7 -13,7 -27,0 -54,0 -80,1 -5,0 -10,-2 -13,-6 -3,-4 -5,-9 -5,-14 0,-3 0,-5 0,-8 0,-5 2,-10 6,-14 3,-4 8,-6 13,-6z"/>
    <path class="fil0 str1" d="M606 782c26,0 53,0 80,0 5,-1 10,2 13,6 3,3 5,8 5,14 0,2 0,5 0,7 0,6 -3,11 -6,15 -3,4 -8,6 -13,6 -26,0 -53,1 -80,1 -5,0 -9,-2 -12,-6 -4,-4 -6,-9 -6,-15 1,-2 0,-5 0,-7 1,-6 3,-11 6,-15 3,-3 8,-6 13,-6z"/>
    <path class="fil0 str1" d="M771 781c27,0 54,0 80,0 5,0 10,2 13,6 3,4 5,9 5,14 0,3 0,5 0,8 0,6 -2,11 -6,14 -3,4 -8,6 -12,6 -27,1 -54,1 -80,1 -5,0 -10,-3 -13,-6 -3,-4 -5,-9 -5,-15 0,-2 0,-5 0,-7 0,-6 2,-11 5,-15 3,-4 8,-6 13,-6z"/>
    <path class="fil0 str1" d="M937 781c26,0 53,0 80,0 4,0 9,2 12,6 3,4 5,9 5,14 0,3 0,5 0,8 0,5 -2,11 -5,14 -3,4 -8,6 -13,6 -27,0 -53,0 -80,0 -5,0 -10,-2 -13,-6 -3,-3 -5,-8 -5,-14 0,-3 0,-5 0,-8 0,-5 3,-10 6,-14 3,-4 8,-6 13,-6z"/>
    <path class="fil0 str1" d="M1102 781c27,0 53,0 80,0 5,0 9,2 13,6 3,4 5,9 5,14 0,3 0,5 0,8 0,6 -3,11 -6,14 -3,4 -7,6 -12,6 -27,0 -54,0 -80,0 -5,0 -10,-2 -13,-6 -3,-3 -5,-8 -5,-14 0,-3 0,-5 0,-8 0,-5 2,-10 5,-14 3,-4 8,-6 13,-6z"/>
    <path class="fil0 str1" d="M1268 781c26,0 53,1 79,1 5,0 10,3 13,6 3,4 5,9 5,15 0,2 0,5 0,7 0,6 -2,11 -5,15 -3,3 -8,6 -13,5 -27,0 -53,0 -80,0 -5,0 -10,-3 -13,-6 -3,-4 -5,-9 -5,-15 0,-2 0,-5 0,-7 0,-6 2,-11 6,-15 3,-4 7,-6 13,-6z"/>
    <path class="fil0 str1" d="M1433 784c26,1 53,2 80,4 5,0 9,3 12,7 3,4 6,8 6,14 0,2 0,5 0,7 0,6 -3,11 -6,14 -3,4 -8,6 -13,5 -26,-1 -53,-2 -79,-3 -6,0 -10,-2 -13,-6 -3,-4 -5,-9 -5,-15 0,-2 0,-5 0,-7 0,-6 2,-11 5,-14 3,-4 8,-6 13,-6z"/>
    <path class="fil0 str1" d="M1598 795c27,4 54,8 80,13 5,1 10,4 13,8 3,4 5,10 5,15 0,2 0,5 0,7 0,6 -2,10 -5,13 -4,2 -8,4 -13,3 -27,-5 -53,-9 -80,-12 -5,0 -10,-3 -13,-7 -3,-4 -5,-9 -5,-15 0,-2 0,-4 0,-7 0,-5 2,-10 5,-13 4,-4 8,-5 13,-5z"/>
    <path class="fil0 str1" d="M25 898c26,-1 53,-2 80,-3 5,0 10,2 13,5 3,4 5,9 5,14 0,2 0,5 0,7 0,6 -3,11 -6,15 -3,4 -8,6 -13,6 -26,1 -53,2 -79,3 -6,0 -10,-2 -13,-6 -3,-3 -5,-8 -5,-14 0,-2 0,-4 0,-7 0,-5 2,-10 5,-14 3,-3 8,-6 13,-6z"/>
    <path class="fil0 str1" d="M190 892c27,-1 54,-1 80,-2 5,0 10,2 13,6 3,3 5,9 5,14 0,2 0,5 0,7 0,6 -2,11 -5,15 -3,3 -8,6 -13,6 -27,1 -54,1 -80,2 -5,0 -10,-2 -13,-6 -3,-4 -5,-8 -5,-14 0,-2 0,-5 0,-7 0,-6 3,-11 5,-14 4,-4 8,-7 13,-7z"/>
    <path class="fil0 str1" d="M356 888c26,0 53,-1 80,-1 5,0 9,2 13,6 3,3 5,9 5,14 0,2 0,5 0,7 0,6 -2,11 -6,15 -3,4 -8,6 -12,6 -27,1 -54,1 -80,1 -5,0 -10,-2 -13,-5 -3,-4 -5,-9 -5,-15 0,-2 0,-5 0,-7 0,-6 2,-11 5,-14 3,-4 8,-7 13,-7z"/>
    <path class="fil0 str1" d="M522 886c26,0 53,-1 79,-1 5,0 10,2 13,6 3,4 6,9 6,14 0,3 0,5 0,8 0,6 -3,11 -6,14 -3,4 -8,7 -13,7 -27,0 -53,0 -80,0 -5,0 -10,-2 -13,-6 -3,-3 -5,-8 -5,-14 0,-3 0,-5 0,-8 0,-5 3,-10 6,-14 3,-4 7,-6 13,-6z"/>
    <path class="fil0 str1" d="M687 884c26,0 53,0 80,0 5,0 9,2 13,6 3,4 5,9 5,15 0,2 0,5 0,7 0,6 -2,11 -6,15 -3,3 -8,6 -12,6 -27,0 -54,0 -80,0 -5,0 -10,-2 -13,-6 -3,-4 -5,-9 -5,-15 0,-2 0,-5 0,-7 0,-5 2,-11 5,-14 3,-4 8,-7 13,-7z"/>
    <path class="fil0 str1" d="M853 884c26,0 53,0 79,0 5,0 10,2 13,6 3,4 6,9 6,15 0,2 0,5 0,7 0,6 -3,11 -6,15 -3,3 -8,6 -13,6 -27,0 -53,0 -80,0 -5,0 -10,-3 -13,-6 -3,-4 -5,-9 -5,-15 0,-2 0,-5 0,-7 0,-6 3,-11 6,-15 3,-4 7,-6 13,-6z"/>
    <path class="fil0 str1" d="M1018 884c26,0 53,0 80,0 5,0 10,2 13,6 3,4 5,9 5,14 0,3 0,5 0,8 0,6 -2,11 -5,14 -3,4 -8,6 -13,6 -27,1 -54,0 -80,0 -5,0 -10,-2 -13,-6 -3,-3 -5,-8 -5,-14 0,-3 0,-5 0,-8 0,-5 2,-10 5,-14 3,-4 8,-6 13,-6z"/>
    <path class="fil0 str1" d="M1184 884c26,0 53,0 79,0 5,0 10,2 13,6 3,4 6,9 6,15 0,2 0,5 0,7 0,6 -3,11 -6,15 -3,3 -8,5 -13,5 -26,0 -53,0 -80,0 -5,0 -10,-2 -12,-5 -4,-4 -6,-9 -6,-15 0,-3 0,-5 0,-8 0,-5 3,-10 6,-14 3,-4 7,-6 13,-6z"/>
    <path class="fil0 str1" d="M1349 884c27,1 53,1 80,2 5,0 10,2 13,6 3,4 5,9 5,15 0,2 0,4 0,7 0,6 -2,10 -5,14 -4,4 -8,6 -13,6 -27,-1 -53,-1 -80,-1 -5,0 -10,-3 -13,-6 -3,-4 -5,-9 -5,-15 0,-2 0,-5 0,-7 0,-6 2,-11 5,-15 3,-3 8,-6 13,-6z"/>
    <path class="fil0 str1" d="M1515 888c26,2 53,4 79,6 5,1 10,4 13,8 3,3 6,9 6,14 0,2 0,5 0,7 0,6 -3,10 -6,14 -3,3 -8,5 -13,4 -26,-2 -53,-3 -79,-5 -6,0 -10,-2 -13,-6 -3,-4 -6,-9 -5,-15 0,-2 0,-5 0,-7 0,-5 2,-10 5,-14 3,-3 8,-6 13,-6z"/>
    <path class="fil0 str1" d="M1680 906c27,5 53,11 80,19 5,2 10,6 13,10 3,4 5,10 5,15 0,2 0,4 0,7 0,5 -2,9 -5,12 -3,2 -8,2 -13,1 -27,-8 -53,-14 -80,-18 -5,-1 -9,-4 -13,-8 -3,-4 -5,-9 -5,-15 0,-2 0,-5 0,-7 0,-5 2,-10 5,-13 4,-3 8,-4 13,-3z"/>
    <path class="fil0 str1" d="M29 700c26,-2 53,-4 79,-5 5,-1 10,1 13,5 3,3 5,8 5,14 0,2 0,5 0,7 0,6 -3,11 -6,15 -3,3 -8,6 -12,6 -27,1 -54,3 -80,5 -5,0 -10,-2 -13,-5 -3,-4 -5,-9 -5,-14 0,-2 0,-5 0,-7 0,-6 2,-11 6,-15 3,-3 8,-6 13,-6z"/>
    <path class="fil0 str1" d="M194 690c27,-1 53,-2 80,-3 5,0 9,2 12,6 4,3 6,8 5,14 0,2 1,5 0,7 0,6 -2,11 -5,15 -3,4 -8,6 -13,6 -27,1 -54,2 -80,3 -5,0 -10,-2 -13,-5 -3,-4 -5,-9 -5,-14 1,-3 0,-5 0,-8 1,-5 3,-10 6,-14 3,-4 8,-6 13,-7z"/>
    <path class="fil0 str1" d="M359 684c27,0 53,-1 80,-2 5,0 10,2 13,6 3,4 5,9 5,14 0,3 0,5 0,8 0,5 -3,11 -6,15 -3,3 -8,6 -13,6 -26,0 -53,1 -80,2 -5,0 -9,-2 -12,-6 -4,-4 -5,-9 -5,-14 0,-3 0,-5 0,-8 0,-5 2,-10 5,-14 3,-4 8,-6 13,-7z"/>
    <path class="fil0 str1" d="M525 681c26,-1 53,-1 79,-1 5,0 10,2 13,5 3,4 5,9 5,15 0,2 0,5 0,7 0,6 -3,11 -6,15 -3,4 -8,6 -12,6 -27,0 -54,1 -80,1 -5,0 -10,-2 -13,-6 -3,-3 -5,-9 -5,-14 0,-3 0,-5 0,-8 0,-5 2,-10 5,-14 3,-4 9,-6 14,-6z"/>
    <path class="fil0 str1" d="M690 679c26,-1 53,-1 79,-1 5,0 10,2 13,6 3,4 5,9 5,15 0,2 0,5 0,7 0,6 -2,11 -5,15 -3,3 -8,6 -13,6 -27,0 -54,0 -80,0 -5,0 -10,-2 -13,-6 -3,-3 -5,-9 -5,-14 0,-3 0,-5 0,-8 0,-5 2,-10 6,-14 3,-4 8,-6 13,-6z"/>
    <path class="fil0 str1" d="M855 678c26,0 53,0 80,0 4,0 9,2 12,6 3,4 5,9 5,14 0,3 1,5 0,8 0,5 -2,11 -5,14 -3,4 -8,7 -13,7 -27,0 -53,0 -80,0 -5,0 -10,-3 -13,-6 -3,-4 -4,-9 -4,-15 0,-2 -1,-5 0,-7 0,-6 2,-11 5,-15 3,-4 8,-6 13,-6z"/>
    <path class="fil0 str1" d="M1020 678c26,0 53,0 80,0 5,0 9,2 12,6 3,4 6,9 6,14 0,3 0,5 0,8 0,5 -3,11 -6,14 -3,4 -8,7 -13,7 -26,0 -53,-1 -80,-1 -5,0 -9,-2 -12,-6 -3,-3 -6,-9 -5,-14 0,-3 0,-5 0,-8 0,-5 2,-11 5,-14 3,-4 8,-6 13,-6z"/>
    <path class="fil0 str1" d="M1185 678c27,0 53,0 80,0 5,0 10,3 12,7 4,4 6,9 6,14 0,3 0,5 0,8 0,5 -3,10 -6,14 -3,4 -8,6 -12,6 -27,0 -54,0 -80,0 -5,-1 -10,-3 -13,-6 -3,-4 -5,-10 -5,-15 0,-3 0,-5 0,-8 0,-5 2,-10 5,-14 3,-4 8,-6 13,-6z"/>
    <path class="fil0 str1" d="M1350 680c27,0 54,1 80,2 5,0 10,3 13,7 3,4 5,9 5,14 0,3 0,5 0,8 0,5 -2,10 -5,14 -3,3 -8,5 -13,5 -27,0 -53,-1 -80,-2 -5,0 -10,-2 -13,-6 -3,-4 -5,-9 -5,-15 0,-2 0,-5 0,-7 0,-6 2,-11 5,-14 3,-4 8,-6 13,-6z"/>
    <path class="fil0 str1" d="M1516 687c26,2 53,5 79,9 5,0 10,3 13,7 3,4 5,9 5,15 0,2 0,5 0,7 0,6 -2,10 -5,13 -3,4 -8,5 -13,5 -27,-4 -53,-6 -80,-8 -5,0 -9,-3 -12,-7 -4,-4 -6,-9 -6,-15 0,-2 0,-4 0,-7 0,-5 2,-10 6,-14 3,-3 8,-5 13,-5z"/>
    <path class="fil0 str1" d="M1681 711c26,6 53,15 80,25 4,1 9,6 12,10 3,5 6,10 6,16 0,2 0,4 0,6 0,5 -3,10 -6,12 -3,2 -8,2 -12,0 -27,-9 -54,-17 -80,-23 -5,-1 -10,-5 -13,-9 -3,-4 -5,-9 -5,-15 0,-2 0,-4 0,-7 0,-5 2,-10 5,-13 3,-3 8,-4 13,-2z"/>
    <path class="fil0 str1" d="M-51 609c26,-3 53,-6 79,-8 5,0 10,2 13,5 3,3 5,8 5,13 0,3 0,5 0,8 0,5 -3,10 -6,14 -3,4 -8,6 -13,7 -26,2 -53,4 -79,6 -5,1 -10,-1 -13,-4 -3,-3 -5,-8 -5,-13 0,-2 0,-5 0,-7 0,-5 2,-11 5,-14 4,-4 9,-7 14,-7z"/>
    <path class="fil0 str1" d="M114 595c26,-2 53,-3 79,-5 5,0 10,2 13,5 3,4 5,8 5,14 0,3 0,5 0,8 0,5 -2,10 -6,14 -3,4 -8,6 -12,6 -27,2 -54,3 -80,5 -5,0 -10,-2 -13,-5 -3,-4 -5,-8 -5,-14 0,-2 0,-5 0,-7 0,-6 3,-11 6,-15 3,-3 8,-6 13,-6z"/>
    <path class="fil0 str1" d="M279 586c26,-1 53,-3 80,-3 5,-1 9,2 12,5 3,4 5,9 5,14 0,3 0,5 0,8 0,5 -3,10 -6,14 -3,4 -7,7 -12,7 -27,1 -54,2 -80,3 -5,0 -10,-2 -13,-6 -3,-3 -5,-8 -5,-14 0,-2 1,-5 1,-7 0,-6 2,-11 5,-15 3,-4 8,-6 13,-6z"/>
    <path class="fil0 str1" d="M444 580c26,-1 53,-1 80,-2 4,0 9,2 12,6 3,4 6,9 5,14 0,3 0,5 0,8 0,5 -2,10 -5,14 -4,4 -8,6 -13,7 -27,0 -53,1 -80,1 -5,0 -10,-2 -13,-5 -3,-4 -5,-9 -5,-14 0,-3 1,-6 1,-8 0,-6 2,-11 5,-15 3,-4 8,-6 13,-6z"/>
    <path class="fil0 str1" d="M609 577c26,-1 53,-1 80,-1 5,0 9,2 12,6 3,3 6,8 6,14 0,3 -1,5 -1,8 0,5 -2,10 -5,14 -3,4 -8,6 -13,6 -27,1 -53,1 -80,1 -5,0 -9,-2 -13,-6 -2,-3 -5,-8 -4,-14 0,-3 0,-5 0,-8 0,-5 2,-10 5,-14 3,-4 8,-6 13,-6z"/>
    <path class="fil0 str1" d="M774 575c27,0 53,0 80,0 4,0 9,2 12,6 3,4 5,9 5,14 0,3 1,5 0,8 0,6 -2,11 -5,14 -3,4 -8,6 -13,6 -26,1 -53,1 -79,1 -5,0 -10,-2 -13,-6 -3,-4 -5,-9 -5,-15 0,-2 0,-5 0,-7 0,-6 2,-11 5,-15 3,-4 8,-6 13,-6z"/>
    <path class="fil0 str1" d="M939 575c26,0 53,0 80,0 5,0 9,2 12,6 3,3 6,8 6,14 0,3 -1,5 -1,8 0,5 -2,10 -5,14 -3,4 -8,6 -13,6 -26,0 -53,0 -79,0 -6,0 -10,-2 -13,-6 -3,-3 -5,-8 -5,-14 0,-3 0,-5 0,-8 0,-5 2,-11 5,-14 3,-4 8,-6 13,-6z"/>
    <path class="fil0 str1" d="M1104 575c26,0 53,0 80,0 5,0 9,2 12,6 3,4 6,9 6,14 0,3 0,5 0,8 0,6 -3,11 -6,15 -3,3 -8,6 -13,6 -26,0 -53,-1 -79,-1 -5,0 -10,-2 -13,-6 -4,-3 -5,-8 -5,-14 0,-3 0,-5 0,-8 0,-5 2,-11 5,-14 3,-4 8,-6 13,-6z"/>
    <path class="fil0 str1" d="M1269 576c27,0 53,1 80,2 5,0 9,2 12,6 3,4 6,9 6,14 0,3 0,5 0,8 0,6 -3,10 -6,14 -3,4 -8,6 -13,6 -26,-1 -53,-1 -79,-2 -5,0 -10,-2 -13,-6 -3,-4 -5,-9 -5,-14 0,-3 0,-5 0,-8 0,-6 2,-11 5,-14 3,-4 8,-6 13,-6z"/>
    <path class="fil0 str1" d="M1434 581c27,1 53,3 80,5 5,1 9,4 12,7 3,4 6,9 6,15 0,3 0,5 0,7 0,6 -3,11 -6,14 -3,3 -7,5 -12,5 -27,-2 -54,-4 -80,-5 -5,-1 -10,-3 -13,-7 -3,-4 -5,-9 -5,-14 0,-3 0,-5 0,-8 0,-5 2,-10 5,-14 3,-4 8,-5 13,-5z"/>
    <path class="fil0 str1" d="M1599 597c27,4 53,9 80,16 5,1 9,5 12,9 3,4 6,10 6,15 0,2 0,5 0,7 0,5 -3,9 -6,12 -3,3 -8,4 -12,3 -27,-6 -53,-11 -80,-15 -5,-1 -10,-4 -13,-8 -3,-4 -5,-9 -5,-15 0,-2 0,-5 0,-7 0,-6 2,-10 5,-13 4,-4 8,-5 13,-4z"/>
    <path class="fil0 str1" d="M-48 413c27,-3 53,-7 80,-10 5,0 9,1 12,5 3,3 6,8 6,13 0,3 -1,5 -1,7 0,6 -2,11 -5,15 -3,4 -8,7 -13,7 -26,3 -53,6 -79,9 -6,1 -10,0 -13,-3 -4,-3 -6,-8 -6,-13 1,-3 1,-5 1,-7 0,-6 2,-11 5,-15 3,-4 8,-7 13,-8z"/>
    <path class="fil0 str1" d="M117 395c26,-2 53,-4 79,-6 5,-1 10,1 13,5 3,3 5,8 5,13 0,3 0,5 0,8 0,5 -2,10 -5,14 -3,4 -8,7 -13,7 -27,1 -53,4 -79,6 -5,0 -10,-1 -13,-5 -3,-3 -5,-8 -5,-13 0,-3 0,-5 0,-8 0,-5 2,-10 5,-14 3,-4 8,-7 13,-7z"/>
    <path class="fil0 str1" d="M282 383c26,-1 53,-3 79,-4 5,0 10,2 13,6 3,3 5,8 5,13 0,3 0,6 0,8 0,6 -2,11 -5,15 -3,4 -8,6 -13,6 -27,1 -53,3 -79,4 -6,0 -10,-2 -13,-6 -3,-3 -6,-8 -6,-13 0,-3 0,-5 0,-8 0,-5 3,-10 6,-14 3,-4 8,-6 13,-7z"/>
    <path class="fil0 str1" d="M447 376c26,-1 53,-2 79,-3 5,0 10,2 13,6 3,3 5,8 5,14 0,3 0,5 0,8 0,5 -2,10 -5,14 -4,4 -9,6 -13,6 -27,1 -53,2 -80,3 -5,0 -10,-2 -13,-6 -3,-3 -5,-8 -5,-14 0,-2 0,-5 0,-7 0,-6 3,-11 6,-15 3,-4 8,-6 13,-6z"/>
    <path class="fil0 str1" d="M612 371c26,0 52,-1 79,-1 5,0 9,2 13,6 3,4 5,9 5,14 0,3 0,5 0,8 0,5 -3,10 -6,14 -3,4 -8,6 -12,6 -27,1 -54,2 -80,2 -5,0 -10,-2 -13,-6 -3,-4 -5,-9 -5,-14 0,-3 0,-5 0,-8 0,-5 3,-10 6,-14 3,-4 7,-6 13,-7z"/>
    <path class="fil0 str1" d="M776 369c27,0 53,0 80,0 4,0 9,2 12,6 3,3 6,9 6,14 0,3 -1,5 -1,8 0,5 -2,10 -5,14 -3,4 -8,6 -12,6 -27,1 -54,1 -80,1 -5,0 -10,-2 -13,-6 -3,-4 -5,-9 -5,-15 0,-2 0,-5 0,-7 0,-6 2,-11 5,-15 3,-4 8,-6 13,-6z"/>
    <path class="fil0 str1" d="M941 369c26,0 53,0 79,0 5,0 10,2 13,5 3,4 6,10 6,15 0,3 -1,5 -1,8 0,5 -2,10 -5,14 -3,4 -8,6 -13,6 -27,0 -53,0 -79,0 -5,0 -10,-2 -13,-6 -3,-3 -5,-8 -5,-14 0,-3 0,-5 0,-8 0,-5 2,-11 5,-14 3,-4 8,-6 13,-6z"/>
    <path class="fil0 str1" d="M1106 369c26,0 53,0 79,0 5,0 10,3 13,6 3,4 5,9 5,15 0,2 0,5 0,7 0,6 -2,11 -5,15 -3,4 -8,6 -13,6 -27,-1 -53,-1 -79,-1 -6,0 -10,-2 -13,-6 -3,-3 -5,-8 -5,-14 0,-3 0,-5 0,-8 0,-5 2,-10 5,-14 3,-4 8,-6 13,-6z"/>
    <path class="fil0 str1" d="M1270 370c27,1 53,2 80,3 5,0 9,2 13,6 3,4 5,9 5,15 0,3 0,5 0,8 0,5 -2,10 -5,14 -4,4 -9,5 -13,5 -27,-1 -54,-2 -80,-2 -5,0 -10,-2 -13,-6 -3,-4 -5,-9 -5,-15 0,-3 0,-5 0,-8 0,-5 2,-10 5,-14 4,-4 8,-6 13,-6z"/>
    <path class="fil0 str1" d="M1435 378c27,2 53,5 80,7 4,1 9,3 12,7 3,4 6,10 6,15 0,3 0,5 0,7 0,6 -3,11 -6,14 -3,3 -8,5 -13,4 -26,-2 -53,-5 -79,-7 -5,0 -10,-2 -13,-6 -3,-4 -5,-9 -5,-15 0,-2 0,-5 0,-7 0,-6 2,-11 5,-14 3,-4 8,-6 13,-5z"/>
    <path class="fil0 str1" d="M1600 398c26,6 53,12 80,20 4,1 9,5 12,10 3,4 6,10 6,15 0,3 -1,5 -1,7 0,6 -2,9 -5,12 -3,3 -8,3 -13,2 -26,-8 -53,-14 -79,-19 -5,-1 -10,-4 -13,-8 -3,-4 -5,-10 -5,-15 0,-3 0,-5 0,-8 0,-5 2,-10 5,-12 3,-4 8,-5 13,-4z"/>
    <path class="fil0 str1" d="M33 502c26,-3 53,-5 80,-7 4,-1 9,1 12,5 3,3 5,8 5,13 0,3 0,5 0,8 0,5 -2,10 -5,14 -3,4 -8,7 -13,7 -27,2 -53,4 -80,7 -5,0 -10,-2 -13,-5 -3,-3 -5,-8 -5,-13 0,-3 0,-5 0,-8 0,-5 3,-10 6,-14 3,-4 7,-7 13,-7z"/>
    <path class="fil0 str1" d="M198 489c26,-2 53,-3 79,-5 5,0 10,2 13,6 3,4 5,9 5,14 0,2 0,5 0,7 0,6 -3,11 -6,15 -3,4 -7,6 -12,6 -27,2 -54,3 -80,4 -5,1 -10,-1 -13,-4 -3,-4 -5,-9 -5,-14 0,-3 1,-5 1,-8 0,-5 1,-11 5,-14 3,-4 8,-7 13,-7z"/>
    <path class="fil0 str1" d="M363 481c26,-1 53,-2 79,-3 5,0 10,2 13,5 3,4 5,9 5,15 0,2 0,5 0,7 0,6 -2,11 -6,15 -3,4 -8,6 -12,6 -27,1 -54,2 -80,3 -5,0 -10,-2 -13,-6 -3,-3 -5,-8 -5,-14 0,-2 0,-5 0,-7 0,-6 3,-11 6,-15 3,-4 8,-6 13,-6z"/>
    <path class="fil0 str1" d="M528 476c26,-1 53,-2 79,-2 5,0 10,2 13,6 3,3 5,9 5,14 0,3 0,5 0,8 0,5 -2,11 -6,14 -3,4 -7,7 -12,7 -27,0 -54,1 -80,1 -5,0 -10,-2 -13,-6 -3,-3 -5,-8 -5,-14 0,-2 0,-5 0,-7 0,-6 2,-11 5,-15 4,-4 8,-6 14,-6z"/>
    <path class="fil0 str1" d="M693 473c26,-1 52,-1 79,-1 5,0 10,2 13,6 3,4 5,9 5,15 0,2 0,5 0,7 0,6 -3,11 -6,15 -3,3 -8,6 -12,6 -27,0 -54,0 -80,0 -5,0 -10,-2 -13,-5 -3,-4 -5,-9 -5,-15 0,-2 0,-5 0,-7 0,-6 3,-11 6,-15 3,-4 8,-6 13,-6z"/>
    <path class="fil0 str1" d="M857 472c27,0 53,0 80,0 5,0 9,2 12,6 3,3 6,9 6,14 0,3 0,5 0,8 0,5 -3,11 -6,14 -3,4 -8,6 -12,6 -27,0 -54,0 -80,0 -5,0 -10,-2 -13,-5 -3,-4 -5,-9 -5,-15 0,-2 0,-5 0,-7 0,-6 2,-11 5,-15 3,-4 8,-6 13,-6z"/>
    <path class="fil0 str1" d="M1022 471c27,0 53,1 80,1 5,0 9,2 12,6 4,3 6,9 6,14 0,3 0,5 0,8 0,5 -3,11 -6,14 -3,4 -8,6 -13,6 -26,0 -53,0 -79,0 -5,0 -10,-2 -13,-6 -3,-4 -5,-9 -5,-14 0,-3 0,-5 0,-8 0,-6 2,-11 5,-15 3,-3 8,-6 13,-6z"/>
    <path class="fil0 str1" d="M1187 472c26,0 53,1 80,1 4,0 9,3 12,6 3,4 6,9 6,15 0,2 0,5 0,7 0,6 -3,11 -6,15 -3,3 -8,6 -13,6 -26,-1 -53,-1 -79,-1 -5,0 -10,-3 -13,-6 -3,-4 -5,-9 -5,-15 0,-2 0,-5 0,-7 0,-6 2,-11 5,-15 3,-4 8,-6 13,-6z"/>
    <path class="fil0 str1" d="M1352 475c26,1 53,3 79,4 5,0 10,3 13,7 3,4 5,9 5,15 0,2 0,4 0,7 0,5 -2,10 -5,14 -3,3 -8,5 -13,5 -26,-1 -53,-3 -79,-3 -5,-1 -10,-3 -13,-7 -3,-4 -5,-9 -5,-14 0,-3 0,-5 0,-8 0,-6 2,-11 5,-14 3,-4 8,-6 13,-6z"/>
    <path class="fil0 str1" d="M1517 486c26,3 53,6 79,11 5,1 10,4 13,8 3,4 5,10 5,15 0,2 0,5 0,7 0,5 -2,10 -5,13 -3,3 -8,5 -13,4 -26,-4 -53,-8 -79,-11 -5,0 -10,-3 -13,-7 -3,-4 -5,-9 -5,-14 0,-3 0,-5 0,-8 0,-5 2,-10 5,-14 3,-3 8,-5 13,-4z"/>
    <path class="fil0 str1" d="M1682 516c26,8 53,18 79,30 5,2 10,7 13,12 3,5 6,10 6,15 0,3 0,5 0,7 0,5 -3,9 -6,11 -3,2 -8,2 -13,0 -26,-12 -53,-21 -79,-29 -5,-2 -10,-5 -13,-9 -3,-5 -5,-10 -5,-16 0,-2 0,-4 0,-7 0,-5 2,-10 5,-12 3,-3 8,-4 13,-2z"/>
    <path class="fil0 str1" d="M35 304c26,-3 53,-6 80,-9 4,-1 9,1 12,5 3,3 6,8 6,13 0,3 0,5 0,7 0,6 -3,11 -6,15 -3,4 -8,7 -13,7 -26,3 -53,6 -79,9 -5,0 -10,-1 -13,-4 -3,-4 -5,-8 -5,-14 0,-2 0,-4 0,-7 0,-5 2,-11 5,-15 3,-3 8,-6 13,-7z"/>
    <path class="fil0 str1" d="M200 287c26,-2 53,-3 79,-5 5,0 10,2 13,5 3,4 5,9 5,14 0,3 0,5 0,8 0,5 -2,10 -5,14 -3,4 -8,6 -13,7 -26,1 -53,3 -79,5 -5,0 -10,-1 -13,-5 -3,-3 -5,-8 -5,-14 0,-2 0,-4 0,-7 0,-5 2,-11 5,-14 3,-4 8,-7 13,-8z"/>
    <path class="fil0 str1" d="M365 277c26,-1 53,-2 79,-3 5,-1 10,1 13,5 3,4 5,9 5,14 0,3 0,5 0,8 0,5 -2,11 -5,14 -3,4 -8,7 -13,7 -26,1 -53,2 -80,3 -5,0 -9,-2 -13,-5 -3,-4 -5,-9 -4,-14 0,-3 0,-5 0,-8 0,-5 2,-10 5,-14 3,-4 8,-7 13,-7z"/>
    <path class="fil0 str1" d="M530 271c26,-1 52,-2 79,-2 5,0 9,2 12,6 4,3 6,8 6,14 0,2 0,5 0,7 0,6 -3,11 -6,15 -3,4 -7,6 -12,6 -27,1 -54,1 -80,2 -5,0 -9,-2 -13,-6 -3,-3 -5,-8 -4,-14 0,-2 0,-5 0,-7 0,-6 1,-11 4,-15 3,-4 8,-6 14,-6z"/>
    <path class="fil0 str1" d="M694 267c26,0 53,-1 79,-1 5,0 10,2 13,6 3,4 5,9 5,15 0,2 0,5 0,7 0,6 -2,11 -5,15 -3,3 -8,6 -13,6 -26,0 -53,1 -79,1 -5,0 -10,-3 -13,-6 -3,-4 -5,-9 -5,-15 0,-2 0,-5 0,-7 0,-6 2,-11 5,-15 3,-3 8,-6 13,-6z"/>
    <path class="fil0 str1" d="M859 266c26,0 53,0 79,0 5,0 10,2 13,6 3,4 5,9 5,14 0,3 0,5 0,8 0,5 -2,11 -5,14 -3,4 -8,6 -13,6 -27,0 -53,0 -79,0 -5,0 -10,-2 -13,-6 -3,-3 -5,-8 -5,-14 0,-2 0,-5 0,-7 0,-6 1,-11 5,-15 3,-4 8,-6 13,-6z"/>
    <path class="fil0 str1" d="M1023 266c27,0 53,0 80,0 5,0 10,2 13,6 3,3 5,9 5,14 0,3 0,5 0,8 0,5 -2,11 -6,14 -3,4 -7,6 -12,6 -27,0 -53,0 -80,0 -5,0 -10,-2 -13,-6 -3,-4 -5,-9 -5,-14 0,-3 0,-5 0,-8 0,-6 2,-11 6,-14 3,-4 8,-6 12,-6z"/>
    <path class="fil0 str1" d="M1188 266c27,1 53,1 80,2 5,0 9,3 12,6 3,4 6,9 6,15 0,2 0,5 0,7 0,6 -3,11 -6,14 -3,4 -8,6 -13,6 -26,0 -52,-1 -79,-1 -5,0 -10,-2 -13,-6 -3,-4 -5,-9 -5,-15 0,-2 0,-5 0,-7 0,-6 2,-11 5,-15 3,-3 8,-6 13,-6z"/>
    <path class="fil0 str1" d="M1353 271c26,1 53,3 79,5 5,0 10,3 13,7 3,4 5,9 5,14 0,3 0,5 0,8 0,5 -2,10 -5,14 -3,3 -8,5 -13,5 -26,-2 -53,-4 -79,-5 -5,0 -10,-3 -13,-7 -3,-3 -5,-9 -5,-14 0,-3 0,-5 0,-8 0,-5 2,-10 5,-14 3,-3 8,-5 13,-5z"/>
    <path class="fil0 str1" d="M1518 285c26,3 52,8 79,13 5,1 10,5 13,9 3,4 5,9 5,15 0,3 0,5 0,7 0,6 -2,10 -5,13 -3,3 -8,4 -13,3 -27,-5 -53,-9 -79,-13 -6,-1 -10,-3 -13,-7 -3,-4 -6,-10 -6,-15 1,-2 0,-5 0,-7 0,-6 2,-11 6,-14 3,-3 7,-5 13,-4z"/>
    <path class="fil0 str1" d="M1682 321c27,10 53,21 80,35 5,3 9,8 12,13 3,5 6,11 6,16 0,3 0,5 0,7 0,5 -3,9 -6,11 -3,1 -7,0 -12,-2 -27,-14 -54,-25 -80,-34 -5,-2 -9,-5 -12,-10 -3,-4 -6,-10 -6,-15 0,-2 0,-5 0,-7 0,-6 2,-10 6,-12 3,-3 7,-4 12,-2z"/>
   </g>
  </g>
  <path class="fil2" d="M1586 262c-136,-40 -363,-42 -521,-42 -174,0 -777,16 -908,28 -112,10 -130,13 -147,20l-10 1807c25,10 72,20 157,25 89,5 783,17 956,17 97,0 364,-11 460,-26 46,-8 97,-16 126,-30l-2 -1749c-18,-19 -60,-35 -111,-50z"/>
 </g>
</svg>
