<?xml version="1.0" encoding="UTF-8"?>
<!DOCTYPE svg PUBLIC "-//W3C//DTD SVG 1.1//EN" "http://www.w3.org/Graphics/SVG/1.1/DTD/svg11.dtd">
<!-- Creator: CorelDRAW X7 -->
<svg xmlns="http://www.w3.org/2000/svg" xml:space="preserve" width="132.265mm" height="175.294mm" version="1.1" style="shape-rendering:geometricPrecision; text-rendering:geometricPrecision; image-rendering:optimizeQuality; fill-rule:evenodd; clip-rule:evenodd"
viewBox="0 0 1103 1461"
 xmlns:xlink="http://www.w3.org/1999/xlink">
 <defs>
  <style type="text/css">
   <![CDATA[
    .str1 {stroke:#2B2A29;stroke-width:1.66719}
    .str0 {stroke:white;stroke-width:1.66719}
    .fil3 {fill:none}
    .fil2 {fill:#FEFEFE}
    .fil1 {fill:#2B2A29}
    .fil0 {fill:url(#id1)}
   ]]>
  </style>
   <clipPath id="id0">
    <path d="M1021 169c-87,-26 -233,-27 -335,-27 -112,0 -501,10 -585,17 -72,7 -83,9 -95,13l-6 1164c16,6 46,13 101,16 58,3 504,11 616,11 62,0 234,-7 296,-17 30,-5 62,-10 81,-19l-1 -1126c-12,-12 -39,-22 -72,-32z"/>
   </clipPath>
  <linearGradient id="id1" gradientUnits="userSpaceOnUse" x1="2.50079" y1="752.472" x2="1096.49" y2="752.472">
   <stop offset="0" style="stop-opacity:0.819608; stop-color:#2B2A29"/>
   <stop offset="0.239216" style="stop-opacity:0.509804; stop-color:#1F1B20"/>
   <stop offset="0.54902" style="stop-opacity:0.137255; stop-color:#1F1B20"/>
   <stop offset="0.788235" style="stop-opacity:0; stop-color:#1F1B20"/>
   <stop offset="1" style="stop-opacity:0.8; stop-color:black"/>
  </linearGradient>
 </defs>
 <g id="sonos">
  <metadata id="CorelCorpID_0Corel-Layer"/>
  <path class="fil0" d="M1023 169c-87,-26 -233,-27 -335,-27 -112,0 -500,10 -585,17 -71,7 -83,9 -94,13l-6 1164c16,6 46,13 100,16 58,3 505,11 616,11 62,0 234,-7 296,-17 30,-5 63,-10 81,-19l-1 -1126c-11,-12 -38,-22 -72,-32z"/>
  <path class="fil1 str0" d="M379 145c128,-5 262,-9 319,-9 57,0 105,1 144,3 38,2 68,4 89,7 11,2 20,4 27,5 20,2 31,4 55,12 8,2 14,4 19,5 25,8 50,16 64,24l-1 -122c-6,-6 -13,-11 -24,-17 -9,-5 -21,-10 -36,-15 -16,-5 -30,-9 -44,-12 -14,-4 -30,-7 -50,-10 -23,-4 -61,-8 -111,-11 -37,-3 -82,-4 -130,-4 -56,0 -178,4 -298,9 -127,5 -251,11 -295,15 -72,7 -87,14 -99,20l-1 0 -1 125c10,-4 17,-6 94,-13 41,-3 157,-8 279,-12z"/>
  <path class="fil1 str0" d="M696 1347c-113,0 -531,-2 -602,-8 -70,-6 -80,-6 -91,-8l0 45c9,11 29,31 58,46 19,11 42,19 68,23 34,4 140,8 254,11 131,3 273,5 333,4 56,-1 102,-3 144,-6 41,-4 77,-9 113,-19 20,-6 35,-10 49,-16 13,-6 25,-13 36,-22 8,-6 15,-11 20,-16 6,-4 10,-9 14,-13l1 0 1 -1 0 0 2 -2 3 -3 2 -2 0 -9 1 -36 0 -10 -8 8c-12,11 -34,18 -71,21 -109,9 -218,13 -327,13z"/>
  <g id="_286816159728">
   <path class="fil2" d="M450 55c4,-1 8,1 11,3 3,3 5,6 6,10 0,5 -2,9 -5,12 -2,3 -6,5 -10,5 -5,1 -9,0 -12,-3 -3,-3 -5,-6 -5,-10 0,-5 1,-9 4,-12 3,-3 7,-5 11,-5zm-1 37c1,0 2,0 2,0 1,0 2,0 3,-1 6,-1 10,-4 14,-8 3,-3 4,-7 5,-11 0,-4 0,-8 -2,-11 -1,-3 -2,-5 -4,-6 -3,-4 -7,-6 -12,-6 -1,0 -2,0 -2,-1 -1,0 -3,1 -4,1 0,0 -1,0 -2,0 -2,1 -4,1 -6,2 -3,2 -5,3 -6,5 -2,2 -4,4 -5,7 -2,6 -2,12 1,17 2,6 7,10 14,11 1,1 4,1 4,1z"/>
   <path class="fil2" d="M345 89c0,0 0,0 0,0 -4,0 -8,-1 -10,-4 -3,-3 -4,-6 -4,-10 0,0 0,0 0,-1 0,-4 2,-7 5,-10 2,-3 6,-5 10,-5 0,0 0,0 1,0 4,0 7,1 10,4 2,3 4,6 3,11 0,4 -2,7 -4,10 -3,3 -7,5 -11,5zm-1 6c0,0 1,0 2,0 0,0 3,0 4,-1 2,0 3,-1 4,-1 2,-1 5,-3 6,-5 2,-2 3,-3 5,-6 1,-3 2,-6 2,-9 0,-3 -1,-6 -2,-8 -1,-3 -2,-4 -4,-6 -1,-1 -3,-3 -5,-4 -4,-2 -7,-2 -8,-2 -1,0 -2,0 -3,0 0,0 -2,1 -2,1 -2,0 -4,1 -6,2 -8,4 -12,12 -12,19 -1,7 3,15 11,18 4,2 7,2 8,2z"/>
   <path class="fil2" d="M387 66c0,1 6,6 7,7 2,2 4,4 6,6 2,2 4,4 7,7 3,3 4,4 7,6 0,-6 0,-13 0,-20 0,-7 0,-14 1,-20 -2,0 -4,0 -6,0 -1,4 -1,9 -1,13 0,4 0,8 0,13 -1,0 -3,-3 -4,-3 -3,-4 -7,-8 -11,-12 -4,-3 -8,-7 -11,-11 -1,7 -1,13 -1,20 0,7 -1,14 -1,20 2,0 4,0 6,0 0,-4 0,-9 1,-13 0,-4 0,-8 0,-13z"/>
   <path class="fil2" d="M288 66c0,1 0,2 0,2 0,1 0,1 0,2 1,3 3,5 6,7 4,2 14,3 13,8 0,2 -2,4 -3,5 -4,1 -8,1 -11,-1 0,0 -1,-1 -1,-1 -1,1 -4,3 -5,3 0,1 2,2 2,2 1,1 1,1 2,2 3,2 6,1 6,2 1,0 3,0 4,0 1,-1 4,-1 8,-4 1,-1 3,-3 4,-7 1,-3 0,-6 -2,-8 -1,-2 -4,-3 -6,-4 -4,-2 -14,-3 -11,-9 2,-4 7,-5 11,-3 2,0 3,1 4,1 1,0 3,-2 5,-3 -1,-1 -3,-3 -5,-3 -1,-1 -2,-1 -3,-1 -1,-1 -3,-1 -3,-1 -1,0 -2,0 -3,0 -1,1 -2,1 -2,1 -4,1 -7,3 -9,6 -1,2 -1,3 -1,4z"/>
   <path class="fil2" d="M498 90c1,0 3,0 4,0 1,0 5,0 9,-4 2,-1 3,-3 4,-5 0,-1 0,-2 0,-3 0,0 0,-1 0,-2 0,0 0,-1 0,-1 -1,-4 -4,-6 -7,-8 -2,0 -4,-1 -6,-2 -3,0 -5,-1 -6,-2 -2,-1 -4,-2 -4,-4 0,-5 8,-8 14,-5 1,0 3,1 3,1 2,-1 3,-2 5,-3 0,-1 -4,-3 -5,-4 -5,-2 -6,-1 -7,-2 -1,0 -2,0 -3,0 -1,1 -5,1 -9,4 -3,2 -4,5 -5,7 0,3 0,6 3,9 1,1 4,3 7,4 4,2 16,3 13,9 -1,3 -4,5 -7,5 -2,0 -4,0 -6,-1 -2,-1 -3,-2 -4,-2 0,1 -5,4 -5,4 1,1 1,1 2,2 3,1 5,3 8,3 1,0 2,0 2,0z"/>
  </g>
  <g>
  </g>
  <g style="clip-path:url(#id0)">
   <g>
    <path class="fil1 str1" d="M-39 1272c17,2 34,5 51,7 3,0 6,2 8,5 2,2 4,5 4,9 0,1 0,3 0,5 0,3 -2,6 -4,8 -2,2 -5,3 -8,3 -17,-2 -34,-5 -51,-8 -4,0 -7,-3 -9,-5 -2,-3 -3,-6 -3,-10 0,-1 0,-2 0,-4 0,-3 1,-6 3,-8 2,-2 5,-3 9,-2z"/>
    <path class="fil1 str1" d="M67 1284c17,2 35,3 52,4 3,0 6,2 8,4 2,3 4,6 4,10 0,1 0,3 0,4 0,4 -2,7 -4,9 -2,3 -5,4 -8,4 -17,-2 -35,-3 -52,-4 -3,-1 -6,-2 -8,-5 -2,-2 -3,-6 -3,-9 0,-2 0,-3 0,-5 0,-3 1,-6 3,-9 2,-2 5,-3 8,-3z"/>
    <path class="fil1 str1" d="M174 1291c17,1 35,2 52,2 3,0 6,2 8,5 2,2 4,5 4,9 0,1 0,3 0,4 0,4 -2,7 -4,10 -2,2 -5,3 -8,3 -17,0 -35,-1 -52,-2 -3,0 -6,-2 -8,-4 -2,-3 -3,-6 -3,-10 0,-1 0,-3 0,-4 0,-4 1,-7 3,-9 2,-3 5,-4 8,-4z"/>
    <path class="fil1 str1" d="M281 1295c17,1 35,1 52,1 3,1 6,2 8,4 2,3 3,6 3,10 0,1 0,3 0,5 0,3 -1,7 -3,9 -2,2 -5,4 -8,4 -17,-1 -35,-1 -52,-2 -3,0 -6,-2 -8,-4 -2,-2 -3,-6 -3,-9 0,-2 0,-3 0,-5 0,-4 1,-7 3,-9 2,-3 5,-4 8,-4z"/>
    <path class="fil1 str1" d="M388 1298c17,0 34,0 52,0 3,0 6,2 8,4 2,2 3,6 3,9 0,2 0,4 0,5 0,4 -1,7 -3,10 -2,2 -5,3 -8,3 -18,0 -35,0 -52,0 -3,0 -6,-2 -8,-4 -2,-3 -4,-6 -4,-10 0,-1 0,-3 0,-5 0,-3 2,-6 4,-9 2,-2 5,-4 8,-3z"/>
    <path class="fil1 str1" d="M495 1299c17,0 34,0 52,0 3,0 6,2 8,4 2,2 3,6 3,9 0,2 0,3 0,5 0,4 -1,7 -3,9 -2,3 -5,4 -8,4 -18,0 -35,0 -52,0 -3,0 -6,-2 -8,-4 -2,-2 -4,-6 -4,-9 0,-2 0,-4 0,-5 0,-4 2,-7 4,-10 2,-2 5,-3 8,-3z"/>
    <path class="fil1 str1" d="M602 1299c17,0 34,0 52,0 3,0 6,1 8,4 2,2 3,6 3,9 0,2 0,3 0,5 0,4 -1,7 -3,9 -2,3 -5,4 -9,4 -17,0 -34,0 -51,0 -3,0 -7,-1 -8,-4 -3,-2 -4,-5 -4,-9 0,-2 0,-3 0,-5 0,-3 2,-7 4,-9 2,-2 5,-4 8,-4z"/>
    <path class="fil1 str1" d="M709 1299c17,0 34,-1 51,-1 4,0 7,2 9,4 2,2 3,5 3,9 0,2 0,3 0,5 0,3 -1,7 -3,9 -2,3 -5,4 -9,4 -17,1 -34,1 -51,1 -3,0 -7,-1 -9,-4 -2,-2 -3,-5 -3,-9 0,-2 0,-3 0,-5 0,-3 1,-7 3,-9 3,-3 6,-4 9,-4z"/>
    <path class="fil1 str1" d="M816 1297c17,-1 34,-2 51,-3 3,0 6,1 9,4 2,2 3,5 3,9 0,1 0,3 0,4 0,4 -1,7 -3,10 -2,3 -6,4 -9,4 -17,1 -34,2 -51,3 -4,0 -7,-1 -9,-4 -2,-2 -3,-5 -3,-9 0,-2 0,-3 0,-5 0,-3 1,-7 3,-9 2,-3 5,-4 9,-4z"/>
    <path class="fil1 str1" d="M923 1290c17,-1 34,-3 51,-5 3,0 6,1 8,3 2,2 4,6 4,9 0,2 0,3 0,5 0,3 -2,7 -4,9 -2,3 -5,5 -8,5 -17,2 -34,3 -51,5 -4,0 -7,-1 -9,-3 -2,-2 -3,-5 -3,-9 0,-2 0,-3 0,-5 0,-3 1,-7 3,-9 2,-3 5,-4 9,-5z"/>
    <path class="fil1 str1" d="M1029 1279c18,-2 35,-4 52,-6 3,0 6,1 8,3 2,2 4,5 4,8 0,2 0,3 0,5 0,3 -2,7 -4,9 -2,3 -5,4 -8,5 -17,2 -34,4 -52,6 -3,1 -6,0 -8,-2 -2,-2 -3,-5 -3,-9 0,-2 0,-3 0,-5 0,-3 1,-6 3,-9 2,-3 5,-4 8,-5z"/>
    <path class="fil1 str1" d="M14 1215c17,2 34,3 51,5 4,0 7,2 9,4 2,3 3,6 3,9 0,2 0,4 0,5 0,4 -1,7 -3,9 -2,2 -5,3 -9,3 -17,-1 -34,-3 -51,-5 -3,0 -6,-2 -8,-4 -2,-3 -4,-6 -4,-10 0,-1 0,-3 0,-4 0,-4 2,-7 4,-9 2,-2 5,-3 8,-3z"/>
    <path class="fil1 str1" d="M121 1223c17,1 34,2 51,3 3,0 7,1 9,4 2,2 3,6 3,9 0,2 0,3 0,5 0,4 -2,7 -3,9 -3,2 -6,4 -9,3 -17,0 -34,-1 -51,-2 -4,0 -7,-2 -9,-4 -2,-3 -3,-6 -3,-10 0,-1 0,-3 0,-4 0,-4 1,-7 3,-9 2,-3 6,-4 9,-4z"/>
    <path class="fil1 str1" d="M228 1228c17,0 34,1 51,1 3,0 6,2 8,4 2,3 4,6 4,10 0,1 0,3 0,5 0,3 -2,6 -4,9 -2,2 -5,3 -8,3 -17,0 -34,-1 -51,-1 -4,0 -7,-2 -9,-5 -2,-2 -3,-5 -3,-9 0,-1 0,-3 0,-4 0,-4 1,-7 3,-10 2,-2 5,-3 9,-3z"/>
    <path class="fil1 str1" d="M335 1230c17,1 34,1 51,1 3,0 6,2 8,4 2,3 4,6 4,10 0,1 0,3 0,4 0,4 -2,7 -4,10 -2,2 -5,4 -8,4 -17,-1 -34,-1 -51,-1 -4,0 -7,-2 -9,-5 -2,-2 -3,-5 -3,-9 0,-2 0,-3 0,-5 0,-3 1,-6 3,-9 2,-2 5,-4 9,-4z"/>
    <path class="fil1 str1" d="M441 1232c17,0 35,0 52,0 3,0 6,2 8,4 2,3 4,6 4,10 0,1 0,3 0,4 0,4 -2,7 -4,10 -2,2 -5,4 -8,4 -17,-1 -35,-1 -52,-1 -3,0 -6,-1 -8,-4 -2,-2 -3,-6 -3,-9 0,-2 0,-3 0,-5 0,-4 1,-7 3,-9 2,-3 5,-4 8,-4z"/>
    <path class="fil1 str1" d="M548 1233c17,0 35,0 52,0 3,0 6,1 8,4 2,2 4,5 4,9 0,2 0,3 0,5 0,3 -2,7 -4,9 -2,3 -5,4 -8,4 -18,0 -35,0 -52,0 -3,0 -6,-2 -8,-4 -2,-2 -4,-6 -4,-9 0,-2 0,-4 0,-5 0,-4 2,-7 4,-10 2,-2 5,-3 8,-3z"/>
    <path class="fil1 str1" d="M655 1233c17,0 34,0 52,-1 3,0 6,2 8,4 2,3 3,6 3,10 0,1 0,3 0,4 0,4 -1,7 -3,10 -2,2 -5,4 -8,4 -18,0 -35,0 -52,0 -3,0 -6,-2 -8,-4 -2,-2 -4,-6 -4,-9 0,-2 0,-4 0,-5 0,-4 2,-7 4,-10 2,-2 5,-3 8,-3z"/>
    <path class="fil1 str1" d="M762 1232c17,-1 34,-1 52,-1 3,-1 6,1 8,3 2,3 3,6 3,9 0,2 0,3 0,5 0,4 -1,7 -3,10 -2,2 -5,4 -8,4 -18,0 -35,1 -52,1 -3,0 -6,-1 -8,-4 -2,-2 -4,-5 -4,-9 0,-2 0,-3 0,-5 0,-3 2,-7 4,-9 2,-3 5,-4 8,-4z"/>
    <path class="fil1 str1" d="M869 1228c17,-1 34,-2 52,-3 3,0 6,1 8,3 2,2 3,6 3,9 0,2 0,3 0,5 0,3 -1,7 -3,9 -2,3 -5,5 -8,5 -18,1 -35,2 -52,3 -3,0 -6,-1 -8,-3 -2,-2 -4,-6 -4,-9 0,-2 0,-3 0,-5 0,-4 2,-7 4,-9 2,-3 5,-5 8,-5z"/>
    <path class="fil1 str1" d="M976 1220c17,-1 34,-3 51,-4 4,-1 7,0 9,2 2,3 3,6 3,9 0,2 0,3 0,5 0,3 -1,7 -3,9 -2,3 -6,4 -9,5 -17,1 -34,3 -51,5 -4,0 -7,-1 -9,-3 -2,-2 -3,-5 -3,-9 0,-2 0,-3 0,-5 0,-3 1,-7 3,-9 2,-3 5,-4 9,-5z"/>
    <path class="fil1 str1" d="M1083 1210c17,-1 34,-2 51,-4 3,0 6,1 8,3 2,2 4,5 4,9 0,1 0,3 0,4 0,3 -2,7 -4,9 -2,2 -5,4 -8,4 -17,2 -34,3 -51,5 -4,0 -6,-1 -8,-3 -2,-2 -4,-5 -4,-8 0,-2 0,-4 0,-5 0,-4 1,-7 4,-9 1,-3 4,-4 8,-5z"/>
    <path class="fil1 str1" d="M-39 1146c17,2 34,4 52,6 3,0 6,1 8,4 2,2 3,6 3,9 0,2 0,3 0,5 0,3 -1,6 -3,9 -2,2 -5,3 -9,3 -17,-2 -34,-4 -51,-6 -3,-1 -6,-3 -8,-5 -2,-3 -4,-6 -4,-10 0,-1 0,-3 0,-4 0,-4 2,-7 4,-9 2,-2 5,-3 8,-2z"/>
    <path class="fil1 str1" d="M68 1155c17,2 34,2 51,3 3,0 6,2 9,5 1,2 3,5 3,9 0,1 0,3 0,5 0,3 -1,6 -3,9 -2,2 -6,3 -9,3 -17,-1 -34,-2 -51,-3 -4,0 -7,-2 -9,-4 -2,-3 -3,-6 -3,-10 0,-1 0,-3 0,-4 0,-4 2,-7 3,-9 3,-2 6,-4 9,-4z"/>
    <path class="fil1 str1" d="M175 1160c17,1 34,2 51,2 3,0 6,2 8,4 2,3 4,6 4,10 0,1 0,3 0,4 0,4 -2,7 -4,9 -2,3 -5,4 -8,4 -17,0 -34,-1 -51,-2 -4,0 -7,-1 -9,-4 -2,-2 -3,-6 -3,-9 0,-2 0,-3 0,-5 0,-3 1,-7 3,-9 2,-2 5,-4 9,-4z"/>
    <path class="fil1 str1" d="M281 1163c18,1 35,1 52,1 3,0 6,2 8,4 2,3 4,6 4,10 0,1 0,3 0,5 0,3 -2,6 -4,9 -2,2 -5,4 -8,4 -17,-1 -35,-1 -52,-1 -3,-1 -6,-2 -8,-4 -2,-3 -3,-6 -3,-10 0,-1 0,-3 0,-5 0,-3 1,-7 3,-9 2,-2 5,-4 8,-4z"/>
    <path class="fil1 str1" d="M388 1165c17,0 35,0 52,1 3,0 6,1 8,4 2,2 4,5 4,9 0,2 0,3 0,5 0,4 -2,7 -4,9 -2,2 -5,4 -8,4 -17,0 -35,0 -52,-1 -3,0 -6,-1 -8,-4 -2,-2 -3,-5 -3,-9 0,-2 0,-3 0,-5 0,-3 1,-7 3,-9 2,-2 5,-4 8,-4z"/>
    <path class="fil1 str1" d="M495 1166c17,0 34,0 52,0 3,0 6,2 8,4 2,3 3,6 3,10 1,1 0,3 0,4 0,4 -1,7 -3,10 -2,2 -5,4 -8,4 -18,0 -35,-1 -52,-1 -3,0 -6,-1 -8,-4 -2,-2 -4,-5 -4,-9 0,-2 0,-3 0,-5 0,-3 2,-7 4,-9 2,-3 5,-4 8,-4z"/>
    <path class="fil1 str1" d="M602 1166c17,0 34,0 52,0 3,0 6,2 8,4 2,2 3,6 3,9 0,2 0,4 0,5 0,4 -1,7 -3,10 -2,2 -5,3 -8,4 -18,0 -35,0 -52,0 -3,0 -6,-2 -8,-4 -2,-3 -4,-6 -4,-10 0,-1 0,-3 0,-4 0,-4 2,-7 4,-10 2,-2 5,-4 8,-4z"/>
    <path class="fil1 str1" d="M709 1166c17,0 34,0 51,-1 3,0 6,2 8,4 2,3 4,6 4,10 0,1 0,3 0,4 0,4 -1,7 -3,10 -2,2 -5,4 -9,4 -17,0 -34,0 -51,0 -3,0 -7,-1 -9,-3 -2,-3 -3,-6 -3,-10 0,-1 0,-3 0,-5 0,-3 1,-7 3,-9 3,-2 6,-4 9,-4z"/>
    <path class="fil1 str1" d="M816 1164c17,0 34,-1 51,-2 3,0 6,2 8,4 2,2 4,6 4,9 0,2 0,3 0,5 0,4 -2,7 -4,9 -2,3 -5,4 -8,5 -17,0 -34,1 -51,2 -3,0 -7,-2 -9,-4 -2,-2 -3,-6 -3,-9 0,-2 0,-4 0,-5 0,-4 1,-7 3,-9 2,-3 5,-5 9,-5z"/>
    <path class="fil1 str1" d="M923 1159c16,-1 34,-2 51,-3 3,-1 6,1 8,3 2,2 4,5 4,9 0,1 0,3 0,4 0,4 -2,7 -4,10 -2,2 -5,4 -8,4 -17,2 -34,3 -51,4 -4,0 -7,-1 -9,-3 -2,-2 -3,-5 -3,-9 0,-2 0,-3 0,-5 0,-3 1,-7 3,-9 2,-3 5,-5 9,-5z"/>
    <path class="fil1 str1" d="M1029 1151c17,-1 35,-2 52,-3 3,-1 6,1 8,3 2,2 4,5 4,9 0,1 0,2 0,4 0,4 -2,7 -4,9 -2,2 -5,4 -8,4 -17,2 -34,3 -52,5 -3,0 -6,-1 -8,-3 -2,-2 -3,-6 -3,-9 0,-2 0,-3 0,-5 0,-3 1,-7 3,-9 2,-3 5,-4 8,-5z"/>
    <path class="fil3 str1" d="M209 1127c13,0 26,1 39,1 0,12 0,23 0,35 -13,-1 -26,-1 -39,-1 0,-12 0,-23 0,-35z"/>
    <path class="fil1 str1" d="M-38 1020c17,2 34,3 51,4 3,0 6,2 8,4 2,3 4,6 4,9 0,2 0,3 0,5 0,4 -2,7 -4,9 -2,2 -5,3 -8,3 -17,-1 -35,-2 -52,-4 -3,-1 -6,-2 -8,-5 -2,-2 -3,-6 -3,-9 0,-1 0,-3 0,-4 0,-4 1,-7 3,-9 2,-2 5,-3 9,-3z"/>
    <path class="fil1 str1" d="M68 1027c17,0 34,1 52,1 3,1 6,2 8,4 2,3 3,6 3,10 0,1 0,3 0,5 0,3 -1,6 -3,9 -2,2 -5,3 -8,3 -18,0 -35,-1 -52,-2 -3,0 -6,-2 -8,-4 -2,-2 -4,-6 -4,-9 0,-2 0,-3 0,-5 0,-3 2,-7 4,-9 2,-2 5,-3 8,-3z"/>
    <path class="fil1 str1" d="M175 1030c17,0 34,0 52,1 3,0 6,1 8,4 2,2 3,6 3,9 0,2 0,3 0,5 0,4 -1,7 -3,9 -2,2 -5,4 -9,4 -17,0 -34,-1 -51,-1 -3,0 -6,-2 -8,-4 -2,-3 -4,-6 -4,-10 0,-1 0,-3 0,-4 0,-4 2,-7 4,-9 1,-3 5,-4 8,-4z"/>
    <path class="fil1 str1" d="M282 1032c17,0 34,0 51,0 3,0 7,2 8,4 3,3 4,6 4,10 0,1 0,3 0,4 0,4 -2,7 -4,10 -2,2 -5,4 -8,4 -17,-1 -34,-1 -51,-1 -4,0 -7,-2 -9,-4 -2,-3 -3,-6 -3,-10 0,-1 0,-3 0,-4 0,-4 1,-7 3,-10 2,-2 5,-3 9,-3z"/>
    <path class="fil1 str1" d="M389 1033c17,0 34,0 51,0 3,0 6,2 8,4 2,2 4,6 4,9 0,2 0,4 0,5 0,4 -2,7 -4,10 -2,2 -5,3 -8,3 -17,0 -34,0 -51,0 -4,0 -7,-1 -9,-4 -2,-2 -3,-6 -3,-9 0,-2 0,-4 0,-5 0,-4 1,-7 3,-9 2,-3 5,-4 9,-4z"/>
    <path class="fil1 str1" d="M495 1033c17,0 35,0 52,0 3,0 6,2 8,4 2,3 3,6 3,10 0,1 0,3 0,5 0,3 -1,7 -3,9 -2,2 -5,4 -8,4 -17,0 -35,0 -52,0 -3,0 -6,-2 -8,-4 -2,-3 -3,-6 -3,-10 0,-1 0,-3 0,-4 0,-4 1,-7 3,-10 2,-2 5,-4 8,-4z"/>
    <path class="fil1 str1" d="M602 1034c17,0 34,0 52,-1 3,0 6,2 8,4 2,3 3,6 3,10 0,1 0,3 0,4 0,4 -1,7 -3,10 -2,2 -5,4 -8,4 -18,0 -35,0 -52,0 -3,0 -6,-2 -8,-4 -2,-2 -4,-6 -4,-9 0,-2 0,-4 0,-5 0,-4 2,-7 4,-10 2,-2 5,-3 8,-3z"/>
    <path class="fil1 str1" d="M709 1033c17,0 34,0 51,0 3,0 7,1 8,4 3,2 4,5 4,9 0,2 0,3 0,5 0,3 -1,7 -4,9 -2,3 -5,4 -8,4 -17,0 -34,1 -51,1 -3,0 -7,-2 -9,-4 -2,-2 -3,-6 -3,-10 0,-1 0,-3 0,-4 0,-4 1,-7 3,-10 2,-2 5,-4 9,-4z"/>
    <path class="fil1 str1" d="M815 1032c18,0 35,-1 52,-1 3,-1 6,1 8,3 2,3 4,6 4,9 0,2 0,4 0,5 0,4 -2,7 -4,10 -2,2 -5,4 -8,4 -17,0 -34,1 -51,1 -4,0 -7,-1 -9,-3 -2,-3 -3,-6 -3,-10 0,-1 0,-3 0,-4 0,-4 1,-7 3,-10 2,-2 5,-4 8,-4z"/>
    <path class="fil1 str1" d="M922 1028c17,0 35,-1 52,-2 3,0 6,1 8,3 2,3 4,6 4,9 0,2 0,3 0,5 0,3 -2,7 -4,9 -2,3 -5,4 -8,5 -17,0 -35,1 -52,2 -3,0 -6,-1 -8,-3 -2,-2 -3,-6 -3,-9 0,-2 0,-3 0,-5 0,-4 1,-7 3,-9 2,-3 5,-4 8,-5z"/>
    <path class="fil1 str1" d="M1029 1023c17,0 34,-1 52,-1 3,0 6,2 8,4 2,2 3,5 3,9 0,1 0,3 0,4 0,4 -1,7 -3,9 -2,2 -5,4 -8,4 -17,0 -35,1 -52,2 -3,0 -6,-1 -8,-4 -2,-2 -3,-5 -4,-9 0,-1 0,-3 0,-4 0,-4 2,-7 4,-9 2,-3 5,-4 8,-5z"/>
    <path class="fil1 str1" d="M15 1088c17,1 34,2 51,3 3,0 6,2 8,4 2,3 3,6 3,9 0,2 0,3 0,5 0,4 -1,7 -3,9 -2,2 -5,3 -8,3 -17,-1 -35,-2 -52,-3 -3,0 -6,-2 -8,-4 -2,-3 -3,-6 -3,-10 0,-1 0,-3 0,-4 0,-4 1,-7 3,-9 2,-2 5,-3 9,-3z"/>
    <path class="fil1 str1" d="M121 1093c17,1 35,2 52,2 3,0 6,2 8,4 2,3 3,6 3,10 0,1 0,3 0,4 0,4 -1,7 -3,9 -2,3 -5,4 -8,4 -18,-1 -35,-1 -52,-2 -3,0 -6,-2 -8,-4 -2,-2 -4,-6 -4,-9 0,-2 0,-3 0,-5 0,-4 2,-7 4,-9 2,-2 5,-4 8,-4z"/>
    <path class="fil1 str1" d="M228 1097c17,0 34,0 51,1 4,0 7,1 9,3 2,3 3,6 3,10 0,1 0,3 0,5 0,3 -1,7 -3,9 -2,2 -6,4 -9,4 -17,-1 -34,-1 -51,-2 -3,0 -6,-1 -8,-4 -2,-2 -4,-5 -4,-9 0,-2 0,-3 0,-5 0,-3 2,-6 4,-9 2,-2 5,-3 8,-3z"/>
    <path class="fil1 str1" d="M335 1098c17,1 34,1 51,1 4,0 6,1 9,4 1,2 3,6 3,9 0,2 0,3 0,5 0,4 -1,7 -3,9 -3,3 -6,4 -9,4 -17,0 -34,0 -51,0 -4,-1 -7,-2 -9,-4 -2,-3 -3,-6 -3,-10 0,-1 0,-3 0,-5 0,-3 1,-6 3,-9 2,-2 6,-4 9,-4z"/>
    <path class="fil1 str1" d="M442 1099c17,0 34,1 51,1 3,0 6,1 8,4 2,2 4,5 4,9 0,2 0,3 0,5 0,4 -2,7 -4,9 -2,2 -5,4 -8,4 -17,0 -34,0 -51,0 -4,0 -7,-2 -9,-4 -2,-3 -3,-6 -3,-10 0,-1 0,-3 0,-5 0,-3 1,-6 3,-9 2,-2 5,-4 9,-4z"/>
    <path class="fil1 str1" d="M548 1100c17,0 35,0 52,0 3,0 6,1 8,4 2,2 4,6 4,9 0,2 0,3 0,5 0,4 -2,7 -4,9 -2,3 -5,4 -8,4 -17,0 -35,0 -52,0 -3,0 -6,-1 -8,-4 -2,-2 -3,-5 -3,-9 0,-2 0,-3 0,-5 0,-4 1,-7 3,-9 2,-3 5,-4 8,-4z"/>
    <path class="fil1 str1" d="M655 1100c17,0 34,0 52,0 3,0 6,1 8,4 2,2 3,5 3,9 0,2 0,3 0,5 0,3 -1,7 -3,9 -2,3 -5,4 -8,4 -18,0 -35,0 -52,0 -3,0 -6,-1 -8,-4 -2,-2 -4,-5 -4,-9 0,-2 0,-3 0,-5 0,-4 2,-7 4,-9 2,-3 5,-4 8,-4z"/>
    <path class="fil1 str1" d="M762 1099c17,0 34,0 52,-1 3,0 6,2 8,4 2,2 3,5 3,9 0,2 0,3 0,5 0,4 -1,7 -3,9 -2,3 -5,4 -9,4 -17,1 -34,1 -51,1 -3,1 -6,-1 -8,-3 -2,-3 -4,-6 -4,-10 0,-1 0,-3 0,-5 0,-3 2,-6 4,-9 2,-2 5,-4 8,-4z"/>
    <path class="fil1 str1" d="M869 1096c17,0 34,-1 51,-2 3,0 7,1 9,3 2,3 3,6 3,9 0,2 0,4 0,5 0,4 -1,7 -3,10 -2,2 -6,4 -9,4 -17,1 -34,2 -51,2 -3,1 -7,-1 -9,-3 -2,-2 -3,-5 -3,-9 0,-2 0,-3 0,-5 0,-4 1,-7 3,-9 2,-3 6,-4 9,-5z"/>
    <path class="fil1 str1" d="M976 1091c17,-1 34,-2 51,-3 3,-1 6,1 8,3 2,2 4,5 4,9 0,1 0,3 0,4 0,4 -2,7 -4,9 -2,3 -5,5 -8,5 -17,1 -34,2 -51,3 -4,0 -7,-1 -9,-3 -2,-2 -3,-5 -3,-9 0,-1 0,-3 0,-5 0,-3 1,-6 3,-9 2,-2 5,-4 9,-4z"/>
    <path class="fil1 str1" d="M1082 1085c18,-1 35,-1 52,-1 3,0 6,2 8,4 2,2 4,5 4,8 0,2 0,3 0,5 0,3 -2,6 -4,8 -2,3 -5,4 -8,4 -17,0 -34,1 -52,1 -3,1 -6,-1 -8,-3 -2,-2 -3,-5 -3,-8 0,-2 0,-4 0,-5 0,-4 1,-7 3,-9 2,-2 5,-4 8,-4z"/>
    <path class="fil1 str1" d="M15 961c17,0 34,1 51,1 3,0 7,2 9,4 1,3 3,6 3,9 0,2 0,3 0,5 0,4 -2,7 -4,9 -2,2 -5,4 -8,4 -17,-1 -34,-2 -51,-3 -4,0 -7,-1 -9,-4 -2,-2 -3,-5 -3,-9 0,-2 0,-3 0,-5 0,-3 2,-6 3,-8 3,-2 5,-4 9,-3z"/>
    <path class="fil1 str1" d="M121 964c18,0 35,0 52,1 3,0 6,1 8,4 2,2 4,5 4,9 -1,2 0,3 0,5 0,3 -2,7 -4,9 -2,2 -5,3 -8,3 -17,0 -34,0 -52,-1 -3,0 -6,-1 -8,-4 -2,-2 -3,-5 -3,-9 0,-1 0,-3 0,-5 0,-3 1,-6 3,-9 2,-2 5,-3 8,-3z"/>
    <path class="fil1 str1" d="M228 965c17,1 34,1 52,1 3,0 6,1 8,4 2,2 3,5 3,9 0,2 0,3 0,5 0,4 -1,7 -3,9 -2,3 -5,4 -8,4 -18,0 -35,0 -52,-1 -3,0 -6,-1 -8,-4 -2,-2 -4,-5 -4,-9 0,-2 0,-3 0,-5 1,-3 2,-7 4,-9 2,-2 5,-4 8,-4z"/>
    <path class="fil1 str1" d="M335 966c17,0 34,1 52,1 3,0 6,1 8,4 2,2 3,5 3,9 0,1 0,3 0,5 0,3 -1,7 -3,9 -2,2 -5,4 -9,4 -17,0 -34,0 -51,-1 -3,0 -6,-1 -9,-3 -1,-3 -3,-6 -3,-10 0,-1 0,-3 0,-5 0,-3 2,-6 4,-9 2,-2 5,-4 8,-4z"/>
    <path class="fil1 str1" d="M442 967c17,0 34,0 51,0 3,0 6,1 8,4 2,2 4,6 4,9 0,2 0,4 0,5 0,4 -2,7 -4,9 -2,3 -5,4 -8,4 -17,0 -34,0 -51,0 -4,0 -7,-1 -9,-4 -2,-2 -3,-6 -3,-9 0,-2 0,-3 0,-5 0,-4 1,-7 3,-9 2,-3 5,-4 9,-4z"/>
    <path class="fil1 str1" d="M548 967c17,0 35,0 52,0 3,0 6,2 8,4 2,2 4,6 4,9 0,2 0,4 0,5 0,4 -2,7 -4,10 -2,2 -5,4 -8,4 -17,0 -35,-1 -52,-1 -3,0 -6,-1 -8,-4 -2,-2 -3,-5 -3,-9 0,-1 0,-3 0,-5 0,-3 1,-7 3,-9 2,-2 5,-4 8,-4z"/>
    <path class="fil1 str1" d="M655 967c17,0 34,0 52,0 3,0 6,1 8,4 2,2 3,6 3,9 0,2 0,3 0,5 0,4 -1,7 -3,9 -2,3 -5,4 -8,4 -18,0 -35,0 -52,0 -3,0 -6,-1 -8,-4 -2,-2 -4,-5 -4,-9 0,-1 0,-3 0,-5 0,-3 2,-7 4,-9 2,-2 5,-4 8,-4z"/>
    <path class="fil1 str1" d="M762 967c17,-1 34,-1 51,-1 3,0 7,1 9,4 1,2 3,5 3,9 0,2 0,3 0,5 0,3 -2,7 -3,9 -2,3 -6,4 -9,4 -17,0 -34,1 -51,1 -3,0 -7,-1 -8,-4 -2,-2 -4,-6 -4,-9 0,-2 0,-3 0,-5 0,-4 2,-7 4,-9 2,-3 4,-4 8,-4z"/>
    <path class="fil1 str1" d="M869 965c17,-1 34,-1 51,-2 3,0 6,1 8,4 2,2 4,5 4,9 0,1 0,3 0,5 0,3 -2,6 -4,9 -2,2 -5,4 -8,4 -17,1 -34,1 -51,2 -4,0 -7,-2 -9,-4 -2,-2 -3,-5 -3,-9 0,-2 0,-3 0,-5 0,-3 1,-7 3,-9 2,-3 5,-4 9,-4z"/>
    <path class="fil1 str1" d="M975 961c17,0 34,-1 52,-1 3,0 6,1 8,3 2,3 4,6 4,9 0,2 0,3 0,5 0,3 -2,7 -4,9 -2,2 -5,4 -8,4 -17,0 -35,1 -52,2 -3,0 -6,-2 -8,-4 -2,-2 -3,-5 -3,-9 0,-1 0,-3 0,-5 0,-3 1,-7 3,-9 2,-2 5,-4 8,-4z"/>
    <path class="fil1 str1" d="M1082 959c17,1 34,2 52,3 3,0 6,2 8,4 2,3 3,6 3,9 0,2 0,3 0,5 0,3 -1,6 -3,8 -2,2 -5,3 -8,3 -18,-1 -35,-2 -52,-2 -3,0 -6,-1 -8,-4 -2,-2 -3,-5 -3,-8 0,-2 0,-4 0,-5 0,-4 1,-7 3,-9 2,-2 5,-4 8,-4z"/>
    <path class="fil1 str1" d="M-38 894c17,1 34,2 51,3 3,0 6,1 8,4 2,2 4,5 4,9 0,1 0,3 0,4 0,4 -2,7 -4,9 -2,3 -5,4 -8,4 -17,-1 -34,-2 -51,-3 -3,0 -7,-2 -9,-4 -2,-2 -3,-6 -3,-9 0,-2 0,-3 0,-5 0,-3 1,-6 3,-8 2,-3 6,-4 9,-4z"/>
    <path class="fil1 str1" d="M68 898c17,0 35,0 52,1 3,0 6,1 8,4 2,2 4,5 4,9 0,1 0,3 0,5 0,3 -2,6 -4,9 -2,2 -5,4 -8,3 -17,0 -35,0 -52,-1 -3,0 -6,-1 -8,-4 -2,-2 -3,-5 -3,-9 0,-1 0,-3 0,-4 0,-4 1,-7 3,-9 2,-3 5,-4 8,-4z"/>
    <path class="fil1 str1" d="M175 899c17,1 34,0 52,1 3,0 6,1 8,4 2,2 3,5 3,9 0,2 0,3 0,5 0,3 -1,7 -3,9 -2,2 -5,4 -8,4 -18,0 -35,0 -52,-1 -3,0 -6,-1 -8,-4 -2,-2 -3,-5 -3,-9 0,-1 0,-3 0,-5 0,-3 1,-7 3,-9 2,-2 5,-4 8,-4z"/>
    <path class="fil1 str1" d="M282 900c17,0 34,0 51,0 3,0 7,2 9,4 2,3 3,6 3,10 0,1 0,3 0,4 0,4 -1,7 -3,10 -2,2 -6,4 -9,4 -17,-1 -34,-1 -51,-1 -3,0 -6,-1 -8,-4 -2,-2 -4,-6 -4,-9 0,-2 0,-3 0,-5 0,-3 2,-7 4,-9 2,-3 5,-4 8,-4z"/>
    <path class="fil1 str1" d="M389 900c17,0 34,1 51,1 3,0 6,1 8,3 2,3 4,6 4,10 0,1 0,3 0,5 0,3 -2,7 -4,9 -2,2 -5,4 -8,4 -17,0 -34,0 -51,0 -4,0 -7,-2 -9,-4 -2,-3 -3,-6 -3,-10 0,-1 0,-3 0,-4 0,-4 1,-7 3,-10 2,-2 5,-4 9,-4z"/>
    <path class="fil1 str1" d="M495 901c17,0 35,0 52,0 3,0 6,1 8,4 2,2 3,6 3,9 0,2 0,3 0,5 0,4 -1,7 -3,9 -2,3 -5,4 -8,4 -17,0 -35,0 -52,0 -3,0 -6,-2 -8,-4 -2,-2 -3,-6 -3,-9 0,-2 0,-3 0,-5 0,-4 1,-7 3,-9 2,-3 5,-4 8,-4z"/>
    <path class="fil1 str1" d="M602 901c17,0 34,0 52,0 3,0 6,1 8,4 2,2 3,5 3,9 0,2 0,3 0,5 0,3 -1,7 -3,9 -2,3 -5,4 -8,4 -18,0 -35,0 -52,0 -3,0 -6,-1 -8,-4 -2,-2 -4,-5 -4,-9 0,-2 0,-3 0,-5 0,-3 2,-7 4,-9 2,-3 5,-4 8,-4z"/>
    <path class="fil1 str1" d="M709 901c17,0 34,0 51,-1 3,0 6,2 8,4 2,3 4,6 4,9 0,2 0,4 0,5 0,4 -2,7 -4,10 -2,2 -5,4 -8,4 -17,0 -34,0 -51,0 -4,0 -7,-1 -9,-4 -2,-2 -3,-6 -3,-9 0,-2 0,-3 0,-5 0,-4 1,-7 3,-9 2,-3 5,-4 9,-4z"/>
    <path class="fil1 str1" d="M815 900c18,-1 35,-1 52,-1 3,0 6,1 8,4 2,2 4,5 4,9 0,1 0,3 0,5 0,3 -2,7 -4,9 -2,2 -5,4 -8,4 -17,0 -34,1 -52,1 -3,0 -6,-1 -8,-4 -2,-2 -3,-6 -3,-9 0,-2 0,-3 0,-5 0,-3 1,-7 3,-9 2,-3 5,-4 8,-4z"/>
    <path class="fil1 str1" d="M922 898c17,-1 34,-1 52,-2 3,0 6,2 8,4 2,2 3,5 3,9 0,2 0,3 0,5 0,3 -1,7 -3,9 -2,2 -5,4 -8,4 -18,0 -35,1 -52,1 -3,1 -6,-1 -8,-3 -2,-2 -3,-6 -3,-9 0,-2 0,-3 0,-5 0,-3 1,-7 3,-9 2,-3 5,-4 8,-4z"/>
    <path class="fil1 str1" d="M1029 896c17,0 34,0 51,1 3,0 7,1 9,4 2,2 3,5 3,9 0,1 0,3 0,4 0,4 -1,7 -3,9 -2,2 -6,3 -9,3 -17,0 -34,0 -51,0 -3,0 -7,-1 -9,-4 -2,-2 -3,-5 -3,-9 0,-1 0,-3 0,-4 0,-4 1,-7 3,-9 2,-3 6,-4 9,-4z"/>
    <path class="fil1 str1" d="M-38 769c17,0 34,0 51,0 4,0 7,2 9,4 2,2 3,5 3,9 0,1 0,3 0,5 0,3 -1,6 -3,8 -2,3 -5,4 -9,4 -17,0 -34,0 -51,-1 -3,0 -6,-1 -8,-4 -2,-2 -4,-5 -4,-8 0,-2 0,-3 0,-5 0,-3 1,-6 4,-9 2,-2 5,-3 8,-3z"/>
    <path class="fil1 str1" d="M69 769c17,0 34,0 51,0 3,0 6,1 8,4 2,2 4,5 4,9 0,1 0,3 0,5 0,3 -2,6 -4,9 -2,2 -5,4 -8,4 -17,0 -34,-1 -51,-1 -4,0 -7,-1 -9,-3 -2,-3 -3,-6 -3,-9 0,-2 0,-3 0,-5 0,-4 1,-7 3,-9 2,-2 5,-4 9,-4z"/>
    <path class="fil1 str1" d="M175 769c17,0 35,0 52,0 3,0 6,1 8,3 2,3 3,6 3,10 0,1 0,3 0,5 0,3 -1,6 -3,9 -2,2 -5,3 -8,3 -17,0 -35,1 -52,0 -3,0 -6,-1 -8,-3 -2,-3 -3,-6 -3,-9 0,-2 0,-4 0,-5 0,-4 1,-7 3,-9 2,-3 5,-4 8,-4z"/>
    <path class="fil1 str1" d="M282 768c17,0 34,0 51,0 3,0 7,2 9,4 2,3 3,6 3,10 0,1 0,3 0,4 0,4 -1,7 -3,10 -2,2 -6,3 -9,3 -17,0 -34,0 -51,0 -3,0 -6,-1 -8,-3 -2,-3 -4,-6 -4,-10 0,-1 0,-3 0,-4 0,-4 2,-7 4,-10 2,-2 5,-4 8,-4z"/>
    <path class="fil1 str1" d="M389 768c17,0 34,0 51,0 3,0 6,2 8,4 2,2 4,6 4,10 0,1 0,3 0,4 0,4 -2,7 -4,9 -2,3 -5,4 -8,4 -17,0 -34,1 -51,0 -4,0 -7,-1 -9,-3 -2,-3 -3,-6 -3,-10 0,-1 0,-3 0,-4 0,-4 1,-7 3,-10 2,-2 5,-4 9,-4z"/>
    <path class="fil1 str1" d="M495 768c17,0 35,0 52,0 3,0 6,2 8,4 2,3 3,6 3,10 0,1 0,3 0,4 0,4 -1,7 -3,10 -2,2 -5,3 -8,3 -17,0 -35,0 -52,0 -3,0 -6,-1 -8,-4 -2,-2 -3,-5 -3,-9 0,-1 0,-3 0,-4 0,-4 1,-8 3,-10 2,-2 5,-4 8,-4z"/>
    <path class="fil1 str1" d="M602 768c17,0 34,0 51,0 4,0 7,2 9,4 2,2 3,6 3,9 0,2 0,4 0,5 0,4 -1,7 -3,9 -2,3 -5,4 -9,4 -17,0 -34,0 -51,0 -3,0 -6,-1 -8,-3 -2,-3 -4,-6 -4,-10 0,-1 0,-3 0,-4 0,-4 2,-7 4,-10 2,-2 5,-4 8,-4z"/>
    <path class="fil1 str1" d="M709 768c17,0 34,0 51,0 3,0 6,1 8,4 2,2 4,5 4,9 0,2 0,3 0,5 0,4 -2,7 -4,9 -2,3 -5,4 -8,4 -17,0 -34,0 -51,0 -4,0 -7,-1 -9,-4 -2,-2 -3,-5 -3,-9 0,-1 0,-3 0,-5 0,-3 1,-7 3,-9 2,-2 5,-4 9,-4z"/>
    <path class="fil1 str1" d="M815 768c17,-1 35,-1 52,-1 3,0 6,2 8,4 2,2 4,6 4,9 0,2 0,3 0,5 0,4 -2,7 -4,9 -2,3 -5,4 -8,4 -17,0 -35,1 -52,1 -3,0 -6,-2 -8,-4 -2,-2 -3,-6 -3,-9 0,-2 0,-4 0,-5 0,-4 1,-7 3,-9 2,-3 5,-4 8,-4z"/>
    <path class="fil1 str1" d="M922 767c17,0 34,0 51,0 4,0 7,1 9,3 2,3 3,6 3,10 0,1 0,3 0,4 0,4 -1,7 -3,9 -2,3 -5,4 -9,4 -17,0 -34,0 -51,0 -3,0 -6,-1 -8,-3 -2,-2 -4,-6 -4,-9 0,-2 0,-4 0,-5 0,-4 2,-7 4,-9 1,-3 5,-4 8,-4z"/>
    <path class="fil1 str1" d="M1029 768c17,1 34,2 51,3 3,0 6,2 8,5 2,2 4,5 4,9 0,1 0,3 0,4 0,4 -2,7 -4,9 -2,2 -5,3 -8,3 -17,-1 -34,-3 -51,-3 -4,0 -7,-2 -9,-4 -2,-2 -3,-6 -3,-9 0,-2 0,-3 0,-5 0,-3 1,-6 3,-9 2,-2 5,-3 9,-3z"/>
    <path class="fil1 str1" d="M15 833c17,0 34,0 51,0 4,1 7,2 9,4 2,3 3,6 3,9 0,2 0,4 0,5 0,4 -2,7 -3,9 -2,3 -6,4 -9,4 -17,0 -34,-1 -51,-1 -3,0 -6,-1 -8,-4 -2,-2 -4,-5 -4,-9 0,-2 0,-3 0,-5 0,-3 2,-6 4,-8 2,-3 5,-4 8,-4z"/>
    <path class="fil1 str1" d="M122 834c17,0 34,0 51,0 3,0 6,2 8,4 2,2 4,6 4,9 0,2 0,3 0,5 0,4 -2,7 -4,9 -2,3 -5,4 -8,4 -17,0 -34,0 -52,-1 -3,0 -6,-1 -8,-3 -2,-3 -3,-6 -3,-9 0,-2 0,-4 0,-5 0,-4 1,-7 3,-9 2,-3 5,-4 9,-4z"/>
    <path class="fil1 str1" d="M228 834c17,0 35,0 52,0 3,0 6,2 8,4 2,2 4,6 4,9 0,2 0,4 0,5 0,4 -2,7 -4,10 -2,2 -5,3 -8,3 -17,0 -35,0 -52,0 -3,0 -6,-1 -8,-4 -2,-2 -3,-5 -3,-9 0,-2 0,-3 0,-5 0,-3 1,-7 3,-9 2,-2 5,-4 8,-4z"/>
    <path class="fil1 str1" d="M335 834c17,0 34,0 52,0 3,0 6,2 8,4 2,3 3,6 3,9 0,2 0,4 0,5 0,4 -1,7 -3,10 -2,2 -5,4 -8,4 -18,0 -35,0 -52,-1 -3,0 -6,-1 -8,-3 -2,-3 -4,-6 -4,-10 0,-1 0,-3 0,-5 0,-3 2,-6 4,-9 2,-2 5,-4 8,-4z"/>
    <path class="fil1 str1" d="M442 834c17,0 34,0 51,1 3,0 6,1 8,3 2,3 4,6 4,10 0,1 0,3 0,5 0,3 -2,6 -4,9 -2,2 -5,4 -8,4 -17,0 -34,0 -51,0 -4,0 -7,-2 -9,-4 -2,-3 -3,-6 -3,-10 0,-1 0,-3 0,-4 0,-4 1,-7 3,-10 2,-2 5,-4 9,-4z"/>
    <path class="fil1 str1" d="M548 835c17,0 35,0 52,0 3,0 6,1 8,4 2,2 4,5 4,9 0,1 0,3 0,5 0,3 -2,6 -4,9 -2,2 -5,4 -8,4 -17,0 -35,0 -52,0 -3,0 -6,-2 -8,-4 -2,-3 -3,-6 -3,-9 0,-2 0,-4 0,-5 0,-4 1,-7 3,-10 2,-2 5,-4 8,-3z"/>
    <path class="fil1 str1" d="M655 835c17,0 34,0 51,0 4,0 7,1 9,3 2,3 3,6 3,10 0,1 0,3 0,5 0,3 -1,6 -3,9 -2,2 -5,4 -9,4 -17,0 -34,0 -51,0 -3,0 -6,-2 -8,-4 -2,-3 -4,-6 -4,-10 0,-1 0,-3 0,-4 0,-4 2,-7 4,-10 2,-2 5,-3 8,-3z"/>
    <path class="fil1 str1" d="M762 834c17,0 34,0 51,0 3,0 6,1 8,4 2,2 4,5 4,9 0,1 0,3 0,5 0,3 -2,7 -4,9 -2,2 -5,4 -8,4 -17,0 -34,0 -51,0 -4,0 -7,-1 -9,-3 -2,-3 -3,-6 -3,-10 0,-1 0,-3 0,-5 0,-3 2,-6 3,-9 2,-2 5,-4 9,-4z"/>
    <path class="fil1 str1" d="M868 833c17,0 35,0 52,-1 3,0 6,2 8,4 2,2 4,5 4,9 0,2 0,3 0,5 0,4 -2,7 -4,9 -2,3 -5,4 -8,4 -17,1 -34,1 -52,1 -3,0 -6,-1 -8,-4 -2,-2 -3,-5 -3,-9 0,-1 0,-3 0,-5 0,-3 1,-7 3,-9 2,-2 5,-4 8,-4z"/>
    <path class="fil1 str1" d="M975 832c17,0 34,-1 51,0 4,0 7,1 9,4 2,2 3,5 3,9 0,1 0,3 0,4 0,4 -1,7 -3,9 -2,3 -5,4 -8,4 -18,0 -35,0 -52,0 -3,0 -6,-1 -8,-4 -2,-2 -4,-5 -4,-9 0,-1 0,-3 0,-4 0,-4 2,-7 4,-10 2,-2 5,-3 8,-3z"/>
    <path class="fil1 str1" d="M1082 834c17,1 34,3 51,6 3,1 6,2 8,5 3,3 4,6 4,9 0,1 0,3 0,4 0,4 -1,7 -3,9 -2,2 -6,2 -9,2 -17,-3 -34,-4 -51,-5 -3,-1 -6,-2 -8,-5 -2,-2 -4,-5 -4,-9 0,-1 0,-3 0,-4 0,-4 2,-7 4,-9 2,-2 5,-3 8,-3z"/>
    <path class="fil1 str1" d="M15 706c17,-1 34,-1 52,-1 3,0 6,1 8,4 2,2 3,5 3,9 0,1 0,3 0,4 0,4 -1,7 -3,9 -2,3 -5,4 -9,4 -17,0 -34,0 -51,1 -3,0 -6,-2 -8,-4 -2,-2 -4,-6 -4,-9 0,-2 0,-3 0,-5 0,-3 2,-6 4,-9 2,-2 5,-3 8,-3z"/>
    <path class="fil1 str1" d="M122 704c17,0 34,0 51,0 3,0 6,1 8,3 2,3 4,6 4,10 0,1 0,3 0,4 0,4 -2,7 -4,10 -2,2 -5,3 -8,3 -17,0 -34,1 -51,1 -4,0 -7,-2 -9,-4 -2,-2 -3,-5 -3,-9 0,-2 0,-3 0,-5 0,-3 1,-6 3,-9 2,-2 5,-4 9,-4z"/>
    <path class="fil1 str1" d="M228 703c17,0 35,0 52,0 3,0 6,1 8,4 2,2 4,5 4,9 0,1 0,3 0,5 0,3 -2,6 -4,9 -2,2 -5,4 -8,4 -17,0 -35,0 -52,0 -3,0 -6,-1 -8,-4 -2,-2 -3,-5 -3,-9 0,-1 0,-3 0,-5 0,-3 1,-7 3,-9 2,-2 5,-4 8,-4z"/>
    <path class="fil1 str1" d="M335 702c17,0 34,0 52,0 3,0 6,2 8,4 2,2 3,6 3,9 0,2 0,3 0,5 0,4 -1,7 -3,9 -2,3 -5,4 -8,4 -18,0 -35,0 -52,1 -3,0 -6,-2 -8,-4 -2,-3 -4,-6 -4,-10 1,-1 0,-3 0,-4 0,-4 2,-7 4,-10 2,-2 5,-4 8,-4z"/>
    <path class="fil1 str1" d="M442 702c17,0 34,0 51,0 3,0 6,1 8,4 2,2 4,5 4,9 0,2 0,3 0,5 0,4 -2,7 -4,9 -2,3 -5,4 -8,4 -17,0 -34,0 -51,0 -4,0 -7,-1 -9,-4 -2,-2 -3,-5 -3,-9 0,-2 0,-3 0,-5 0,-3 1,-7 3,-9 2,-2 6,-4 9,-4z"/>
    <path class="fil1 str1" d="M548 702c17,0 35,0 52,0 3,0 6,1 8,4 2,2 4,5 4,9 0,2 0,3 0,5 0,4 -2,7 -4,9 -2,3 -5,4 -8,4 -17,0 -35,0 -52,0 -3,0 -6,-1 -8,-4 -2,-2 -3,-5 -3,-9 0,-2 0,-3 0,-5 0,-4 1,-7 3,-9 2,-3 5,-4 8,-4z"/>
    <path class="fil1 str1" d="M655 702c17,0 34,0 52,0 3,0 6,1 8,4 2,2 3,5 3,9 0,2 0,3 0,5 0,4 -1,7 -3,9 -2,3 -5,4 -9,4 -17,0 -34,0 -51,0 -3,0 -6,-1 -8,-4 -2,-2 -4,-5 -4,-9 0,-2 0,-3 0,-5 0,-4 2,-7 4,-9 2,-3 5,-4 8,-4z"/>
    <path class="fil1 str1" d="M762 702c17,0 34,0 51,0 3,0 6,1 8,3 2,3 4,6 4,10 0,1 0,3 0,4 0,4 -2,7 -4,10 -2,2 -5,4 -8,4 -17,0 -34,0 -51,0 -4,0 -7,-2 -9,-4 -2,-2 -3,-6 -3,-9 0,-2 0,-3 0,-5 0,-4 2,-7 3,-9 2,-3 5,-4 9,-4z"/>
    <path class="fil1 str1" d="M868 701c18,0 35,0 52,0 3,0 6,2 8,4 2,3 4,6 4,9 0,2 0,4 0,5 0,4 -2,7 -4,9 -2,3 -5,4 -8,4 -17,0 -35,0 -52,0 -3,0 -6,-1 -8,-3 -2,-3 -3,-6 -3,-10 0,-1 0,-3 0,-5 0,-3 1,-6 3,-9 2,-2 5,-4 8,-4z"/>
    <path class="fil1 str1" d="M975 702c17,0 34,1 51,2 4,0 7,2 9,4 2,2 3,6 3,9 0,2 0,3 0,5 0,3 -1,6 -3,9 -2,2 -5,3 -9,3 -17,-1 -34,-1 -51,-2 -3,0 -6,-1 -8,-3 -2,-3 -4,-6 -4,-10 0,-1 0,-3 0,-4 0,-4 2,-7 4,-9 2,-3 5,-4 8,-4z"/>
    <path class="fil1 str1" d="M1082 709c17,2 34,5 51,9 3,1 6,3 8,6 2,2 4,5 4,9 0,1 0,3 0,4 0,4 -2,6 -4,8 -2,2 -5,2 -8,2 -17,-4 -34,-7 -51,-9 -3,0 -6,-2 -8,-5 -2,-2 -4,-5 -4,-9 0,-1 0,-3 0,-4 0,-4 2,-7 4,-9 2,-2 5,-3 8,-2z"/>
    <path class="fil1 str1" d="M-38 643c17,0 35,-1 52,-1 3,0 6,1 8,3 2,3 3,6 3,9 0,2 0,3 0,5 0,3 -1,7 -3,9 -2,2 -5,4 -8,4 -18,0 -35,1 -52,1 -3,0 -6,-1 -8,-4 -2,-2 -3,-5 -3,-8 0,-2 0,-4 0,-5 0,-3 1,-7 3,-9 2,-2 5,-4 8,-4z"/>
    <path class="fil1 str1" d="M69 640c17,0 34,0 51,-1 3,0 7,2 9,4 1,2 3,5 3,9 0,2 0,3 0,5 0,3 -2,7 -3,9 -3,2 -6,4 -9,4 -17,0 -34,1 -51,1 -3,0 -7,-1 -9,-4 -2,-2 -3,-5 -3,-9 0,-1 0,-3 0,-5 0,-3 2,-6 4,-9 2,-2 5,-4 8,-4z"/>
    <path class="fil1 str1" d="M176 638c17,0 34,0 51,-1 3,0 6,2 8,4 2,3 4,6 4,9 0,2 0,4 0,5 0,4 -2,7 -4,10 -2,2 -5,3 -8,3 -17,1 -34,1 -51,1 -4,0 -7,-1 -9,-4 -2,-2 -3,-5 -3,-9 0,-1 0,-3 0,-4 0,-4 1,-7 3,-10 2,-2 5,-4 9,-4z"/>
    <path class="fil1 str1" d="M282 637c17,0 35,0 52,-1 3,0 6,2 8,4 2,3 3,6 3,9 0,2 0,4 0,5 0,4 -1,7 -3,10 -2,2 -5,3 -8,3 -18,1 -35,1 -52,1 -3,0 -6,-2 -8,-4 -2,-2 -3,-5 -3,-9 0,-2 0,-3 0,-5 0,-4 1,-7 3,-9 2,-3 5,-4 8,-4z"/>
    <path class="fil1 str1" d="M389 636c17,0 34,0 51,0 3,0 7,1 9,4 2,2 3,5 3,9 0,2 0,3 0,5 0,3 -2,7 -4,9 -2,2 -5,4 -8,4 -17,0 -34,0 -51,0 -4,0 -7,-1 -9,-4 -2,-2 -3,-5 -3,-9 0,-2 0,-3 0,-5 0,-3 1,-7 4,-9 2,-2 5,-4 8,-4z"/>
    <path class="fil1 str1" d="M495 636c18,0 35,0 52,0 3,0 6,1 8,3 2,3 4,6 4,10 0,1 0,3 0,5 0,3 -2,7 -4,9 -2,2 -5,4 -8,4 -17,0 -35,0 -52,0 -3,0 -6,-2 -8,-4 -2,-2 -3,-6 -3,-9 0,-2 0,-3 0,-5 0,-4 1,-7 3,-10 2,-2 5,-3 8,-3z"/>
    <path class="fil1 str1" d="M602 636c17,0 34,-1 52,-1 3,0 6,2 8,4 2,3 3,6 3,10 0,1 0,3 0,4 0,4 -1,7 -3,10 -2,2 -5,4 -8,4 -18,0 -35,0 -52,0 -3,0 -6,-2 -8,-4 -2,-2 -4,-6 -4,-9 0,-2 0,-4 0,-5 0,-4 2,-7 4,-10 2,-2 5,-3 8,-3z"/>
    <path class="fil1 str1" d="M709 635c17,0 34,0 51,0 3,0 6,2 8,4 2,3 4,6 4,9 0,2 0,4 0,5 0,4 -2,7 -4,10 -2,2 -5,4 -8,4 -17,0 -34,0 -51,0 -4,0 -7,-2 -9,-4 -2,-2 -3,-6 -3,-9 0,-2 0,-4 0,-5 0,-4 1,-7 3,-10 2,-2 6,-4 9,-4z"/>
    <path class="fil1 str1" d="M815 635c17,0 35,0 52,0 3,0 6,2 8,4 2,3 4,6 4,10 0,1 0,3 0,4 0,4 -2,7 -4,10 -2,2 -5,4 -8,4 -17,0 -35,-1 -52,0 -3,0 -6,-2 -8,-4 -2,-3 -3,-6 -3,-10 0,-1 0,-3 0,-5 0,-3 1,-6 3,-9 2,-2 5,-4 8,-4z"/>
    <path class="fil1 str1" d="M922 636c17,0 34,0 52,1 3,0 6,2 8,4 2,3 3,6 3,9 0,2 0,3 0,5 0,4 -1,7 -3,9 -2,2 -5,4 -9,4 -17,-1 -34,-1 -51,-1 -3,0 -6,-2 -8,-4 -2,-3 -4,-6 -4,-9 0,-2 0,-4 0,-5 0,-4 2,-7 4,-9 2,-3 5,-4 8,-4z"/>
    <path class="fil1 str1" d="M1029 640c17,1 34,3 51,6 3,0 6,2 8,5 2,2 4,6 4,9 0,1 0,3 0,5 0,3 -2,6 -4,8 -2,2 -5,3 -8,2 -17,-2 -34,-4 -51,-5 -4,0 -7,-2 -9,-4 -2,-3 -3,-6 -3,-9 0,-2 0,-4 0,-5 0,-4 1,-7 3,-9 2,-2 5,-3 9,-3z"/>
    <path class="fil1 str1" d="M-36 517c17,-1 35,-1 52,-2 3,-1 6,0 8,3 2,2 3,5 3,8 0,2 0,4 0,5 0,4 -2,7 -4,9 -2,3 -5,4 -8,5 -17,0 -34,1 -51,2 -4,0 -7,-1 -9,-3 -2,-2 -3,-5 -3,-9 0,-1 0,-3 0,-4 0,-4 2,-7 4,-9 2,-3 5,-4 8,-5z"/>
    <path class="fil1 str1" d="M71 512c17,-1 34,-2 51,-2 3,0 6,1 8,3 2,2 4,6 4,9 -1,2 0,3 0,5 -1,3 -2,7 -4,9 -2,3 -5,4 -8,4 -18,1 -35,1 -52,2 -3,0 -6,-1 -8,-3 -2,-3 -3,-6 -3,-9 0,-2 0,-3 0,-5 0,-3 1,-7 3,-9 2,-3 6,-4 9,-4z"/>
    <path class="fil1 str1" d="M177 508c17,-1 34,-1 52,-2 3,0 6,2 8,4 2,2 3,5 3,9 0,2 0,3 0,5 0,3 -2,7 -4,9 -2,3 -5,4 -8,4 -17,1 -34,1 -51,2 -4,0 -7,-2 -9,-4 -1,-2 -3,-6 -3,-9 0,-2 0,-3 0,-5 0,-3 2,-7 4,-9 2,-3 5,-4 8,-4z"/>
    <path class="fil1 str1" d="M284 505c17,0 34,0 51,-1 3,0 6,2 8,4 2,3 4,6 3,9 0,2 1,4 0,5 0,4 -1,7 -3,9 -2,3 -5,4 -8,4 -18,1 -35,1 -52,1 -3,0 -6,-1 -8,-3 -2,-3 -3,-6 -3,-10 0,-1 0,-3 0,-5 0,-3 1,-6 3,-9 2,-2 5,-4 9,-4z"/>
    <path class="fil1 str1" d="M390 504c17,-1 34,-1 52,-1 3,0 6,2 8,4 2,2 3,6 3,9 0,2 0,3 0,5 0,4 -2,7 -4,10 -2,2 -5,3 -8,3 -17,1 -34,1 -51,1 -3,0 -6,-1 -8,-4 -2,-2 -4,-6 -4,-9 0,-2 0,-3 0,-5 0,-4 2,-7 4,-9 2,-3 5,-4 8,-4z"/>
    <path class="fil1 str1" d="M497 503c17,0 34,0 51,0 3,0 6,1 8,4 2,2 3,5 3,9 0,2 1,3 0,5 0,4 -1,7 -3,9 -2,3 -5,4 -8,4 -17,0 -35,0 -52,0 -3,0 -6,-1 -8,-4 -2,-2 -3,-5 -3,-9 0,-2 0,-3 0,-5 0,-3 1,-7 3,-9 2,-3 5,-4 9,-4z"/>
    <path class="fil1 str1" d="M603 503c17,0 34,0 52,0 3,0 6,1 8,4 2,2 3,5 3,9 0,2 0,3 0,5 0,3 -2,7 -4,9 -2,2 -5,4 -8,4 -17,0 -34,0 -51,0 -3,0 -7,-1 -8,-4 -2,-2 -4,-5 -4,-9 0,-2 0,-3 0,-5 0,-4 2,-7 4,-9 2,-3 5,-4 8,-4z"/>
    <path class="fil1 str1" d="M710 503c17,0 34,0 51,0 3,0 6,1 8,4 2,2 4,5 4,9 0,2 0,3 0,5 0,4 -2,7 -4,9 -2,3 -5,4 -8,4 -17,0 -35,0 -52,0 -3,0 -6,-1 -8,-4 -2,-2 -3,-5 -3,-9 0,-2 0,-3 0,-5 0,-4 1,-7 3,-9 2,-3 5,-4 9,-4z"/>
    <path class="fil1 str1" d="M816 503c17,0 34,0 52,1 3,0 6,1 8,4 2,2 3,5 3,9 0,2 0,3 0,5 0,3 -1,7 -3,9 -3,2 -6,4 -9,4 -17,-1 -34,-1 -51,-1 -3,0 -7,-1 -9,-4 -1,-2 -3,-5 -3,-9 0,-2 0,-3 0,-5 0,-4 2,-7 4,-9 2,-3 5,-4 8,-4z"/>
    <path class="fil1 str1" d="M923 505c17,1 34,1 51,2 3,0 6,2 8,5 2,2 4,5 4,9 0,1 0,3 0,5 0,3 -2,6 -4,8 -2,3 -5,4 -8,4 -17,-1 -35,-2 -52,-2 -3,0 -6,-2 -8,-4 -2,-3 -3,-6 -3,-10 0,-1 0,-3 0,-4 0,-4 1,-7 3,-10 2,-2 5,-3 9,-3z"/>
    <path class="fil1 str1" d="M1029 512c17,2 34,5 52,8 3,1 6,3 8,6 2,2 3,6 3,9 0,2 0,3 0,5 0,3 -2,6 -3,8 -3,2 -6,2 -9,2 -17,-3 -34,-6 -51,-8 -3,0 -6,-2 -8,-4 -2,-3 -4,-6 -4,-10 0,-1 0,-3 0,-5 0,-3 2,-6 4,-8 2,-2 5,-3 8,-3z"/>
    <path class="fil1 str1" d="M16 578c17,-1 34,-1 52,-2 3,0 6,1 8,4 2,2 3,5 3,9 0,1 0,3 0,4 0,4 -1,7 -3,9 -2,3 -6,4 -9,4 -17,1 -34,2 -51,2 -4,0 -7,-1 -8,-3 -2,-3 -4,-6 -4,-9 0,-2 0,-3 0,-5 0,-3 2,-6 4,-9 2,-2 5,-4 8,-4z"/>
    <path class="fil1 str1" d="M123 574c17,0 34,-1 51,-1 3,0 6,2 8,4 2,2 4,5 4,9 0,1 0,3 0,5 0,3 -2,7 -4,9 -2,2 -5,4 -8,4 -17,0 -35,1 -52,1 -3,0 -6,-1 -8,-3 -2,-3 -3,-6 -3,-10 0,-1 0,-3 0,-4 0,-4 1,-7 3,-9 2,-3 5,-5 9,-5z"/>
    <path class="fil1 str1" d="M229 572c17,-1 34,-1 52,-1 3,0 6,1 8,4 2,2 3,5 3,9 0,2 0,3 0,5 0,3 -1,7 -3,9 -2,3 -6,4 -9,4 -17,1 -34,1 -51,1 -3,0 -6,-2 -8,-4 -2,-2 -4,-5 -4,-9 0,-2 0,-3 0,-5 0,-3 2,-7 4,-9 2,-2 5,-4 8,-4z"/>
    <path class="fil1 str1" d="M336 570c17,0 34,0 51,0 3,0 6,1 8,4 2,2 4,5 4,9 0,1 0,3 0,5 0,3 -2,7 -4,9 -2,3 -5,4 -8,4 -17,0 -34,0 -51,1 -4,0 -7,-2 -9,-4 -2,-3 -3,-6 -3,-10 0,-1 0,-3 0,-4 0,-4 2,-7 3,-10 2,-2 5,-4 9,-4z"/>
    <path class="fil1 str1" d="M442 569c17,0 35,0 52,0 3,0 6,2 8,4 2,3 3,6 3,10 0,1 0,3 0,4 0,4 -1,7 -3,10 -2,2 -5,4 -8,4 -18,0 -35,0 -52,0 -3,0 -6,-2 -8,-4 -2,-3 -3,-6 -3,-10 0,-1 0,-3 0,-4 0,-4 1,-7 3,-10 2,-2 5,-4 8,-4z"/>
    <path class="fil1 str1" d="M549 569c17,0 34,0 51,0 4,0 6,2 9,4 1,2 3,6 3,9 0,2 0,4 0,5 0,4 -2,7 -4,10 -2,2 -5,3 -8,3 -17,0 -34,0 -51,0 -4,0 -7,-1 -9,-3 -2,-3 -3,-6 -3,-10 0,-1 0,-3 0,-5 0,-3 2,-7 4,-9 2,-2 5,-4 8,-4z"/>
    <path class="fil1 str1" d="M656 569c16,0 34,0 51,0 3,0 6,2 8,4 2,2 4,6 4,9 0,2 0,4 0,5 0,4 -2,7 -4,9 -2,3 -5,4 -8,4 -17,0 -35,0 -52,0 -3,0 -6,-1 -8,-4 -2,-2 -3,-5 -3,-9 0,-1 0,-3 0,-5 0,-3 1,-7 3,-9 2,-2 5,-4 9,-4z"/>
    <path class="fil1 str1" d="M762 569c17,0 34,0 51,0 4,0 7,2 9,4 2,3 3,6 3,9 0,2 0,4 0,5 0,4 -1,7 -3,10 -2,2 -6,3 -9,3 -17,0 -34,0 -51,0 -3,0 -6,-1 -8,-3 -2,-3 -4,-6 -4,-10 0,-1 0,-3 0,-5 0,-3 2,-7 4,-9 2,-2 5,-4 8,-4z"/>
    <path class="fil1 str1" d="M869 569c17,1 34,1 51,1 3,0 6,2 8,4 2,3 4,6 4,10 0,1 0,3 0,4 0,4 -2,7 -4,10 -2,2 -5,3 -8,3 -17,0 -34,0 -51,0 -4,0 -7,-2 -9,-4 -2,-3 -3,-6 -3,-10 0,-1 0,-3 0,-4 0,-4 1,-7 3,-10 2,-2 5,-4 9,-4z"/>
    <path class="fil1 str1" d="M975 572c17,1 34,2 52,4 3,0 6,2 8,4 2,3 3,6 3,10 0,1 0,3 0,4 0,4 -1,7 -3,9 -2,2 -5,3 -8,3 -18,-1 -35,-2 -52,-3 -3,0 -6,-2 -8,-4 -2,-3 -4,-6 -3,-10 0,-1 0,-3 0,-4 0,-4 1,-7 3,-9 2,-3 5,-4 8,-4z"/>
    <path class="fil1 str1" d="M1082 583c17,3 34,8 51,13 3,1 6,3 8,6 2,3 4,6 4,10 0,1 0,2 0,4 0,3 -2,6 -4,8 -2,1 -5,1 -8,1 -17,-5 -34,-9 -51,-12 -3,-1 -6,-3 -8,-5 -2,-3 -4,-6 -4,-10 0,-1 0,-3 0,-4 0,-4 2,-7 4,-9 2,-2 5,-3 8,-2z"/>
    <path class="fil1 str1" d="M19 451c16,-2 34,-3 51,-4 3,0 6,1 8,4 2,2 3,5 3,9 0,1 0,3 0,4 0,4 -2,7 -4,10 -1,2 -5,4 -8,4 -17,1 -34,2 -51,3 -3,0 -6,-1 -8,-3 -2,-3 -4,-6 -3,-9 0,-2 0,-3 0,-5 0,-3 1,-7 3,-9 2,-2 5,-4 9,-4z"/>
    <path class="fil1 str1" d="M125 445c17,-1 34,-2 51,-3 3,0 6,2 8,4 2,2 4,6 4,9 0,2 0,3 0,5 0,4 -2,7 -4,9 -2,3 -5,4 -8,4 -17,1 -35,2 -52,2 -3,0 -6,-1 -8,-3 -2,-2 -3,-6 -3,-9 0,-2 0,-3 0,-5 0,-3 1,-7 3,-9 2,-3 6,-4 9,-4z"/>
    <path class="fil1 str1" d="M231 441c17,-1 35,-1 52,-2 3,0 6,2 8,4 2,2 3,6 3,9 0,2 0,4 0,5 0,4 -2,7 -4,9 -2,3 -5,4 -8,4 -17,1 -34,1 -51,2 -4,0 -7,-2 -8,-4 -3,-2 -4,-6 -4,-9 0,-2 0,-3 0,-5 1,-3 2,-7 4,-9 2,-3 5,-4 8,-4z"/>
    <path class="fil1 str1" d="M338 438c17,0 34,0 51,0 3,0 6,1 8,3 2,3 4,6 4,10 -1,1 0,3 0,4 0,4 -2,7 -4,10 -2,2 -5,4 -8,4 -17,0 -35,0 -52,0 -3,1 -6,-1 -8,-3 -2,-3 -3,-6 -3,-10 0,-1 0,-3 0,-4 0,-4 1,-7 3,-10 2,-2 5,-4 9,-4z"/>
    <path class="fil1 str1" d="M444 437c17,0 34,0 51,0 4,0 7,1 9,3 2,3 3,6 3,10 0,1 0,3 0,5 0,3 -2,7 -4,9 -2,2 -5,4 -8,4 -17,0 -34,0 -51,0 -4,0 -7,-1 -9,-4 -2,-2 -3,-5 -3,-9 0,-2 0,-3 0,-5 0,-3 2,-7 4,-9 2,-3 5,-4 8,-4z"/>
    <path class="fil1 str1" d="M551 436c16,0 34,0 51,0 3,0 6,2 8,4 2,3 3,6 3,10 0,1 0,3 0,4 0,4 -1,7 -3,10 -2,2 -5,4 -9,4 -17,0 -34,0 -51,0 -3,0 -6,-2 -8,-4 -2,-2 -3,-6 -3,-9 0,-2 0,-4 0,-5 0,-4 1,-7 3,-10 2,-2 5,-4 9,-4z"/>
    <path class="fil1 str1" d="M657 436c17,0 34,0 51,0 3,0 6,2 8,4 2,3 4,6 4,10 0,1 0,3 0,4 0,4 -2,7 -4,10 -2,2 -5,4 -8,4 -17,0 -35,0 -52,0 -3,0 -6,-2 -8,-4 -2,-3 -3,-6 -3,-10 0,-1 0,-3 0,-4 0,-4 1,-7 3,-10 2,-2 6,-4 9,-4z"/>
    <path class="fil1 str1" d="M763 436c17,0 34,1 51,1 4,0 7,1 9,4 2,2 3,6 3,9 0,2 0,3 0,5 0,4 -2,7 -4,9 -2,3 -5,4 -8,4 -17,0 -34,0 -51,0 -3,0 -7,-2 -8,-4 -2,-3 -4,-6 -4,-10 0,-1 0,-3 0,-4 0,-4 2,-7 4,-10 2,-2 5,-4 8,-4z"/>
    <path class="fil1 str1" d="M870 438c17,0 34,1 51,1 3,0 6,2 8,4 2,3 3,6 3,10 0,1 0,3 0,5 0,3 -1,6 -3,9 -2,2 -5,3 -8,3 -17,0 -35,-1 -52,-1 -3,0 -6,-2 -8,-4 -2,-3 -3,-6 -3,-9 0,-2 0,-4 0,-5 0,-4 1,-7 3,-10 2,-2 5,-3 9,-3z"/>
    <path class="fil1 str1" d="M976 442c17,2 34,4 51,6 3,0 7,2 8,5 2,2 4,6 4,9 0,2 0,3 0,5 0,3 -2,6 -4,8 -2,2 -5,3 -8,3 -17,-2 -34,-4 -51,-5 -4,0 -7,-2 -9,-4 -2,-3 -3,-6 -3,-10 0,-1 0,-3 0,-4 0,-4 1,-7 3,-9 2,-2 6,-4 9,-4z"/>
    <path class="fil1 str1" d="M1082 458c17,4 35,9 52,16 3,1 6,3 8,6 2,4 3,7 3,10 0,2 0,3 0,5 0,3 -1,6 -3,7 -2,1 -5,2 -8,0 -18,-6 -35,-11 -52,-15 -3,0 -6,-3 -8,-5 -2,-3 -3,-6 -3,-10 0,-1 0,-3 0,-4 0,-4 1,-7 3,-9 2,-2 5,-2 8,-1z"/>
    <path class="fil1 str1" d="M-33 392c17,-2 34,-4 51,-5 3,0 6,1 8,3 2,2 4,5 4,9 0,1 0,3 0,4 -1,4 -2,7 -4,10 -2,2 -5,4 -8,4 -18,1 -35,3 -52,4 -3,1 -6,0 -8,-2 -2,-3 -3,-5 -3,-9 0,-1 0,-3 0,-5 0,-3 1,-6 3,-9 3,-2 6,-4 9,-4z"/>
    <path class="fil1 str1" d="M73 383c17,-1 34,-2 51,-3 4,0 7,1 9,3 2,2 3,6 3,9 0,2 0,3 0,5 0,3 -2,7 -4,9 -2,3 -5,4 -8,4 -17,1 -34,2 -51,3 -4,0 -7,-1 -9,-3 -2,-2 -3,-5 -3,-9 0,-1 0,-3 0,-5 0,-3 2,-6 4,-9 2,-2 5,-4 8,-4z"/>
    <path class="fil1 str1" d="M180 377c17,0 34,-1 51,-2 3,0 6,1 8,4 2,2 3,5 3,9 0,1 0,3 0,5 0,3 -2,6 -4,9 -2,3 -4,4 -8,4 -17,1 -34,1 -51,2 -3,0 -6,-1 -8,-4 -2,-2 -3,-5 -3,-8 0,-2 0,-4 0,-5 0,-4 1,-7 3,-10 2,-2 5,-4 9,-4z"/>
    <path class="fil1 str1" d="M286 373c17,0 34,0 51,-1 3,0 6,2 8,4 2,2 4,6 4,9 0,2 0,3 -1,5 0,4 -1,7 -3,9 -2,3 -5,4 -8,4 -17,1 -35,1 -52,1 -3,1 -6,-1 -8,-3 -2,-2 -3,-6 -3,-9 0,-2 0,-3 0,-5 0,-4 1,-7 3,-9 3,-3 6,-4 9,-5z"/>
    <path class="fil1 str1" d="M392 371c17,0 34,0 51,0 4,0 7,1 9,3 1,3 3,6 3,10 0,1 0,3 0,5 0,3 -2,6 -4,9 -2,2 -5,4 -8,4 -17,0 -34,0 -51,1 -4,0 -7,-2 -9,-4 -1,-3 -3,-6 -3,-9 0,-2 0,-4 0,-5 0,-4 2,-7 4,-10 2,-2 5,-4 8,-4z"/>
    <path class="fil1 str1" d="M498 370c17,0 35,0 52,0 3,0 6,2 8,4 2,2 3,6 3,9 0,2 0,3 0,5 0,4 -2,7 -4,9 -2,3 -5,4 -8,4 -17,0 -34,1 -51,1 -3,0 -6,-2 -8,-4 -2,-3 -3,-6 -3,-9 0,-2 0,-4 0,-5 0,-4 1,-7 3,-10 2,-2 5,-4 8,-4z"/>
    <path class="fil1 str1" d="M605 370c17,0 34,0 51,0 3,0 6,1 8,4 2,2 4,6 4,9 -1,2 -1,3 -1,5 0,4 -1,7 -3,9 -2,3 -5,4 -8,4 -17,0 -35,0 -52,0 -3,0 -6,-1 -8,-4 -2,-2 -3,-5 -3,-9 0,-2 0,-3 0,-5 0,-3 1,-7 3,-9 2,-2 5,-4 9,-4z"/>
    <path class="fil1 str1" d="M711 370c17,0 34,0 51,0 3,0 6,2 8,4 2,3 4,6 4,9 0,2 0,4 0,5 0,4 -2,7 -4,10 -2,2 -5,3 -8,3 -17,0 -34,0 -51,0 -4,0 -7,-1 -9,-4 -2,-2 -3,-5 -3,-9 0,-2 0,-3 0,-5 0,-3 1,-7 3,-9 2,-3 6,-4 9,-4z"/>
    <path class="fil1 str1" d="M817 371c17,0 34,0 51,1 4,0 7,2 9,4 2,2 3,6 3,9 0,2 0,4 0,5 0,4 -2,7 -4,9 -2,3 -5,4 -8,4 -17,-1 -34,-1 -51,-1 -3,0 -6,-2 -8,-4 -2,-3 -4,-6 -4,-9 0,-2 0,-4 0,-5 0,-4 2,-7 4,-10 2,-2 5,-3 8,-3z"/>
    <path class="fil1 str1" d="M924 374c16,1 34,2 51,4 3,0 6,2 8,4 2,3 3,6 3,9 0,2 0,4 0,5 0,4 -1,7 -3,9 -2,2 -5,3 -8,3 -18,-1 -35,-2 -52,-3 -3,0 -6,-2 -8,-4 -2,-3 -3,-6 -3,-10 0,-1 0,-3 0,-5 0,-3 1,-6 3,-9 2,-2 5,-3 9,-3z"/>
    <path class="fil1 str1" d="M1030 384c17,3 34,6 51,11 3,0 6,3 8,5 2,3 4,7 4,10 0,2 0,3 0,5 0,3 -2,6 -4,8 -2,1 -5,2 -8,1 -17,-4 -34,-7 -52,-10 -3,0 -6,-2 -8,-5 -2,-2 -3,-6 -3,-9 0,-2 0,-3 0,-5 0,-3 1,-6 3,-8 2,-2 6,-3 9,-3z"/>
    <path class="fil1 str1" d="M-31 266c17,-2 34,-4 52,-6 3,-1 5,0 7,3 2,2 4,5 4,8 0,2 0,3 0,5 0,3 -2,7 -4,9 -2,3 -5,5 -8,5 -17,2 -34,4 -51,6 -3,0 -7,-1 -9,-3 -2,-2 -3,-4 -3,-8 0,-2 0,-3 0,-4 0,-4 2,-7 4,-10 2,-2 5,-4 8,-5z"/>
    <path class="fil1 str1" d="M75 254c17,-1 34,-3 52,-4 3,0 6,1 8,3 2,3 3,6 3,9 0,2 0,3 0,5 0,4 -2,7 -3,9 -2,3 -6,4 -9,5 -17,1 -34,2 -51,4 -3,0 -6,-1 -8,-3 -2,-3 -4,-6 -4,-9 0,-2 0,-3 0,-5 0,-3 2,-7 4,-9 2,-3 5,-5 8,-5z"/>
    <path class="fil1 str1" d="M182 247c16,-1 34,-2 51,-3 3,0 6,1 8,4 2,2 3,5 3,8 0,2 0,4 0,5 0,4 -1,7 -3,10 -2,2 -5,4 -9,4 -17,1 -34,2 -51,3 -3,0 -6,-2 -8,-4 -2,-2 -3,-5 -3,-9 0,-2 0,-3 0,-5 0,-3 1,-7 3,-9 2,-2 5,-4 9,-4z"/>
    <path class="fil1 str1" d="M288 242c17,-1 34,-1 51,-2 3,0 6,2 8,4 2,2 3,5 3,9 0,2 0,3 0,5 0,4 -1,7 -3,9 -2,3 -6,4 -8,4 -18,1 -35,2 -52,2 -3,0 -6,-1 -8,-4 -2,-2 -3,-5 -3,-9 0,-1 0,-3 0,-5 0,-3 1,-6 3,-9 2,-2 5,-4 9,-4z"/>
    <path class="fil1 str1" d="M394 239c17,0 34,-1 51,-1 3,0 6,2 8,4 2,2 3,6 3,9 0,2 0,3 0,5 0,4 -1,7 -3,10 -2,2 -5,3 -8,3 -17,1 -35,1 -51,1 -4,0 -7,-1 -9,-4 -2,-2 -3,-5 -3,-9 0,-1 0,-3 0,-5 0,-3 1,-6 3,-9 2,-2 5,-4 9,-4z"/>
    <path class="fil1 str1" d="M500 238c17,0 34,0 51,0 3,-1 6,1 8,3 2,3 3,6 3,10 0,1 0,3 0,4 0,4 -1,7 -3,10 -2,2 -5,4 -8,4 -17,0 -35,0 -52,0 -3,0 -6,-1 -8,-4 -2,-2 -3,-6 -3,-9 0,-2 0,-3 0,-5 0,-4 1,-7 3,-9 2,-3 6,-4 9,-4z"/>
    <path class="fil1 str1" d="M606 238c17,0 34,-1 51,-1 3,0 6,2 8,4 2,2 4,6 4,10 0,1 0,3 0,4 -1,4 -2,7 -4,10 -2,2 -5,3 -8,4 -17,0 -34,0 -51,0 -4,0 -7,-2 -9,-4 -2,-3 -3,-6 -3,-9 0,-2 0,-4 0,-5 0,-4 2,-7 4,-10 2,-2 5,-4 8,-3z"/>
    <path class="fil1 str1" d="M712 238c17,0 34,0 51,0 3,0 6,1 8,4 2,2 4,5 4,9 0,2 0,3 0,5 0,3 -2,7 -4,9 -2,3 -5,4 -8,4 -17,0 -34,0 -51,0 -3,0 -7,-2 -9,-4 -1,-3 -3,-6 -3,-9 0,-2 0,-4 0,-5 0,-4 2,-7 4,-10 2,-2 5,-3 8,-3z"/>
    <path class="fil1 str1" d="M818 239c17,0 34,0 51,1 3,0 6,2 8,4 2,3 4,6 4,10 0,1 0,3 0,5 0,3 -2,6 -4,9 -2,2 -5,3 -8,3 -17,-1 -34,-1 -51,-1 -4,0 -7,-2 -9,-4 -1,-3 -3,-6 -3,-10 0,-1 0,-3 0,-5 0,-3 2,-6 4,-9 2,-2 5,-4 8,-3z"/>
    <path class="fil1 str1" d="M924 243c17,2 34,3 51,5 3,0 6,2 8,5 2,2 4,6 4,9 0,2 0,3 0,5 0,3 -2,6 -4,8 -2,3 -5,4 -8,3 -17,-1 -34,-3 -51,-4 -3,0 -6,-2 -8,-4 -2,-3 -4,-6 -4,-10 0,-1 0,-3 0,-5 0,-3 2,-7 4,-9 2,-2 5,-3 8,-3z"/>
    <path class="fil1 str1" d="M1030 256c17,4 34,8 51,13 3,1 6,3 9,6 1,3 3,7 3,10 0,2 0,3 0,5 0,3 -1,6 -3,7 -2,2 -6,2 -9,2 -17,-5 -34,-9 -51,-13 -3,0 -6,-2 -8,-5 -2,-3 -3,-6 -3,-9 0,-2 0,-3 0,-5 0,-4 1,-7 3,-8 2,-2 5,-3 8,-3z"/>
    <path class="fil1 str1" d="M21 323c17,-1 34,-3 51,-4 3,-1 7,1 8,3 2,2 4,5 4,9 0,1 0,3 0,4 0,4 -2,7 -4,10 -2,2 -5,4 -8,4 -17,1 -34,3 -51,4 -4,1 -7,-1 -9,-3 -2,-2 -3,-5 -3,-8 0,-2 0,-3 0,-5 0,-3 2,-7 4,-9 2,-3 5,-5 8,-5z"/>
    <path class="fil1 str1" d="M127 315c17,-1 35,-2 52,-3 3,0 6,1 8,3 2,3 3,6 3,10 0,1 0,3 0,4 0,4 -2,7 -4,10 -2,2 -5,4 -8,4 -17,1 -34,2 -51,2 -3,1 -6,-1 -8,-3 -2,-2 -4,-5 -4,-9 1,-1 1,-3 1,-4 0,-4 1,-7 3,-10 2,-2 5,-4 8,-4z"/>
    <path class="fil1 str1" d="M234 309c16,0 34,-1 51,-1 3,0 6,1 8,3 2,3 3,6 3,9 0,2 0,4 0,5 0,4 -1,7 -3,10 -2,2 -6,4 -9,4 -17,0 -34,1 -51,1 -3,1 -6,-1 -8,-3 -2,-2 -4,-6 -3,-9 0,-2 0,-3 0,-5 0,-4 1,-7 3,-9 2,-3 5,-4 9,-5z"/>
    <path class="fil1 str1" d="M340 306c17,0 34,-1 51,-1 3,0 6,2 8,4 2,2 4,6 4,9 0,2 -1,3 -1,5 0,4 -1,7 -3,9 -2,3 -5,4 -8,4 -17,1 -35,1 -52,1 -3,0 -6,-1 -8,-3 -2,-3 -3,-6 -3,-10 0,-1 0,-3 0,-4 0,-4 1,-7 3,-10 2,-2 5,-4 9,-4z"/>
    <path class="fil1 str1" d="M446 304c17,0 34,0 51,0 3,0 6,1 8,4 2,2 4,6 4,9 0,2 0,3 0,5 0,4 -2,7 -4,9 -2,3 -5,4 -8,4 -17,0 -34,1 -51,1 -4,0 -7,-2 -9,-4 -2,-2 -3,-6 -3,-9 0,-2 0,-4 0,-5 0,-4 2,-7 4,-10 2,-2 5,-4 8,-4z"/>
    <path class="fil1 str1" d="M552 304c17,0 34,0 51,0 3,0 6,1 8,4 2,2 4,5 4,9 0,2 0,3 0,5 0,3 -2,7 -4,9 -2,3 -5,4 -8,4 -17,0 -34,0 -51,0 -4,0 -7,-1 -9,-4 -2,-2 -3,-6 -3,-9 0,-2 0,-3 0,-5 0,-4 2,-7 4,-9 2,-3 5,-4 8,-4z"/>
    <path class="fil1 str1" d="M658 304c17,0 34,0 51,0 4,0 7,1 9,4 2,2 3,5 3,9 0,2 0,3 0,5 0,3 -2,7 -4,9 -2,3 -5,4 -8,4 -17,0 -34,0 -51,0 -3,0 -6,-2 -8,-4 -2,-2 -4,-6 -4,-9 0,-2 0,-4 0,-5 0,-4 2,-7 4,-10 2,-2 5,-3 8,-3z"/>
    <path class="fil1 str1" d="M764 304c17,0 34,0 51,1 4,0 7,1 9,4 1,2 3,5 3,9 0,2 0,3 0,5 0,3 -2,7 -3,9 -2,2 -5,4 -9,4 -17,0 -34,-1 -51,-1 -3,0 -6,-1 -8,-4 -2,-2 -4,-6 -4,-9 1,-2 1,-3 1,-5 0,-4 1,-7 3,-9 2,-2 5,-4 8,-4z"/>
    <path class="fil1 str1" d="M870 306c17,1 35,2 52,2 3,0 6,2 8,5 2,2 3,6 3,9 0,2 0,3 0,5 0,4 -1,7 -3,9 -2,2 -5,3 -8,3 -17,0 -35,-1 -52,-2 -3,0 -6,-2 -8,-4 -2,-2 -3,-6 -3,-9 0,-2 0,-4 0,-5 0,-4 1,-7 3,-10 2,-2 5,-3 8,-3z"/>
    <path class="fil1 str1" d="M977 313c17,2 34,4 51,7 3,0 6,2 8,5 2,3 3,6 3,10 0,1 0,3 0,4 0,4 -1,7 -3,9 -2,2 -5,3 -8,2 -17,-3 -35,-5 -51,-7 -4,0 -7,-1 -9,-4 -2,-3 -3,-6 -3,-9 0,-2 0,-4 0,-5 0,-4 1,-7 3,-9 2,-2 5,-4 9,-3z"/>
    <path class="fil1 str1" d="M1083 332c17,5 34,12 51,19 3,2 6,5 8,8 2,3 4,7 4,10 0,2 0,3 0,5 0,3 -2,5 -4,7 -2,1 -5,1 -8,-1 -17,-7 -34,-13 -51,-18 -3,-1 -6,-3 -8,-6 -2,-3 -4,-6 -4,-10 0,-1 0,-3 0,-4 0,-4 2,-7 4,-9 2,-1 5,-2 8,-1z"/>
    <path class="fil1 str1" d="M23 196c16,-2 34,-4 51,-6 3,0 6,1 8,3 2,2 3,5 3,9 0,1 0,3 0,4 0,4 -1,7 -3,10 -2,2 -5,4 -8,4 -18,2 -35,4 -52,6 -3,0 -6,-1 -8,-3 -2,-2 -3,-5 -3,-8 0,-2 0,-3 0,-5 0,-4 1,-7 3,-9 2,-3 5,-5 9,-5z"/>
    <path class="fil1 str1" d="M129 185c17,-1 34,-2 51,-3 3,-1 6,1 8,3 2,2 3,5 3,9 0,2 0,3 0,5 0,3 -1,7 -3,9 -2,3 -5,4 -8,4 -17,1 -34,2 -51,4 -4,0 -7,-1 -9,-3 -2,-2 -3,-6 -3,-9 0,-2 0,-3 0,-5 0,-3 1,-7 3,-9 2,-3 5,-5 9,-5z"/>
    <path class="fil1 str1" d="M235 178c17,0 34,-1 51,-2 3,0 6,1 8,4 2,2 4,5 4,9 0,1 0,3 0,5 0,3 -2,7 -4,9 -2,3 -5,4 -8,4 -17,1 -34,2 -51,2 -4,0 -7,-1 -9,-3 -2,-2 -3,-6 -3,-9 0,-2 0,-3 0,-5 0,-4 2,-7 4,-9 2,-3 5,-4 8,-5z"/>
    <path class="fil1 str1" d="M341 174c17,0 34,-1 51,-1 3,0 6,1 8,4 2,2 4,5 4,9 0,2 0,3 0,5 0,3 -2,7 -4,9 -2,3 -5,4 -8,4 -17,0 -34,1 -51,1 -4,1 -6,-1 -9,-3 -1,-2 -3,-6 -3,-9 0,-2 0,-4 0,-5 0,-4 1,-7 3,-10 2,-2 6,-4 9,-4z"/>
    <path class="fil1 str1" d="M447 172c17,0 34,0 51,-1 3,0 6,2 8,4 2,3 4,6 4,10 0,1 0,3 0,4 0,4 -2,7 -4,10 -2,2 -5,4 -8,4 -17,0 -34,0 -51,0 -3,0 -7,-1 -9,-3 -2,-3 -3,-6 -3,-10 0,-1 0,-3 0,-5 0,-3 2,-7 4,-9 2,-2 5,-4 8,-4z"/>
    <path class="fil1 str1" d="M553 171c17,0 34,0 51,0 3,0 6,2 8,4 2,2 4,6 4,9 0,2 0,4 0,5 0,4 -2,7 -4,9 -2,3 -5,4 -8,4 -17,0 -34,0 -51,0 -3,0 -6,-1 -9,-3 -1,-3 -3,-6 -3,-10 0,-1 0,-3 0,-4 0,-4 1,-7 3,-10 2,-2 6,-4 9,-4z"/>
    <path class="fil1 str1" d="M659 171c17,0 34,0 51,0 3,0 6,2 8,4 2,2 4,6 4,9 0,2 0,4 0,5 0,4 -2,7 -4,9 -2,3 -5,4 -8,4 -17,0 -34,0 -51,0 -3,0 -6,-1 -8,-4 -2,-2 -4,-5 -4,-9 0,-2 0,-3 0,-5 0,-3 2,-7 4,-9 2,-3 5,-4 8,-4z"/>
    <path class="fil1 str1" d="M765 171c17,1 34,1 51,1 3,0 6,2 8,5 2,2 4,5 4,9 0,1 0,3 0,5 0,3 -2,6 -4,9 -2,2 -5,3 -8,3 -17,0 -34,0 -51,0 -3,0 -6,-2 -8,-4 -2,-3 -4,-6 -4,-10 1,-1 0,-3 0,-4 0,-4 2,-7 4,-10 2,-2 5,-4 8,-4z"/>
    <path class="fil1 str1" d="M871 174c17,1 34,2 51,3 3,1 6,3 8,5 2,3 4,6 4,9 0,2 0,4 0,5 0,4 -2,7 -4,9 -2,3 -5,3 -8,3 -17,-1 -34,-2 -51,-3 -3,0 -6,-1 -8,-4 -2,-2 -4,-6 -4,-9 0,-2 0,-3 0,-5 0,-4 2,-7 4,-9 2,-2 5,-4 8,-4z"/>
    <path class="fil1 str1" d="M977 183c17,3 34,6 51,9 3,1 6,3 8,6 2,2 4,6 4,9 0,2 0,3 0,5 0,4 -2,6 -4,8 -2,2 -5,3 -8,2 -17,-3 -34,-6 -51,-8 -3,-1 -6,-2 -8,-5 -2,-3 -4,-6 -4,-9 0,-2 0,-4 0,-5 0,-4 2,-7 4,-9 2,-2 5,-3 8,-3z"/>
    <path class="fil1 str1" d="M1083 207c17,6 34,13 51,22 3,2 6,5 8,9 2,3 4,7 4,10 0,2 0,3 0,4 0,4 -2,6 -4,7 -2,1 -5,1 -8,-1 -17,-9 -34,-16 -51,-22 -3,-1 -6,-3 -8,-6 -2,-3 -3,-6 -3,-10 0,-1 0,-3 0,-4 0,-4 1,-7 3,-8 2,-2 5,-2 8,-1z"/>
   </g>
  </g>
  <path class="fil3" d="M1021 169c-87,-26 -233,-27 -335,-27 -112,0 -501,10 -585,17 -72,7 -83,9 -95,13l-6 1164c16,6 46,13 101,16 58,3 504,11 616,11 62,0 234,-7 296,-17 30,-5 62,-10 81,-19l-1 -1126c-12,-12 -39,-22 -72,-32z"/>
 </g>
</svg>
